<?xml version="1.0" encoding="UTF-8" standalone="no"?>
<svg
   xmlns:dc="http://purl.org/dc/elements/1.1/"
   xmlns:cc="http://creativecommons.org/ns#"
   xmlns:rdf="http://www.w3.org/1999/02/22-rdf-syntax-ns#"
   xmlns:svg="http://www.w3.org/2000/svg"
   xmlns="http://www.w3.org/2000/svg"
   id="svg237"
   version="1.2"
   viewBox="0 0 547.5 262.5"
   height="350"
   width="730">
  <metadata
     id="metadata243">
    <rdf:RDF>
      <cc:Work
         rdf:about="">
        <dc:format>image/svg+xml</dc:format>
        <dc:type
           rdf:resource="http://purl.org/dc/dcmitype/StillImage" />
        <dc:title></dc:title>
      </cc:Work>
    </rdf:RDF>
  </metadata>
  <defs
     id="defs241" />
  <g
     transform="matrix(2.3070475,0,0,2.3070475,-139.16193,-156.80652)"
     id="surface485">
    <path
       id="path2"
       transform="matrix(0.75,0,0,0.75,138.72,168.96)"
       d="m -0.00167367,0.001251 -1.43750033,-0.161458 -1.598958,-0.317709 -1.28125,-0.640625 -1.28125,-0.802083 -0.958333,-1.119792 -0.963542,-1.119791 -0.635417,-1.28125 -0.484375,-1.4375 V -115.20187 l 0.484375,-1.27605 0.635417,-1.4427 0.963542,-1.28125 0.958333,-0.95834 1.28125,-0.80208 1.28125,-0.63542 1.598958,-0.32291 1.43750033,-0.16146 H 107.3577 l 1.44271,0.16146 1.4375,0.32291 1.44271,0.63542 1.11979,0.80208 1.11979,0.95834 0.80209,1.28125 0.63541,1.4427 0.48438,1.27605 0.15625,1.4427 V -8.321666 l -0.15625,1.442709 -0.48438,1.4375 -0.63541,1.28125 -0.80209,1.119791 -1.11979,1.119792 -1.11979,0.802083 -1.28125,0.640625 -1.59896,0.317709 -1.44271,0.161458 z m 0,0"
       style="fill:#ffff00;fill-opacity:1;fill-rule:evenodd;stroke:#000000;stroke-width:0.95999998;stroke-linecap:round;stroke-linejoin:round;stroke-miterlimit:10;stroke-opacity:1" />
    <path
       id="path4"
       d="m 143.03906,91.199219 v -9 h -0.23828 l -0.12109,9 z m 0,0"
       style="fill:#dedede;fill-opacity:1;fill-rule:evenodd;stroke:none" />
    <path
       id="path6"
       d="m 142.67969,91.199219 0.12109,-9 h -0.35937 v 9 z m 0,0"
       style="fill:#dedede;fill-opacity:1;fill-rule:evenodd;stroke:none" />
    <path
       id="path8"
       d="m 144.71875,86.640625 -0.11719,0.960937 -0.36328,0.957032 -0.47656,0.839844 -0.60156,0.722656 -0.83985,0.480468 -0.96094,0.476563 -0.96093,0.121094 h -1.07813 l -0.96094,-0.359375 -0.83984,-0.480469 -0.83984,-0.597656 -0.60157,-0.722657 -0.35937,-0.839843 -0.23828,-1.078125 -0.1211,-0.960938 0.35938,-0.839844 0.35937,-0.960937 0.60157,-0.839844 0.71875,-0.597656 0.96093,-0.480469 0.96094,-0.242187 h 0.96094 l 1.07812,0.121093 0.96094,0.359376 0.83985,0.601562 0.60156,0.71875 0.47656,0.71875 0.36328,0.960938 z m 0,0"
       style="fill:#ffffff;fill-opacity:1;fill-rule:evenodd;stroke:none" />
    <path
       id="path10"
       d="m 143.03906,91.199219 v -9 h -0.23828 l -0.12109,9 z m 0,0"
       style="fill:#dedede;fill-opacity:1;fill-rule:evenodd;stroke:none" />
    <path
       id="path12"
       d="m 142.67969,91.199219 0.12109,-9 h -0.35937 v 9 z m 0,0"
       style="fill:#dedede;fill-opacity:1;fill-rule:evenodd;stroke:none" />
    <path
       id="path14"
       transform="matrix(0.75,0,0,0.75,144.72,86.639998)"
       d="M -0.00167367,8.36333e-4 -0.157924,1.282086 -0.642299,2.558128 -1.277715,3.67792 -2.079799,4.641461 -3.19959,5.282086 -4.48084,5.917503 -5.76209,6.078961 h -1.4375 L -8.48084,5.599795 -9.600632,4.95917 l -1.119792,-0.796875 -0.802083,-0.963542 -0.479167,-1.119792 -0.317708,-1.4375 -0.161458,-1.28125 0.479166,-1.119791 0.479167,-1.28125 0.802083,-1.119792 0.958334,-0.796875 1.28125,-0.640625 1.28125,-0.322917 h 1.28125 l 1.4375,0.161459 1.28125,0.479166 1.119791,0.802084 0.802084,0.958333 0.635416,0.958333 0.484375,1.28125 0.15625033,1.281250333"
       style="fill:none;stroke:#000000;stroke-width:0.80000001;stroke-linecap:round;stroke-linejoin:round;stroke-miterlimit:10;stroke-opacity:1" />
    <path
       id="path16"
       d="m 139.67969,88.441406 v -3.601562 h -0.1211 l -0.11718,3.601562 z m 0,0"
       style="fill:#dedede;fill-opacity:1;fill-rule:evenodd;stroke:none" />
    <path
       id="path18"
       d="m 139.44141,88.441406 0.11718,-3.601562 h -0.11718 z m 0,0"
       style="fill:#dedede;fill-opacity:1;fill-rule:evenodd;stroke:none" />
    <path
       id="path20"
       d="m 141.83984,86.640625 -0.12109,0.597656 -0.23828,0.480469 -0.48047,0.480469 -0.60156,0.242187 h -0.71875 l -0.48047,-0.242187 -0.59766,-0.480469 -0.24219,-0.480469 -0.12109,-0.597656 0.12109,-0.601563 0.24219,-0.480468 0.59766,-0.359375 0.48047,-0.359375 h 0.71875 L 141,85.199219 l 0.48047,0.359375 0.23828,0.480468 z m 0,0"
       style="fill:#ffffff;fill-opacity:1;fill-rule:evenodd;stroke:none" />
    <path
       id="path22"
       d="m 139.67969,88.441406 v -3.601562 h -0.1211 l -0.11718,3.601562 z m 0,0"
       style="fill:#dedede;fill-opacity:1;fill-rule:evenodd;stroke:none" />
    <path
       id="path24"
       d="m 139.44141,88.441406 0.11718,-3.601562 h -0.11718 z m 0,0"
       style="fill:#dedede;fill-opacity:1;fill-rule:evenodd;stroke:none" />
    <path
       id="path26"
       transform="matrix(0.75,0,0,0.75,141.84,86.639998)"
       d="M -2.03333e-4,8.36333e-4 -0.161662,0.797711 -0.47937,1.438336 -1.119995,2.078961 -1.922078,2.401878 H -2.880412 L -3.521037,2.078961 -4.317912,1.438336 -4.640828,0.797711 -4.802287,8.36333e-4 -4.640828,-0.801247 l 0.322916,-0.640625 0.796875,-0.479167 0.640625,-0.479166 h 0.958334 l 0.802083,0.479166 0.640625,0.479167 0.317708,0.640625 0.161458667,0.802083333"
       style="fill:none;stroke:#000000;stroke-width:0.80000001;stroke-linecap:round;stroke-linejoin:round;stroke-miterlimit:10;stroke-opacity:1" />
    <path
       id="path28"
       d="m 216.48047,90.839844 v -8.761719 h -0.24219 v 8.761719 z m 0,0"
       style="fill:#dedede;fill-opacity:1;fill-rule:evenodd;stroke:none" />
    <path
       id="path30"
       d="m 216.12109,90.839844 0.11719,-8.761719 h -0.35937 v 8.761719 z m 0,0"
       style="fill:#dedede;fill-opacity:1;fill-rule:evenodd;stroke:none" />
    <path
       id="path32"
       d="m 221.03906,86.398438 -0.11719,1.082031 -0.24218,0.839843 -0.60157,0.839844 -0.71875,0.71875 -1.67968,0.960938 h -2.03907 L 214.67969,90.601562 213.71875,90.238281 213,89.640625 l -0.60156,-0.839844 -0.47657,-0.839843 -0.12109,-1.082032 v -0.839844 l 0.12109,-0.960937 0.47657,-0.839844 0.60156,-0.839843 0.71875,-0.597657 0.83984,-0.480469 1.08203,-0.242187 h 0.96094 l 0.95703,0.121094 0.96094,0.359375 0.83984,0.480468 0.71875,0.722657 0.60157,0.839843 0.24218,0.957032 z m 0,0"
       style="fill:#ffffff;fill-opacity:1;fill-rule:evenodd;stroke:none" />
    <path
       id="path34"
       d="m 216.48047,90.839844 v -8.761719 h -0.24219 v 8.761719 z m 0,0"
       style="fill:#dedede;fill-opacity:1;fill-rule:evenodd;stroke:none" />
    <path
       id="path36"
       d="m 216.12109,90.839844 0.11719,-8.761719 h -0.35937 v 8.761719 z m 0,0"
       style="fill:#dedede;fill-opacity:1;fill-rule:evenodd;stroke:none" />
    <path
       id="path38"
       transform="matrix(0.75,0,0,0.75,221.04,86.399998)"
       d="M -0.001251,-0.00208033 -0.157501,1.440628 -0.480418,2.56042 -1.282501,3.680211 -2.240834,4.638545 -4.480418,5.919795 h -2.71875 l -1.28125,-0.317709 -1.28125,-0.484375 -0.958333,-0.796875 -0.802083,-1.119791 -0.635417,-1.119792 -0.161458,-1.442708 v -1.119792 l 0.161458,-1.28125 0.635417,-1.119792 0.802083,-1.119791 0.958333,-0.796875 1.119792,-0.640625 1.442708,-0.322917 h 1.28125 l 1.276042,0.161458 1.28125,0.479167 1.119792,0.640625 0.958333,0.963542 0.802083,1.119791 0.322917,1.276042 0.15625,1.11979167"
       style="fill:none;stroke:#000000;stroke-width:0.80000001;stroke-linecap:round;stroke-linejoin:round;stroke-miterlimit:10;stroke-opacity:1" />
    <path
       id="path40"
       d="M 217.67969,88.199219 V 84.71875 h -0.1211 l -0.11718,3.480469 z m 0,0"
       style="fill:#dedede;fill-opacity:1;fill-rule:evenodd;stroke:none" />
    <path
       id="path42"
       d="m 217.44141,88.199219 0.11718,-3.480469 h -0.23828 v 3.480469 z m 0,0"
       style="fill:#dedede;fill-opacity:1;fill-rule:evenodd;stroke:none" />
    <path
       id="path44"
       d="M 218.16016,86.398438 218.03906,87 l -0.35937,0.601562 -0.48047,0.359376 -0.48047,0.238281 h -0.59766 L 215.39844,87.960938 215.03906,87.601562 214.67969,87 l -0.1211,-0.480469 0.1211,-0.597656 0.71875,-0.960937 0.72265,-0.242188 h 0.59766 l 0.48047,0.242188 0.48047,0.480468 0.35937,0.480469 z m 0,0"
       style="fill:#ffffff;fill-opacity:1;fill-rule:evenodd;stroke:none" />
    <path
       id="path46"
       d="M 217.67969,88.199219 V 84.71875 h -0.1211 l -0.11718,3.480469 z m 0,0"
       style="fill:#dedede;fill-opacity:1;fill-rule:evenodd;stroke:none" />
    <path
       id="path48"
       d="m 217.44141,88.199219 0.11718,-3.480469 h -0.23828 v 3.480469 z m 0,0"
       style="fill:#dedede;fill-opacity:1;fill-rule:evenodd;stroke:none" />
    <path
       id="path50"
       transform="matrix(0.75,0,0,0.75,218.16,86.399998)"
       d="M 2.03333e-4,-0.00208033 -0.161255,0.800003 -0.640422,1.602086 -1.281047,2.081253 -1.921672,2.398961 H -2.718547 L -3.682088,2.081253 -4.161255,1.602086 -4.640422,0.800003 -4.80188,0.159378 l 0.161458,-0.796875 0.958334,-1.28125 0.963541,-0.322917 h 0.796875 l 0.640625,0.322917 0.640625,0.640625 0.479167,0.640625 0.161458333,0.63541667"
       style="fill:none;stroke:#000000;stroke-width:0.80000001;stroke-linecap:round;stroke-linejoin:round;stroke-miterlimit:10;stroke-opacity:1" />
    <path
       id="path52"
       d="m 143.03906,166.44141 v -9.1211 h -0.23828 l -0.12109,9.1211 z m 0,0"
       style="fill:#dedede;fill-opacity:1;fill-rule:evenodd;stroke:none" />
    <path
       id="path54"
       d="m 142.67969,166.44141 0.12109,-9.1211 h -0.35937 v 9.1211 z m 0,0"
       style="fill:#dedede;fill-opacity:1;fill-rule:evenodd;stroke:none" />
    <path
       id="path56"
       d="m 144.71875,161.87891 -0.11719,1.08203 -0.36328,0.83984 -0.47656,0.83984 -0.60156,0.71875 -0.83985,0.48047 -0.96094,0.35938 -0.96093,0.24219 h -1.07813 l -0.96094,-0.36329 -0.83984,-0.35937 -0.83984,-0.71875 -0.60157,-0.71875 -0.35937,-0.96094 -0.23828,-0.96094 -0.1211,-0.83984 0.35938,-1.07812 0.35937,-0.83985 0.60157,-0.83984 0.71875,-0.60156 0.96093,-0.48047 0.96094,-0.23828 0.96094,-0.1211 1.07812,0.23828 0.96094,0.24219 0.83985,0.59766 0.60156,0.83984 0.47656,0.72266 0.36328,0.96093 z m 0,0"
       style="fill:#ffffff;fill-opacity:1;fill-rule:evenodd;stroke:none" />
    <path
       id="path58"
       d="m 143.03906,166.44141 v -9.1211 h -0.23828 l -0.12109,9.1211 z m 0,0"
       style="fill:#dedede;fill-opacity:1;fill-rule:evenodd;stroke:none" />
    <path
       id="path60"
       d="m 142.67969,166.44141 0.12109,-9.1211 h -0.35937 v 9.1211 z m 0,0"
       style="fill:#dedede;fill-opacity:1;fill-rule:evenodd;stroke:none" />
    <path
       id="path62"
       transform="matrix(0.75,0,0,0.75,144.72,161.88)"
       d="M -0.00167367,-0.00145433 -0.157924,1.441254 -0.642299,2.561046 -1.277715,3.680837 -2.079799,4.639171 -3.19959,5.279796 -4.48084,5.758962 -5.76209,6.081879 h -1.4375 l -1.28125,-0.484375 -1.119792,-0.479167 -1.119792,-0.958333 -0.802083,-0.958333 -0.479167,-1.28125 -0.317708,-1.28125 -0.161458,-1.119792 0.479166,-1.4375 0.479167,-1.119792 0.802083,-1.119791 0.958334,-0.802084 1.28125,-0.640625 1.28125,-0.317708 1.28125,-0.161458 1.4375,0.317708 1.28125,0.322917 1.119791,0.796875 0.802084,1.119791 0.635416,0.963542 0.484375,1.28125 0.15625033,1.27604167"
       style="fill:none;stroke:#000000;stroke-width:0.80000001;stroke-linecap:round;stroke-linejoin:round;stroke-miterlimit:10;stroke-opacity:1" />
    <path
       id="path64"
       d="m 139.80078,163.67969 v -3.71875 l -0.12109,3.71875 z m 0,0"
       style="fill:#dedede;fill-opacity:1;fill-rule:evenodd;stroke:none" />
    <path
       id="path66"
       d="m 139.67969,163.67969 0.12109,-3.71875 h -0.24219 v 3.71875 z m 0,0"
       style="fill:#dedede;fill-opacity:1;fill-rule:evenodd;stroke:none" />
    <path
       id="path68"
       d="m 141.96094,161.87891 -0.1211,0.60156 -0.23828,0.48047 -0.48047,0.48047 -0.48047,0.23828 h -0.60156 l -0.71875,-0.1211 -0.96094,-0.71875 -0.12109,-0.71875 v -0.60156 l 0.12109,-0.48047 0.48047,-0.48047 0.48047,-0.35937 0.71875,-0.23828 0.60156,0.11718 0.48047,0.24219 0.48047,0.48047 0.23828,0.48047 z m 0,0"
       style="fill:#ffffff;fill-opacity:1;fill-rule:evenodd;stroke:none" />
    <path
       id="path70"
       d="m 139.80078,163.67969 v -3.71875 l -0.12109,3.71875 z m 0,0"
       style="fill:#dedede;fill-opacity:1;fill-rule:evenodd;stroke:none" />
    <path
       id="path72"
       d="m 139.67969,163.67969 0.12109,-3.71875 h -0.24219 v 3.71875 z m 0,0"
       style="fill:#dedede;fill-opacity:1;fill-rule:evenodd;stroke:none" />
    <path
       id="path74"
       transform="matrix(0.75,0,0,0.75,141.96,161.88)"
       d="M 0.001251,-0.00145433 -0.160207,0.800629 -0.477916,1.441254 -1.118541,2.081879 -1.759166,2.399587 H -2.561249 L -3.519582,2.238129 -4.800832,1.279796 -4.962291,0.321462 v -0.802083 l 0.161459,-0.640625 0.640625,-0.640625 0.640625,-0.479167 0.958333,-0.317708 0.802083,0.15625 0.640625,0.322917 0.640625,0.640625 0.317709,0.640625 0.161458,0.79687467"
       style="fill:none;stroke:#000000;stroke-width:0.80000001;stroke-linecap:round;stroke-linejoin:round;stroke-miterlimit:10;stroke-opacity:1" />
    <path
       id="path76"
       d="m 215.28125,166.07812 v -9 h 0.11719 l 0.12109,9 z m 0,0"
       style="fill:#dedede;fill-opacity:1;fill-rule:evenodd;stroke:none" />
    <path
       id="path78"
       d="m 215.51953,166.07812 -0.12109,-9 h 0.36328 v 9 z m 0,0"
       style="fill:#dedede;fill-opacity:1;fill-rule:evenodd;stroke:none" />
    <path
       id="path80"
       d="m 216.12109,166.07812 v -9 h 0.11719 l 0.12109,9 z m 0,0"
       style="fill:#dedede;fill-opacity:1;fill-rule:evenodd;stroke:none" />
    <path
       id="path82"
       d="m 216.35937,166.07812 -0.12109,-9 h 0.36328 v 9 z m 0,0"
       style="fill:#dedede;fill-opacity:1;fill-rule:evenodd;stroke:none" />
    <path
       id="path84"
       d="m 216.96094,166.07812 v -9 h 0.23828 v 9 z m 0,0"
       style="fill:#dedede;fill-opacity:1;fill-rule:evenodd;stroke:none" />
    <path
       id="path86"
       d="m 217.19922,166.07812 -0.1211,-9 h 0.36329 v 9 z m 0,0"
       style="fill:#dedede;fill-opacity:1;fill-rule:evenodd;stroke:none" />
    <path
       id="path88"
       d="m 221.16016,161.51953 -0.1211,1.08203 -0.35937,0.83985 -0.48047,0.83984 -0.71875,0.71875 -0.83985,0.60156 -1.92187,0.47656 h -1.07813 l -0.83984,-0.35937 -0.96094,-0.35938 L 213,164.64062 212.39844,163.92187 212.03906,162.96094 211.80078,162 v -0.83984 l 0.23828,-1.08204 0.35938,-0.83984 0.60156,-0.83984 0.83984,-0.59766 0.83985,-0.48047 0.96093,-0.12109 1.07813,-0.1211 0.83984,0.1211 1.08203,0.35937 0.83985,0.60157 0.71875,0.71875 0.48047,0.83984 0.35937,0.96094 z m 0,0"
       style="fill:#ffffff;fill-opacity:1;fill-rule:evenodd;stroke:none" />
    <path
       id="path90"
       d="m 215.28125,166.07812 v -9 h 0.11719 l 0.12109,9 z m 0,0"
       style="fill:#dedede;fill-opacity:1;fill-rule:evenodd;stroke:none" />
    <path
       id="path92"
       d="m 215.51953,166.07812 -0.12109,-9 h 0.36328 v 9 z m 0,0"
       style="fill:#dedede;fill-opacity:1;fill-rule:evenodd;stroke:none" />
    <path
       id="path94"
       d="m 216.12109,166.07812 v -9 h 0.11719 l 0.12109,9 z m 0,0"
       style="fill:#dedede;fill-opacity:1;fill-rule:evenodd;stroke:none" />
    <path
       id="path96"
       d="m 216.35937,166.07812 -0.12109,-9 h 0.36328 v 9 z m 0,0"
       style="fill:#dedede;fill-opacity:1;fill-rule:evenodd;stroke:none" />
    <path
       id="path98"
       d="m 216.96094,166.07812 v -9 h 0.23828 v 9 z m 0,0"
       style="fill:#dedede;fill-opacity:1;fill-rule:evenodd;stroke:none" />
    <path
       id="path100"
       d="m 217.19922,166.07812 -0.1211,-9 h 0.36329 v 9 z m 0,0"
       style="fill:#dedede;fill-opacity:1;fill-rule:evenodd;stroke:none" />
    <path
       id="path102"
       transform="matrix(0.75,0,0,0.75,221.16,161.52)"
       d="M 2.03333e-4,-6.26e-4 -0.161255,1.442082 -0.640422,2.561874 -1.281047,3.681666 -2.23938,4.639999 l -1.119792,0.802083 -2.5625,0.635417 h -1.4375 l -1.119791,-0.479167 -1.28125,-0.479166 -1.119792,-0.958334 -0.802083,-0.958333 -0.479167,-1.28125 -0.317708,-1.28125 v -1.119792 l 0.317708,-1.442708 0.479167,-1.119792 0.802083,-1.119791 1.119792,-0.796875 1.119791,-0.640625 1.28125,-0.161459 1.4375,-0.161458 1.119792,0.161458 1.442708,0.479167 1.119792,0.802083 0.958333,0.958334 0.640625,1.119791 0.479167,1.28125 0.161458333,1.119792"
       style="fill:none;stroke:#000000;stroke-width:0.80000001;stroke-linecap:round;stroke-linejoin:round;stroke-miterlimit:10;stroke-opacity:1" />
    <path
       id="path104"
       d="m 217.44141,163.44141 v -3.72266 h -0.1211 l -0.12109,3.72266 z m 0,0"
       style="fill:#dedede;fill-opacity:1;fill-rule:evenodd;stroke:none" />
    <path
       id="path106"
       d="m 217.19922,163.44141 0.12109,-3.72266 h -0.24219 v 3.72266 z m 0,0"
       style="fill:#dedede;fill-opacity:1;fill-rule:evenodd;stroke:none" />
    <path
       id="path108"
       d="m 218.28125,161.51953 -0.12109,0.60156 -0.35938,0.59766 -0.35937,0.35937 -0.60157,0.36329 h -0.60156 l -0.47656,-0.1211 -0.60156,-0.48047 -0.23829,-0.35937 -0.24218,-0.60156 v -0.59766 l 0.24218,-0.48047 0.23829,-0.60156 0.60156,-0.35938 0.47656,-0.12109 1.20313,0.24219 0.71875,0.96093 z m 0,0"
       style="fill:#ffffff;fill-opacity:1;fill-rule:evenodd;stroke:none" />
    <path
       id="path110"
       d="m 217.44141,163.44141 v -3.72266 h -0.1211 l -0.12109,3.72266 z m 0,0"
       style="fill:#dedede;fill-opacity:1;fill-rule:evenodd;stroke:none" />
    <path
       id="path112"
       d="m 217.19922,163.44141 0.12109,-3.72266 h -0.24219 v 3.72266 z m 0,0"
       style="fill:#dedede;fill-opacity:1;fill-rule:evenodd;stroke:none" />
    <path
       id="path114"
       transform="matrix(0.75,0,0,0.75,218.28001,161.52)"
       d="M 0.00165767,-6.26e-4 -0.159801,0.801457 -0.638967,1.598332 -1.118134,2.077499 -1.920217,2.561874 H -2.722301 L -3.357717,2.400416 -4.159801,1.759791 -4.477509,1.280624 -4.800426,0.478541 v -0.796875 l 0.322917,-0.640625 0.317708,-0.802084 0.802084,-0.479166 0.635416,-0.161459 1.604167,0.322917 0.958333,1.28125 0.16145867,0.796875"
       style="fill:none;stroke:#000000;stroke-width:0.80000001;stroke-linecap:round;stroke-linejoin:round;stroke-miterlimit:10;stroke-opacity:1" />
    <path
       id="path116"
       d="m 178.19922,166.07812 v -9 h 0.24219 l 0.11718,9 z m 0,0"
       style="fill:#dedede;fill-opacity:1;fill-rule:evenodd;stroke:none" />
    <path
       id="path118"
       d="m 178.55859,166.07812 -0.11718,-9 h 0.35937 v 9 z m 0,0"
       style="fill:#dedede;fill-opacity:1;fill-rule:evenodd;stroke:none" />
    <path
       id="path120"
       d="m 179.03906,166.07812 v -9 h 0.24219 l 0.11719,9 z m 0,0"
       style="fill:#dedede;fill-opacity:1;fill-rule:evenodd;stroke:none" />
    <path
       id="path122"
       d="m 179.39844,166.07812 -0.11719,-9 h 0.35937 v 9 z m 0,0"
       style="fill:#dedede;fill-opacity:1;fill-rule:evenodd;stroke:none" />
    <path
       id="path124"
       d="m 180,166.07812 v -9 h 0.23828 v 9 z m 0,0"
       style="fill:#dedede;fill-opacity:1;fill-rule:evenodd;stroke:none" />
    <path
       id="path126"
       d="m 180.23828,166.07812 v -9 h 0.24219 v 9 z m 0,0"
       style="fill:#dedede;fill-opacity:1;fill-rule:evenodd;stroke:none" />
    <path
       id="path128"
       d="m 182.64062,161.51953 v 1.08203 l -0.35937,0.83985 -0.48047,0.83984 -0.72266,0.71875 -0.83984,0.60156 -0.95703,0.23828 -0.96094,0.23828 h -1.08203 l -0.95703,-0.35937 -0.83984,-0.35938 -0.83985,-0.71875 L 174,163.92187 173.64062,162.96094 173.39844,162 v -0.83984 l 0.24218,-1.08204 0.35938,-0.83984 0.60156,-0.83984 0.83985,-0.59766 0.83984,-0.48047 0.95703,-0.12109 1.08203,-0.1211 0.96094,0.1211 0.95703,0.35937 0.83984,0.60157 0.72266,0.71875 0.48047,0.83984 0.35937,0.96094 z m 0,0"
       style="fill:#ffffff;fill-opacity:1;fill-rule:evenodd;stroke:none" />
    <path
       id="path130"
       d="m 178.19922,166.07812 v -9 h 0.24219 l 0.11718,9 z m 0,0"
       style="fill:#dedede;fill-opacity:1;fill-rule:evenodd;stroke:none" />
    <path
       id="path132"
       d="m 178.55859,166.07812 -0.11718,-9 h 0.35937 v 9 z m 0,0"
       style="fill:#dedede;fill-opacity:1;fill-rule:evenodd;stroke:none" />
    <path
       id="path134"
       d="m 179.03906,166.07812 v -9 h 0.24219 l 0.11719,9 z m 0,0"
       style="fill:#dedede;fill-opacity:1;fill-rule:evenodd;stroke:none" />
    <path
       id="path136"
       d="m 179.39844,166.07812 -0.11719,-9 h 0.35937 v 9 z m 0,0"
       style="fill:#dedede;fill-opacity:1;fill-rule:evenodd;stroke:none" />
    <path
       id="path138"
       d="m 180,166.07812 v -9 h 0.23828 v 9 z m 0,0"
       style="fill:#dedede;fill-opacity:1;fill-rule:evenodd;stroke:none" />
    <path
       id="path140"
       d="m 180.23828,166.07812 v -9 h 0.24219 v 9 z m 0,0"
       style="fill:#dedede;fill-opacity:1;fill-rule:evenodd;stroke:none" />
    <path
       id="path142"
       transform="matrix(0.75,0,0,0.75,182.64,161.52)"
       d="M 8.29333e-4,-6.26e-4 V 1.442082 L -0.478337,2.561874 -1.118962,3.681666 -2.082504,4.639999 -3.202296,5.442082 -4.478337,5.759791 -5.759587,6.077499 h -1.442709 l -1.276041,-0.479167 -1.119792,-0.479166 -1.119792,-0.958334 -0.802083,-0.958333 -0.479167,-1.28125 -0.322916,-1.28125 v -1.119792 l 0.322916,-1.442708 0.479167,-1.119792 0.802083,-1.119791 1.119792,-0.796875 1.119792,-0.640625 1.276041,-0.161459 1.442709,-0.161458 1.28125,0.161458 1.276041,0.479167 1.119792,0.802083 0.963542,0.958334 0.640625,1.119791 0.479166333,1.28125 v 1.119792"
       style="fill:none;stroke:#000000;stroke-width:0.80000001;stroke-linecap:round;stroke-linejoin:round;stroke-miterlimit:10;stroke-opacity:1" />
    <path
       id="path144"
       d="m 179.87891,161.51953 -0.11719,0.60156 -0.24219,0.59766 -0.48047,0.35937 -0.48047,0.36329 h -0.59765 l -0.60157,-0.1211 -0.59765,-0.48047 -0.36328,-0.35937 -0.11719,-0.60156 v -0.59766 l 0.23828,-0.48047 0.24219,-0.60156 0.59765,-0.35938 0.60157,-0.12109 0.59765,0.12109 0.48047,0.1211 0.48047,0.48047 0.35938,0.48046 z m 0,0"
       style="fill:#ffffff;fill-opacity:1;fill-rule:evenodd;stroke:none" />
    <path
       id="path146"
       transform="matrix(0.75,0,0,0.75,179.88,161.52)"
       d="M -0.00145433,-6.26e-4 -0.157704,0.801457 -0.480621,1.598332 -1.121246,2.077499 -1.761871,2.561874 H -2.558746 L -3.360829,2.400416 -4.157704,1.759791 -4.642079,1.280624 -4.798329,0.478541 v -0.796875 l 0.317708,-0.640625 0.322917,-0.802084 0.796875,-0.479166 0.802083,-0.161459 0.796875,0.161459 0.640625,0.161458 0.640625,0.640625 0.47916667,0.640625 v 0.796875"
       style="fill:none;stroke:#000000;stroke-width:0.80000001;stroke-linecap:round;stroke-linejoin:round;stroke-miterlimit:10;stroke-opacity:1" />
    <path
       id="path148"
       d="m 163.80078,140.76172 c 0,0.35937 -0.24219,0.71875 -0.72266,0.95703 -0.47656,0.24219 -1.07812,0.35937 -1.79687,0.35937 -0.48047,0 -0.83984,0 -1.20313,0 -0.35937,-0.11718 -0.59765,-0.11718 -0.83984,-0.23828 0,-0.35937 0,-0.71875 0,-1.07812 0,0 0.12109,0 0.12109,0 0.1211,0 0.24219,0.11719 0.24219,0.11719 0.11719,0.12109 0.35938,0.12109 0.47656,0.24218 0.1211,0 0.36329,0.11719 0.60157,0.11719 0.12109,0 0.35937,0 0.60156,0 0.35937,0 0.48047,0 0.71875,0 0.12109,-0.11719 0.12109,-0.11719 0.12109,-0.23828 0,-0.12109 0,-0.23828 -0.12109,-0.23828 0,-0.1211 -0.23828,-0.1211 -0.48047,-0.1211 -0.12109,0 -0.23828,-0.12109 -0.48047,-0.12109 -0.11719,0 -0.35937,0 -0.48047,-0.12109 -0.48047,0 -0.71875,-0.23828 -0.95703,-0.35938 -0.24219,-0.23828 -0.36328,-0.48047 -0.36328,-0.71875 0,-0.48047 0.24219,-0.71875 0.72266,-0.96094 0.35937,-0.35937 0.96093,-0.48046 1.80078,-0.48046 0.35937,0 0.71875,0.12109 0.95703,0.12109 0.35937,0.12109 0.60156,0.12109 0.83984,0.23828 0,0.36328 0,0.60156 0,0.96094 -0.11718,0 -0.11718,0 -0.11718,0 -0.24219,-0.1211 -0.48047,-0.23828 -0.83985,-0.35938 -0.24219,0 -0.60156,-0.12109 -0.83984,-0.12109 -0.24219,0 -0.48047,0.12109 -0.60156,0.12109 -0.23829,0.1211 -0.35938,0.1211 -0.35938,0.23828 0,0.1211 0.12109,0.24219 0.12109,0.24219 0.11719,0 0.23829,0.1211 0.59766,0.1211 0.12109,0 0.35938,0.11718 0.48047,0.11718 0.23828,0 0.35937,0 0.60156,0.1211 0.35938,0 0.71875,0.24218 0.83985,0.35937 0.23828,0.24219 0.35937,0.48047 0.35937,0.72266 z m 0,0"
       style="fill:#ff0000;fill-opacity:1;fill-rule:evenodd;stroke:none" />
    <path
       id="path150"
       d="m 169.55859,142.07812 c -0.48047,0 -0.95703,0 -1.55859,0 0,-0.71875 0,-1.3164 0,-2.03906 0,-0.11719 0,-0.35937 0,-0.48047 0,-0.11718 0,-0.23828 -0.12109,-0.35937 0,-0.1211 -0.11719,-0.1211 -0.23829,-0.23828 -0.12109,0 -0.24218,0 -0.48046,0 -0.1211,0 -0.23829,0 -0.35938,0 -0.12109,0.11718 -0.35937,0.11718 -0.48047,0.23828 0,0.96094 0,1.92187 0,2.8789 -0.48047,0 -1.08203,0 -1.55859,0 0,-1.4375 0,-2.75781 0,-4.07812 0.47656,0 1.07812,0 1.55859,0 0,0.23828 0,0.35937 0,0.48047 0.23828,-0.24219 0.48047,-0.35938 0.83985,-0.35938 0.23828,-0.12109 0.48046,-0.24218 0.83984,-0.24218 0.48047,0 0.83984,0.12109 1.19922,0.48046 0.24219,0.24219 0.35937,0.60157 0.35937,1.08204 0,0.83984 0,1.67968 0,2.63671 z m 0,0"
       style="fill:#ff0000;fill-opacity:1;fill-rule:evenodd;stroke:none" />
    <path
       id="path152"
       d="m 173.87891,141 c 0,-0.23828 0,-0.60156 0,-0.83984 -0.11719,0 -0.35938,0 -0.59766,0 -0.24219,0.12109 -0.48047,0.12109 -0.60156,0.12109 -0.1211,0 -0.23828,0.11719 -0.35938,0.23828 0,0 -0.12109,0.12109 -0.12109,0.24219 0,0.11719 0,0.11719 0,0.23828 0.12109,0 0.12109,0.12109 0.12109,0.12109 0.1211,0 0.23828,0.11719 0.23828,0.11719 0.1211,0 0.24219,0 0.48047,0 0.1211,0 0.35938,0 0.48047,0 0.12109,-0.11719 0.24219,-0.11719 0.35938,-0.23828 z m 0,0.60156 c 0,0 -0.11719,0.11719 -0.23829,0.23828 -0.12109,0 -0.24218,0.1211 -0.35937,0.1211 -0.12109,0.11718 -0.35938,0.11718 -0.48047,0.11718 -0.12109,0 -0.35937,0 -0.48047,0 -0.48047,0 -0.83984,0 -1.19922,-0.23828 -0.35937,-0.23828 -0.48047,-0.60156 -0.48047,-0.96093 0,-0.23829 0.1211,-0.48047 0.23829,-0.71875 0.12109,-0.1211 0.35937,-0.35938 0.72265,-0.48047 0.23828,0 0.59766,-0.1211 1.07813,-0.1211 0.35937,-0.11718 0.83984,-0.11718 1.19922,-0.11718 0,-0.24219 0,-0.48047 -0.23829,-0.48047 -0.24218,-0.1211 -0.60156,-0.1211 -0.96093,-0.1211 -0.23828,0 -0.60157,0 -0.83985,0.1211 -0.23828,0 -0.48047,0.11718 -0.60156,0.11718 -0.11719,0 -0.11719,0 -0.11719,0 0,-0.35937 0,-0.59765 0,-0.95703 0.11719,0 0.35938,-0.12109 0.71875,-0.12109 0.35938,0 0.71875,-0.12109 1.08203,-0.12109 0.95704,0 1.5586,0.12109 1.91797,0.35937 0.48047,0.24219 0.60157,0.60156 0.60157,1.08203 0,0.83985 0,1.80078 0,2.75781 -0.48047,0 -0.96094,0 -1.5625,0 0,-0.23828 0,-0.35937 0,-0.47656 z m 0,0"
       style="fill:#ff0000;fill-opacity:1;fill-rule:evenodd;stroke:none" />
    <path
       id="path154"
       d="m 181.92187,139.92187 c 0,0.35938 -0.12109,0.71875 -0.24218,0.95704 -0.1211,0.24218 -0.23828,0.48046 -0.48047,0.72265 -0.1211,0.11719 -0.35938,0.23828 -0.71875,0.35938 -0.24219,0.11718 -0.48047,0.11718 -0.71875,0.11718 -0.36328,0 -0.60156,0 -0.72266,0 -0.23828,-0.11718 -0.48047,-0.11718 -0.59765,-0.23828 0,0.60157 0,1.08203 0,1.67969 -0.48047,0 -1.08204,0 -1.5625,0 0,-1.80078 0,-3.71875 0,-5.51953 0.48046,0 1.08203,0 1.5625,0 0,0.12109 0,0.35937 0,0.48047 0.23828,-0.24219 0.48046,-0.35938 0.71875,-0.35938 0.23828,-0.12109 0.48046,-0.24218 0.83984,-0.24218 0.60156,0 1.07812,0.24218 1.44141,0.60156 0.23828,0.35937 0.48046,0.83984 0.48046,1.4414 z m -1.5625,0.11719 c 0,-0.48047 -0.12109,-0.71875 -0.23828,-0.83984 -0.24218,-0.23828 -0.48047,-0.35938 -0.83984,-0.35938 -0.12109,0 -0.24219,0.1211 -0.48047,0.1211 -0.12109,0 -0.24219,0.11718 -0.35937,0.11718 0,0.72266 0,1.32032 0,2.04297 0.11718,0 0.23828,0 0.35937,0 0.12109,0.11719 0.12109,0.11719 0.23828,0.11719 0.48047,0 0.72266,-0.11719 0.96094,-0.35937 0.23828,-0.23829 0.35937,-0.48047 0.35937,-0.83985 z m 0,0"
       style="fill:#ff0000;fill-opacity:1;fill-rule:evenodd;stroke:none" />
    <path
       id="path156"
       d="m 184.80078,139.44141 c -0.48047,0 -1.08203,0 -1.5625,0 0,-0.48047 0,-0.96094 0,-1.44141 0.48047,0 1.08203,0 1.5625,0 0,0.48047 0,0.96094 0,1.44141 z m 0,2.63671 c -0.48047,0 -1.08203,0 -1.5625,0 0,-0.47656 0,-0.95703 0,-1.4375 0.48047,0 1.08203,0 1.5625,0 0,0.48047 0,0.96094 0,1.4375 z m 0,0"
       style="fill:#ff0000;fill-opacity:1;fill-rule:evenodd;stroke:none" />
    <path
       id="path158"
       d="m 191.51953,139.92187 c 0,0.71875 -0.12109,1.19922 -0.59766,1.5586 -0.36328,0.48047 -0.96093,0.59765 -1.5625,0.59765 -0.23828,0 -0.48046,0 -0.71875,0 -0.24218,-0.11718 -0.35937,-0.11718 -0.60156,-0.23828 0,0 0,0.1211 0,0.23828 -0.48047,0 -0.96094,0 -1.55859,0 0,-1.91796 0,-3.71875 0,-5.63671 0.59765,0 1.07812,0 1.55859,0 0,0.71875 0,1.32031 0,2.03906 0.24219,-0.24219 0.48047,-0.35938 0.72266,-0.35938 0.23828,-0.12109 0.59765,-0.24218 0.83984,-0.24218 0.71875,0 1.07813,0.24218 1.4375,0.60156 0.35938,0.35937 0.48047,0.83984 0.48047,1.4414 z m -1.55859,0.11719 c 0,-0.35937 -0.1211,-0.71875 -0.24219,-0.83984 -0.11719,-0.23828 -0.35938,-0.35938 -0.71875,-0.35938 -0.12109,0 -0.35938,0.1211 -0.48047,0.1211 -0.12109,0 -0.35937,0.11718 -0.48047,0.11718 0,0.72266 0,1.32032 0,2.04297 0.1211,0 0.24219,0 0.35938,0 0.12109,0.11719 0.24218,0.11719 0.36328,0.11719 0.35937,0 0.71875,-0.11719 0.95703,-0.35937 0.12109,-0.23829 0.24219,-0.48047 0.24219,-0.83985 z m 0,0"
       style="fill:#ff0000;fill-opacity:1;fill-rule:evenodd;stroke:none" />
    <path
       id="path160"
       d="m 194.16016,142.07812 c -0.48047,0 -0.96094,0 -1.44141,0 0,-1.4375 0,-2.75781 0,-4.07812 0.48047,0 0.96094,0 1.44141,0 0,1.32031 0,2.64062 0,4.07812 z m 0.12109,-4.55859 c -0.60156,0 -1.08203,0 -1.67969,0 0,-0.35937 0,-0.71875 0,-1.07812 0.59766,0 1.07813,0 1.67969,0 0,0.35937 0,0.71875 0,1.07812 z m 0,0"
       style="fill:#ff0000;fill-opacity:1;fill-rule:evenodd;stroke:none" />
    <path
       id="path162"
       d="m 198.71875,141.96094 c -0.11719,0.11718 -0.35938,0.11718 -0.48047,0.11718 -0.23828,0 -0.47656,0 -0.71875,0 -0.59766,0 -1.07812,-0.11718 -1.32031,-0.23828 -0.23828,-0.23828 -0.48047,-0.60156 -0.48047,-1.07812 0,-0.60156 0,-1.20313 0,-1.80078 -0.11719,0 -0.35938,0 -0.59766,0 0,-0.35938 0,-0.60157 0,-0.96094 0.23828,0 0.48047,0 0.59766,0 0,-0.35938 0,-0.71875 0,-1.07813 0.60156,0 1.08203,0 1.5625,0 0,0.35938 0,0.71875 0,1.07813 0.48047,0 0.95703,0 1.4375,0 0,0.35937 0,0.60156 0,0.96094 -0.48047,0 -0.95703,0 -1.4375,0 0,0.35937 0,0.83984 0,1.32031 0,0.11719 0,0.35937 0,0.35937 0,0.1211 0,0.23829 0.11719,0.35938 0,0 0.12109,0.12109 0.24218,0.12109 0,0.11719 0.23829,0.11719 0.35938,0.11719 0.12109,0 0.23828,0 0.35937,0 0.1211,-0.11719 0.24219,-0.11719 0.24219,-0.11719 0,0 0.11719,0 0.11719,0 0,0.23828 0,0.59766 0,0.83985 z m 0,0"
       style="fill:#ff0000;fill-opacity:1;fill-rule:evenodd;stroke:none" />
    <path
       id="path164"
       d="m 206.64062,95.398438 c 0.1211,0.121093 0.1211,0.242187 0.23829,0.242187 0,0.121094 0,0.359375 0,0.480469 0,0.238281 0,0.359375 0,0.597656 -0.11719,0.121094 -0.23829,0.359375 -0.48047,0.480469 -0.11719,0.121093 -0.35938,0.121093 -0.47657,0.242187 -0.24218,0.117188 -0.48046,0.117188 -0.84375,0.117188 -0.35937,0 -0.59765,0 -0.95703,-0.117188 -0.24218,0 -0.35937,-0.121094 -0.60156,-0.121094 0,-0.359374 0,-0.71875 0,-0.960937 0.12109,0 0.12109,0 0.12109,0 0.23829,0 0.35938,0.121094 0.59766,0.242187 0.24219,0 0.48047,0.117188 0.60156,0.117188 0.1211,0 0.23828,0 0.35938,-0.117188 0.12109,0 0.24219,0 0.35937,-0.121093 0.1211,0 0.1211,0 0.24219,-0.121094 0,-0.121094 0,-0.121094 0,-0.359375 0,-0.121094 0,-0.121094 -0.12109,-0.238281 0,-0.121094 -0.1211,-0.121094 -0.23828,-0.121094 0,0 -0.1211,-0.121094 -0.24219,-0.121094 -0.1211,0 -0.23828,0 -0.35938,0 -0.12109,0 -0.23828,0 -0.23828,0 0,-0.238281 0,-0.480469 0,-0.71875 0,0 0.11719,0 0.23828,0 0.1211,0 0.23828,0 0.35938,0 0.12109,0 0.24219,-0.121093 0.24219,-0.121093 0.11718,0 0.23828,-0.121094 0.23828,-0.121094 0,-0.117188 0.12109,-0.117188 0.12109,-0.238282 0,-0.121093 -0.12109,-0.242187 -0.12109,-0.242187 0,-0.117187 -0.1211,-0.117187 -0.1211,-0.117187 -0.11718,0 -0.23828,-0.121094 -0.35937,-0.121094 0,0 -0.1211,0 -0.23828,0 -0.1211,0 -0.35938,0 -0.60157,0.121094 -0.12109,0 -0.35937,0.117187 -0.59765,0.238281 0,0 0,0 -0.1211,0 0,-0.238281 0,-0.597657 0,-0.960938 0.23829,0 0.35938,-0.117187 0.71875,-0.117187 C 204.60156,93 204.83984,93 205.19922,93 c 0.24219,0 0.48047,0 0.60156,0.121094 0.23828,0 0.48047,0 0.59766,0.117187 0.12109,0.121094 0.24218,0.242188 0.36328,0.363281 0,0.117188 0.11719,0.359376 0.11719,0.476563 0,0.242187 -0.11719,0.480469 -0.23829,0.601563 -0.24218,0.242187 -0.35937,0.359374 -0.60156,0.480468 0.1211,0 0.24219,0 0.24219,0.121094 0.11719,0 0.23828,0 0.35937,0.117188 z m 0,0"
       style="fill:#ff0000;fill-opacity:1;fill-rule:evenodd;stroke:none" />
    <path
       id="path166"
       d="m 211.80078,93.121094 c -0.48047,1.4375 -1.08203,2.878906 -1.5625,4.320312 -0.47656,0 -0.83984,0 -1.19922,0 -0.59765,-1.441406 -1.07812,-2.882812 -1.67969,-4.320312 0.48047,0 0.83985,0 1.19922,0 0.36328,0.957031 0.72266,2.039062 1.08203,3 0.35938,-0.960938 0.71875,-2.042969 0.96094,-3 0.47656,0 0.83985,0 1.19922,0 z m 0,0"
       style="fill:#ff0000;fill-opacity:1;fill-rule:evenodd;stroke:none" />
    <path
       id="path168"
       d="m 204.12109,155.28125 c -0.12109,0.11719 -0.35937,0.11719 -0.60156,0.23828 -0.23828,0.12109 -0.59766,0.12109 -0.83984,0.12109 -0.60157,0 -1.07813,-0.24218 -1.44141,-0.60156 -0.35937,-0.35937 -0.59766,-0.96094 -0.59766,-1.67969 0,-0.71875 0.23829,-1.19921 0.59766,-1.67968 0.36328,-0.35938 0.83984,-0.60157 1.44141,-0.60157 0.24218,0 0.48047,0 0.71875,0.1211 0.24218,0 0.48047,0.12109 0.72265,0.24219 0,0.35937 0,0.71875 0,1.07812 0,0 -0.12109,0 -0.12109,0 0,0 -0.12109,-0.12109 -0.12109,-0.23828 -0.11719,0 -0.23829,-0.12109 -0.35938,-0.12109 0,-0.1211 -0.12109,-0.1211 -0.23828,-0.23829 -0.12109,0 -0.35938,0 -0.48047,0 -0.12109,0 -0.24219,0 -0.48047,0.11719 -0.12109,0 -0.24219,0.1211 -0.35937,0.24219 0,0.11719 -0.1211,0.23828 -0.24219,0.48047 0,0.11719 0,0.35937 0,0.59765 0,0.48047 0.12109,0.83985 0.24219,1.08204 0.23828,0.23828 0.59765,0.35937 0.96093,0.35937 0.11719,0 0.11719,0 0.11719,0 0.1211,0 0.1211,0 0.1211,0 0,-0.24219 0,-0.60156 0,-0.83984 -0.23829,0 -0.48047,0 -0.71875,0 0,-0.24219 0,-0.48047 0,-0.83985 0.59765,0 1.07812,0 1.67968,0 0,0.71875 0,1.4375 0,2.16016 z m 0,0"
       style="fill:#ff0000;fill-opacity:1;fill-rule:evenodd;stroke:none" />
    <path
       id="path170"
       d="m 208.32031,155.51953 c -0.35937,0 -0.60156,0 -0.96094,0 -0.48046,-0.96094 -0.96093,-1.91797 -1.55859,-3 0,1.08203 0,2.03906 0,3 -0.24219,0 -0.48047,0 -0.83984,0 0,-1.44141 0,-2.87891 0,-4.32031 0.35937,0 0.71875,0 1.19922,0 0.35937,0.83984 0.83984,1.67969 1.32031,2.51953 0,-0.83984 0,-1.67969 0,-2.51953 0.23828,0 0.59765,0 0.83984,0 0,1.4414 0,2.8789 0,4.32031 z m 0,0"
       style="fill:#ff0000;fill-opacity:1;fill-rule:evenodd;stroke:none" />
    <path
       id="path172"
       d="m 212.64062,153.35937 c 0,0.35938 0,0.83985 -0.12109,1.08204 -0.23828,0.35937 -0.35937,0.59765 -0.59766,0.71875 -0.24218,0.12109 -0.48046,0.23828 -0.60156,0.35937 -0.24219,0 -0.48047,0 -0.83984,0 -0.35938,0 -0.83985,0 -1.19922,0 0,-1.44141 0,-2.87891 0,-4.32031 0.35937,0 0.83984,0 1.32031,0 0.23828,0 0.47656,0 0.71875,0.12109 0.23828,0 0.35938,0.1211 0.60156,0.23828 0.23829,0.1211 0.35938,0.36328 0.59766,0.72266 0.12109,0.35937 0.12109,0.71875 0.12109,1.07812 z m -0.96093,0 c 0,-0.23828 0,-0.48046 -0.1211,-0.71875 0,-0.24218 -0.23828,-0.35937 -0.35937,-0.48046 -0.1211,-0.1211 -0.23828,-0.1211 -0.35938,-0.1211 -0.12109,0 -0.23828,0 -0.35937,0 -0.1211,0 -0.24219,0 -0.24219,0 0,0.83985 0,1.80078 0,2.64063 0,0 0.12109,0 0.24219,0 0.12109,0 0.35937,0 0.48047,0 0,0 0.11718,0 0.23828,-0.1211 0.24219,-0.11718 0.35937,-0.23828 0.35937,-0.48047 0.1211,-0.23828 0.1211,-0.47656 0.1211,-0.71875 z m 0,0"
       style="fill:#ff0000;fill-opacity:1;fill-rule:evenodd;stroke:none" />
    <path
       id="path174"
       d="m 179.87891,155.64062 c -1.19922,0 -2.51954,0 -3.83985,0 0,-0.24218 0,-0.48046 0,-0.71875 0.35938,-0.24218 0.60156,-0.36328 0.96094,-0.60156 0.23828,-0.24219 0.48047,-0.48047 0.71875,-0.60156 0.24219,-0.23828 0.35937,-0.48047 0.48047,-0.59766 0.12109,-0.12109 0.24219,-0.35937 0.24219,-0.48047 0,-0.24218 -0.1211,-0.35937 -0.24219,-0.48046 -0.1211,-0.1211 -0.35938,-0.23829 -0.59766,-0.23829 -0.24219,0 -0.48047,0.11719 -0.60156,0.11719 -0.23828,0.1211 -0.48047,0.24219 -0.71875,0.35938 0,-0.35938 0,-0.71875 0,-1.07813 0.11719,0 0.35937,-0.12109 0.59766,-0.12109 0.35937,-0.1211 0.60156,-0.1211 0.96093,-0.1211 0.60157,0 1.08203,0.1211 1.32032,0.36329 0.35937,0.23828 0.48046,0.59765 0.48046,0.95703 0,0.36328 0,0.60156 -0.24218,0.83984 -0.11719,0.24219 -0.35938,0.48047 -0.59766,0.83984 -0.24219,0.1211 -0.48047,0.24219 -0.60156,0.36329 -0.23828,0.23828 -0.35938,0.23828 -0.48047,0.35937 0.72266,0 1.44141,0 2.16016,0 0,0.23828 0,0.59766 0,0.83984 z m 0,0"
       style="fill:#ff0000;fill-opacity:1;fill-rule:evenodd;stroke:none" />
    <path
       id="path176"
       d="m 149.03906,155.64062 c -1.32031,0 -2.51953,0 -3.83984,0 0,-0.24218 0,-0.48046 0,-0.71875 0.35937,0 0.83984,0 1.19922,0 0,-0.84375 0,-1.5625 0,-2.40234 -0.35938,0 -0.83985,0 -1.19922,0 0,-0.23828 0,-0.48047 0,-0.71875 0.12109,0 0.35937,0 0.48047,-0.12109 0.24218,0 0.35937,0 0.48047,0 0.12109,-0.1211 0.23828,-0.1211 0.23828,-0.23828 0.12109,-0.1211 0.12109,-0.1211 0.12109,-0.24219 0.48047,0 0.83984,0 1.32031,0 0,1.19922 0,2.40234 0,3.72265 0.35938,0 0.71875,0 1.19922,0 0,0.23829 0,0.47657 0,0.71875 z m 0,0"
       style="fill:#ff0000;fill-opacity:1;fill-rule:evenodd;stroke:none" />
    <path
       id="path178"
       d="m 149.03906,95.28125 c 0,0.359375 -0.11719,0.71875 -0.11719,0.957031 -0.12109,0.363281 -0.24218,0.601563 -0.36328,0.722657 -0.11718,0.238281 -0.35937,0.359374 -0.59765,0.480468 -0.24219,0 -0.48047,0.117188 -0.83985,0.117188 -0.35937,0 -0.72265,-0.117188 -0.96093,-0.117188 -0.23829,-0.121094 -0.35938,-0.242187 -0.48047,-0.480468 -0.23828,-0.242188 -0.35938,-0.480469 -0.35938,-0.722657 C 145.19922,96 145.19922,95.640625 145.19922,95.28125 c 0,-0.359375 0,-0.722656 0.12109,-0.960938 0,-0.359374 0.1211,-0.601562 0.35938,-0.71875 0.12109,-0.242187 0.35937,-0.363281 0.60156,-0.480468 C 146.51953,93 146.76172,93 147.12109,93 c 0.35938,0 0.59766,0 0.83985,0.121094 0.23828,0.117187 0.48047,0.238281 0.59765,0.480468 0.1211,0.238282 0.24219,0.359376 0.36328,0.71875 0,0.238282 0.11719,0.601563 0.11719,0.960938 z m -1.19922,0 c 0,-0.480469 -0.12109,-0.960938 -0.23828,-1.203125 -0.12109,-0.117187 -0.24219,-0.238281 -0.48047,-0.238281 -0.24218,0 -0.48047,0.121094 -0.60156,0.238281 -0.12109,0.242187 -0.12109,0.722656 -0.12109,1.203125 0,0.480469 0,0.839844 0.12109,1.078125 0.12109,0.242187 0.35938,0.359375 0.60156,0.359375 0.23828,0 0.35938,-0.117188 0.48047,-0.359375 0.11719,-0.238281 0.23828,-0.597656 0.23828,-1.078125 z m 0,0"
       style="fill:#ff0000;fill-opacity:1;fill-rule:evenodd;stroke:none" />
    <path
       id="path180"
       transform="matrix(0.75,0,0,0.75,145.92,126.96)"
       d="m 0.002502,0.001251 h -3.520833 l -0.963542,-0.161458 h -0.796875 l -0.802083,-0.161459 -0.479167,-0.15625 h -0.317708 l -0.161459,-0.161458 v -8.640625 l 0.161459,-0.161458 0.317708,-0.15625 h 0.479167 l 0.802083,-0.161459 0.796875,-0.161458 h 2.083333 l 1.276042,-0.161458 h 90.401042 l 1.119791,0.161458 h 2.239584 l 0.802083,0.161458 0.640625,0.161459 h 0.640625 l 0.317708,0.15625 0.161459,0.161458 v 8.640625 l -0.161459,0.161458 h -0.317708 l -0.640625,0.15625 -0.640625,0.161459 h -0.802083 l -1.119792,0.161458 z m 0,0"
       style="fill:#3f3f3f;fill-opacity:1;fill-rule:evenodd;stroke:#ff0000;stroke-width:4.96000004;stroke-linecap:round;stroke-linejoin:round;stroke-miterlimit:10;stroke-opacity:1" />
    <path
       id="path182"
       transform="matrix(0.75,0,0,0.75,217.44001,172.32)"
       d="M 0.001862,4.21667e-4 1.439362,-0.161037 2.88207,-0.640203 4.158112,-1.11937 l 1.28125,-0.802083 0.958333,-1.119792 0.802084,-1.28125 0.640625,-1.276042 0.479166,-1.442708 0.161459,-1.4375 v -13.28125 L 8.31957,-23.358953 7.840404,-24.801662 7.199779,-26.077703 6.397695,-27.358953 5.439362,-28.322495 4.158112,-29.280828 2.88207,-29.759995 1.439362,-30.239162 H -103.51897 l -1.44271,0.479167 -1.4375,0.479167 -1.11979,0.958333 -0.96354,0.963542 -0.95834,1.28125 -0.64062,1.4375 -0.31771,1.28125 -0.16146,1.598958 v 13.28125 l 0.16146,1.4375 0.31771,1.442708 0.64062,1.276042 0.95834,1.28125 0.96354,1.119792 1.11979,0.802083 1.4375,0.479167 1.44271,0.479166 1.4375,0.161458667 z m 0,0"
       style="fill:#ff0000;fill-opacity:1;fill-rule:evenodd;stroke:#000000;stroke-width:0.95999998;stroke-linecap:round;stroke-linejoin:round;stroke-miterlimit:10;stroke-opacity:1" />
    <path
       id="path184"
       transform="matrix(0.75,0,0,0.75,145.32,162)"
       d="M 4.21667e-4,0 H -0.640203 L -0.957912,-0.317708 V -0.640625 L -1.11937,-0.802083 -1.280828,-0.958333 V -1.4375 l 0.161458,-0.322917 0.161458,-0.161458 v -0.15625 l 0.15625,-0.322917 h 0.161459 L -0.322495,-2.5625 h 0.161458 L 4.21667e-4,-2.71875 H 33.437922 l 0.322916,0.15625 h 0.161459 l 0.317708,0.161458 h 0.161458 l 0.15625,0.322917 v 0.15625 l 0.161459,0.161458 0.161458,0.322917 v 0.479167 l -0.161458,0.15625 -0.161459,0.161458 v 0.322917 L 34.240005,0 Z m 0,0"
       style="fill:#ffffff;fill-opacity:1;fill-rule:evenodd;stroke:#ffffff;stroke-width:0.5;stroke-linecap:round;stroke-linejoin:round;stroke-miterlimit:10;stroke-opacity:1" />
    <path
       id="path186"
       transform="matrix(0.75,0,0,0.75,146.04,161.04)"
       d="m -0.001251,-0.001251 v 1.28125 l -0.479167,1.28125 -0.640625,1.119792 -0.796875,0.958333 -1.119791,0.640625 -1.28125,0.640625 -1.28125,0.161458 h -1.28125 l -1.276042,-0.484375 -1.125,-0.479166 -0.958333,-0.958334 -0.796875,-0.958333 -0.484375,-1.119792 -0.317709,-1.442708 v -1.28125 l 0.317709,-1.119792 0.484375,-1.276041 0.635416,-1.119792 1.119792,-0.802083 1.125,-0.640625 1.276042,-0.317709 h 1.28125 l 1.28125,0.15625 1.28125,0.479167 1.119791,0.640625 0.796875,0.963542 0.640625,1.119791 0.479167,1.276042 z m 0,0"
       style="fill:#dedede;fill-opacity:1;fill-rule:evenodd;stroke:#000000;stroke-width:0.80000001;stroke-linecap:round;stroke-linejoin:round;stroke-miterlimit:10;stroke-opacity:1" />
    <path
       id="path188"
       transform="matrix(0.75,0,0,0.75,143.28,161.04)"
       d="M 0.00167367,-0.001251 -0.159785,0.800832 -0.477493,1.441457 -1.118118,2.082082 -1.920201,2.399791 H -2.722285 L -3.357701,2.082082 -3.998326,1.441457 -4.477493,0.800832 l -0.161458,-0.802083 0.161458,-0.640625 0.479167,-0.796875 0.640625,-0.479167 0.635416,-0.322916 h 0.802084 l 0.802083,0.322916 0.640625,0.479167 0.317708,0.796875 z m 0,0"
       style="fill:#dedede;fill-opacity:1;fill-rule:evenodd;stroke:#000000;stroke-width:0.80000001;stroke-linecap:round;stroke-linejoin:round;stroke-miterlimit:10;stroke-opacity:1" />
    <path
       id="path190"
       transform="matrix(0.75,0,0,0.75,185.04,162)"
       d="m -0.001251,0 h -0.796875 v -0.161458 l -0.161458,-0.15625 -0.161459,-0.322917 -0.161458,-0.161458 v -0.15625 l -0.15625,-0.322917 0.15625,-0.15625 v -0.322917 l 0.161458,-0.161458 0.161459,-0.15625 0.161458,-0.322917 0.317708,-0.161458 h 0.322917 l 0.15625,-0.15625 h 36 l 0.161458,0.15625 h 0.161459 l 0.317708,0.161458 h 0.161458 l 0.161459,0.322917 0.15625,0.15625 v 0.161458 l 0.161458,0.322917 v 0.479167 l -0.161458,0.15625 v 0.161458 l -0.15625,0.322917 -0.161459,0.15625 L 36.639374,0 Z m 0,0"
       style="fill:#ffffff;fill-opacity:1;fill-rule:evenodd;stroke:#ffffff;stroke-width:0.5;stroke-linecap:round;stroke-linejoin:round;stroke-miterlimit:10;stroke-opacity:1" />
    <path
       id="path192"
       transform="matrix(0.75,0,0,0.75,183.48,153.96)"
       d="m 6.26e-4,0.001251 0.161458,-0.161458 v -0.317709 l 0.15625,-0.161458 0.161459,-0.322917 0.317708,-0.15625 0.161458,-0.161458 h 0.963542 l 0.317708,0.161458 0.161459,0.15625 h 0.15625 v 0.322917 l 0.161458,0.161458 v 17.119792 l -0.161458,0.317708 v 0.479167 l -0.15625,0.161458 -0.161459,0.161459 -0.317708,0.15625 -0.161458,0.161458 H 0.797501 L 0.479793,17.917918 v -0.15625 L 0.318334,17.600209 0.162084,17.438751 6.26e-4,17.282501 Z m 0,0"
       style="fill:#ffffff;fill-opacity:1;fill-rule:evenodd;stroke:#ffffff;stroke-width:0.5;stroke-linecap:round;stroke-linejoin:round;stroke-miterlimit:10;stroke-opacity:1" />
    <path
       id="path194"
       transform="matrix(0.75,0,0,0.75,169.56,153)"
       d="M -0.001877,0 V -0.479167 L 0.159581,-0.640625 0.32104,-0.958333 V -1.119792 L 0.638748,-1.28125 0.800206,-1.4375 H 1.75854 l 0.322916,0.15625 0.15625,0.161458 v 0.161459 l 0.161459,0.317708 0.322916,0.322917 V 0 l 0.15625,20.161458 v 0.15625 l -0.15625,0.484375 H 2.560623 L 2.399165,21.119792 2.237706,21.28125 V 21.4375 L 1.919998,21.598958 H 0.961665 L 0.800206,21.4375 0.482498,21.28125 0.32104,21.119792 V 20.802083 H 0.159581 v -0.640625 z m 0,0"
       style="fill:#ffffff;fill-opacity:1;fill-rule:evenodd;stroke:#ffffff;stroke-width:0.5;stroke-linecap:round;stroke-linejoin:round;stroke-miterlimit:10;stroke-opacity:1" />
    <path
       id="path196"
       transform="matrix(0.75,0,0,0.75,171.72,168.72)"
       d="M -0.00167367,-0.00167367 -0.319382,0.159785 H -1.277715 L -1.439174,-0.00167367 -1.76209,-0.157924 v -0.161458 l -0.15625,-0.322917 -0.161459,-0.15625 v -0.802083 l 0.161459,-0.317708 0.15625,-0.161459 0.322916,-0.161458 v -0.15625 l 16.796875,-9.125 0.161459,-0.15625 h 0.322916 l 0.317709,-0.161458 0.161458,0.161458 h 0.15625 l 0.322917,0.15625 0.161458,0.161458 0.15625,0.322917 0.161458,0.15625 v 0.322917 l 0.161459,0.317708 -0.161459,0.161458 v 0.161459 l -0.161458,0.317708 -0.15625,0.161458 v 0.161459 h -0.322917 z m 0,0"
       style="fill:#ffffff;fill-opacity:1;fill-rule:evenodd;stroke:#ffffff;stroke-width:0.5;stroke-linecap:round;stroke-linejoin:round;stroke-miterlimit:10;stroke-opacity:1" />
    <path
       id="path198"
       transform="matrix(0.75,0,0,0.75,184.56,159.72)"
       d="M -0.001877,-0.00167367 0.32104,0.159785 h 0.161458 l 0.15625,0.161458 0.161458,0.317708 V 0.961868 L 0.961665,1.118118 0.800206,1.441035 V 1.602493 L 0.638748,1.758743 0.482498,2.08166 0.32104,2.23791 H 0.159581 L -0.158127,2.399368 H -0.96021 L -1.121669,2.23791 -17.918544,-7.038132 -18.24146,-7.19959 l -0.15625,-0.161459 -0.161459,-0.161458 v -1.276042 l 0.161459,-0.322916 0.15625,-0.15625 0.322916,-0.161459 h 1.276042 z m 0,0"
       style="fill:#ffffff;fill-opacity:1;fill-rule:evenodd;stroke:#ffffff;stroke-width:0.5;stroke-linecap:round;stroke-linejoin:round;stroke-miterlimit:10;stroke-opacity:1" />
    <path
       id="path200"
       transform="matrix(0.75,0,0,0.75,220.67999,161.04)"
       d="M -4.06667e-4,-0.001251 -0.161865,1.279999 -0.479573,2.561249 -1.281657,3.681041 -2.23999,4.639374 -3.198323,5.279999 -4.318115,5.920624 -5.760823,6.082082 h -1.28125 L -8.161865,5.597707 -9.437907,5.118541 -10.401448,4.160207 -11.198323,3.201874 -11.838948,2.082082 -12.000407,0.639374 v -1.28125 l 0.161459,-1.119792 0.640625,-1.276041 0.796875,-1.119792 0.963541,-0.802083 1.276042,-0.640625 1.119792,-0.317709 h 1.28125 l 1.442708,0.15625 1.119792,0.479167 0.958333,0.640625 0.958333,0.963542 0.802084,1.119791 0.317708,1.276042 z m 0,0"
       style="fill:#dedede;fill-opacity:1;fill-rule:evenodd;stroke:#000000;stroke-width:0.80000001;stroke-linecap:round;stroke-linejoin:round;stroke-miterlimit:10;stroke-opacity:1" />
    <path
       id="path202"
       transform="matrix(0.75,0,0,0.75,217.92,161.04)"
       d="M 0.002502,-0.001251 -0.158956,0.800832 -0.638123,1.441457 -1.278748,2.082082 -1.919373,2.399791 H -2.721456 L -3.518331,2.082082 -4.158956,1.441457 -4.481873,0.800832 l -0.15625,-0.802083 0.15625,-0.640625 0.322917,-0.796875 0.640625,-0.479167 0.796875,-0.322916 h 0.802083 l 0.640625,0.322916 0.640625,0.479167 0.479167,0.796875 z m 0,0"
       style="fill:#dedede;fill-opacity:1;fill-rule:evenodd;stroke:#000000;stroke-width:0.80000001;stroke-linecap:round;stroke-linejoin:round;stroke-miterlimit:10;stroke-opacity:1" />
    <path
       id="path204"
       transform="matrix(0.75,0,0,0.75,188.04,157.08)"
       d="m -0.001251,-0.002502 -0.15625,0.161458 H -0.318959 V -0.002502 H -0.641876 V -0.32021 h -0.15625 0.15625 v -0.317709 h 0.161458 l 9.119792,-6.239583 h 0.479167 v 0.15625 h 0.161458 v 0.479167 l -0.161458,0.161458 z m 0,0"
       style="fill:#ffffff;fill-opacity:1;fill-rule:evenodd;stroke:#ffffff;stroke-width:0.5;stroke-linecap:round;stroke-linejoin:round;stroke-miterlimit:10;stroke-opacity:1" />
    <path
       id="path206"
       transform="scale(0.75)"
       d="m 260.31771,202.07812 -4.31771,1.1198 1.4375,2.23958 z m 0,0"
       style="fill:#ffffff;fill-opacity:1;fill-rule:evenodd;stroke:#ffffff;stroke-width:0.5;stroke-linecap:round;stroke-linejoin:round;stroke-miterlimit:10;stroke-opacity:1" />
    <path
       id="path208"
       transform="matrix(0.75,0,0,0.75,191.88,157.08)"
       d="M -0.00145433,-0.002502 -0.157704,0.158956 h -0.161459 v -0.161458 h -0.161458 v -0.15625 l -0.161458,-0.161458 0.161458,-0.161459 v -0.15625 h 0.161458 l 9.119792,-6.239583 h 0.317708 v 0.15625 h 0.161459 v 0.479167 l -0.161459,0.161458 z m 0,0"
       style="fill:#ffffff;fill-opacity:1;fill-rule:evenodd;stroke:#ffffff;stroke-width:0.5;stroke-linecap:round;stroke-linejoin:round;stroke-miterlimit:10;stroke-opacity:1" />
    <path
       id="path210"
       transform="scale(0.75)"
       d="m 265.59896,202.07812 -4.47917,1.1198 1.59896,2.23958 z m 0,0"
       style="fill:#ffffff;fill-opacity:1;fill-rule:evenodd;stroke:#ffffff;stroke-width:0.5;stroke-linecap:round;stroke-linejoin:round;stroke-miterlimit:10;stroke-opacity:1" />
    <path
       id="path212"
       d="m 150.23828,150.48047 c 1.08203,0 2.28125,0 3.36328,0 0.59766,0 1.07813,0 1.5586,0 0.35937,0.12109 0.83984,0.23828 1.19921,0.48047 0.35938,0.23828 0.71875,0.48047 0.96094,0.83984 0.35938,0.35938 0.60156,0.83984 0.71875,1.32031 0.24219,0.48047 0.24219,1.07813 0.24219,1.67969 0,1.32031 -0.35938,2.39844 -0.96094,3.23828 -0.71875,0.83985 -1.92187,1.32031 -3.60156,1.32031 -1.19922,0 -2.39844,0 -3.48047,0 0,-3 0,-6 0,-8.8789 z m 1.44141,7.55859 c 0.71875,0 1.32031,0 1.92187,0 0.47656,0 0.83985,0 1.07813,0 0.35937,-0.11719 0.60156,-0.23828 0.96093,-0.35937 0.35938,-0.23828 0.59766,-0.60157 0.83985,-1.07813 0.12109,-0.36328 0.23828,-0.96094 0.23828,-1.80078 0,-0.35937 0,-0.83984 -0.11719,-1.19922 -0.12109,-0.36328 -0.24219,-0.60156 -0.48047,-0.96094 -0.12109,-0.24218 -0.35937,-0.48046 -0.72265,-0.60156 -0.23828,-0.11719 -0.47657,-0.23828 -0.83985,-0.23828 -0.23828,-0.12109 -0.59765,-0.12109 -0.95703,-0.12109 -0.60156,0 -1.20312,0 -1.92187,0 0,2.16015 0,4.32031 0,6.35937 z m 0,0"
       style="fill:#ffffff;fill-opacity:1;fill-rule:evenodd;stroke:none" />
    <path
       id="path214"
       d="m 164.16016,159.35937 c -0.48047,0 -0.96094,0 -1.44141,0 0,-2.28125 0,-4.55859 0,-6.83984 -0.48047,0.48047 -1.19922,0.96094 -2.39844,1.32031 0,-0.35937 0,-0.83984 0,-1.19922 1.44141,-0.60156 2.39844,-1.32031 2.87891,-2.28125 0.24219,0 0.60156,0 0.96094,0 0,3 0,6 0,9 z m 0,0"
       style="fill:#ffffff;fill-opacity:1;fill-rule:evenodd;stroke:none" />
    <path
       id="path216"
       transform="matrix(0.75,0,0,0.75,150.24,150.48)"
       d="m -0.00229867,6.26e-4 c 1.44270867,0 3.04166667,0 4.48437467,0 0.796875,0 1.4375,0 2.078125,0 0.479167,0.161458 1.119792,0.317708 1.598959,0.640625 0.479166,0.317708 0.958333,0.640625 1.28125,1.119792 0.479166,0.479166 0.802083,1.119791 0.958333,1.760416 0.322917,0.640625 0.322917,1.4375 0.322917,2.239584 0,1.760416 -0.479167,3.197916 -1.28125,4.317708 -0.958334,1.119792 -2.5625,1.760417 -4.802084,1.760417 -1.598958,0 -3.197916,0 -4.64062467,0 0,-4 0,-8 0,-11.838542 z M 1.919576,10.078751 c 0.958334,0 1.760417,0 2.5625,0 0.635417,0 1.119792,0 1.4375,0 C 6.398743,9.922501 6.72166,9.761043 7.200826,9.599584 7.679993,9.281876 7.997701,8.797501 8.320618,8.162084 8.482076,7.677709 8.638326,6.880834 8.638326,5.761043 c 0,-0.479167 0,-1.119792 -0.15625,-1.598959 C 8.320618,3.677709 8.15916,3.360001 7.841451,2.880834 7.679993,2.557918 7.362285,2.240209 6.87791,2.078751 6.560201,1.922501 6.242493,1.761043 5.758118,1.761043 5.44041,1.599584 4.961243,1.599584 4.482076,1.599584 c -0.802083,0 -1.604166,0 -2.5625,0 0,2.880209 0,5.760417 0,8.479167 z m 0,0"
       style="fill:none;stroke:#ffffff;stroke-width:0.31999999;stroke-linecap:round;stroke-linejoin:round;stroke-miterlimit:10;stroke-opacity:1" />
    <path
       id="path218"
       transform="matrix(0.75,0,0,0.75,164.16,159.36)"
       d="m 2.03333e-4,-8.29333e-4 c -0.640625333,0 -1.281250333,0 -1.921875333,0 0,-3.041666667 0,-6.078124667 0,-9.119791667 -0.640625,0.640625 -1.598958,1.28125 -3.197916,1.760417 0,-0.479167 0,-1.119792 0,-1.598959 1.921875,-0.802083 3.197916,-1.760416 3.838541,-3.041666 0.322917,0 0.802084,0 1.281250333,0 0,4 0,8 0,11.999999667"
       style="fill:none;stroke:#ffffff;stroke-width:0.31999999;stroke-linecap:round;stroke-linejoin:round;stroke-miterlimit:10;stroke-opacity:1" />
    <path
       id="path220"
       transform="scale(0.75)"
       d="m 210.88021,222.23958 10.55729,0.16146"
       style="fill:none;stroke:#ffffff;stroke-width:1.60000002;stroke-linecap:butt;stroke-linejoin:round;stroke-miterlimit:10;stroke-opacity:1" />
    <path
       id="path222"
       transform="scale(0.75)"
       d="m 216.31771,227.35937 v -9.76041"
       style="fill:none;stroke:#ffffff;stroke-width:1.60000002;stroke-linecap:butt;stroke-linejoin:round;stroke-miterlimit:10;stroke-opacity:1" />
    <path
       id="path224"
       d="m 188.51953,168.83984 c 0,-1.4414 0,-3 0,-4.4414 0.24219,0 0.48047,0 0.71875,0 0,1.32031 0,2.64062 0,3.96093 0.96094,0 1.92188,0 2.88281,0 0,0.1211 0,0.35938 0,0.48047 -1.19922,0 -2.40234,0 -3.60156,0 z m 0,0"
       style="fill:#ffffff;fill-opacity:1;fill-rule:evenodd;stroke:none" />
    <path
       id="path226"
       d="m 192.96094,168.83984 c 0,-1.4414 0,-3 0,-4.4414 1.4375,0 2.8789,0 4.19922,0 0,0.12109 0,0.36328 0,0.48047 -1.08204,0 -2.28125,0 -3.35938,0 0,0.48046 0,0.96093 0,1.4414 1.07813,0 2.03906,0 3.12109,0 0,0.1211 0,0.35938 0,0.48047 -1.08203,0 -2.04296,0 -3.12109,0 0,0.48047 0,0.96094 0,1.55859 1.19922,0 2.27734,0 3.48047,0 0,0.1211 0,0.35938 0,0.48047 -1.44141,0 -2.88281,0 -4.32031,0 z m 0,0"
       style="fill:#ffffff;fill-opacity:1;fill-rule:evenodd;stroke:none" />
    <path
       id="path228"
       d="m 198.35937,168.83984 c 0,-1.4414 0,-3 0,-4.4414 0.71875,0 1.32032,0 2.03907,0 0.36328,0 0.72265,0 0.96093,0 0.35938,0.12109 0.60157,0.24218 0.83985,0.36328 0.35937,0.23828 0.60156,0.47656 0.72265,0.71875 0.11719,0.35937 0.23829,0.71875 0.23829,1.07812 0,0.36328 -0.1211,0.72266 -0.23829,0.96094 0,0.24219 -0.24218,0.48047 -0.36328,0.60156 -0.11718,0.23828 -0.35937,0.35938 -0.48047,0.48047 -0.23828,0 -0.47656,0.11719 -0.71875,0.11719 -0.23828,0.12109 -0.59765,0.12109 -0.96093,0.12109 -0.59766,0 -1.32032,0 -2.03907,0 z m 0.71875,-0.48047 c 0.48047,0 0.84375,0 1.32032,0 0.36328,0 0.60156,-0.12109 0.83984,-0.12109 0.24219,0 0.36328,-0.11719 0.48047,-0.23828 0.24219,-0.12109 0.35937,-0.35938 0.48047,-0.60156 0.12109,-0.23828 0.12109,-0.47657 0.12109,-0.83985 0,-0.48047 -0.12109,-0.83984 -0.24219,-1.07812 -0.23828,-0.24219 -0.47656,-0.35938 -0.71875,-0.48047 -0.23828,0 -0.59765,-0.12109 -1.07812,-0.12109 -0.35938,0 -0.72266,0 -1.20313,0 0,1.19921 0,2.28125 0,3.48046 z m 0,0"
       style="fill:#ffffff;fill-opacity:1;fill-rule:evenodd;stroke:none" />
    <path
       id="path230"
       transform="matrix(0.75,0,0,0.75,188.52,168.84)"
       d="m -6.26e-4,-2.03333e-4 c 0,-1.921874667 0,-3.999999667 0,-5.921874667 0.322917,0 0.640625,0 0.958333,0 0,1.760416 0,3.520833 0,5.28125 1.28125,0 2.5625,0 3.84375,0 0,0.161458 0,0.479166 0,0.640624667 -1.598958,0 -3.203125,0 -4.802083,0"
       style="fill:none;stroke:#ffffff;stroke-width:0.5;stroke-linecap:round;stroke-linejoin:round;stroke-miterlimit:10;stroke-opacity:1" />
    <path
       id="path232"
       transform="matrix(0.75,0,0,0.75,192.96,168.84)"
       d="m 0.001251,-2.03333e-4 c 0,-1.921874667 0,-3.999999667 0,-5.921874667 1.916667,0 3.838542,0 5.598958,0 0,0.161458 0,0.484375 0,0.640625 -1.442708,0 -3.041666,0 -4.479166,0 0,0.640625 0,1.28125 0,1.921875 1.4375,0 2.71875,0 4.161458,0 0,0.161458 0,0.479166 0,0.640625 -1.442708,0 -2.723958,0 -4.161458,0 0,0.640625 0,1.28125 0,2.078125 1.598958,0 3.036458,0 4.640625,0 0,0.161458 0,0.479166 0,0.640624667 -1.921875,0 -3.84375,0 -5.760417,0"
       style="fill:none;stroke:#ffffff;stroke-width:0.5;stroke-linecap:round;stroke-linejoin:round;stroke-miterlimit:10;stroke-opacity:1" />
    <path
       id="path234"
       transform="matrix(0.75,0,0,0.75,198.36001,168.84)"
       d="m -8.44333e-4,-2.03333e-4 c 0,-1.921874667 0,-3.999999667 0,-5.921874667 0.958333333,0 1.760416333,0 2.718750333,0 0.484375,0 0.963541,0 1.28125,0 0.479166,0.161458 0.802083,0.322916 1.119791,0.484375 0.479167,0.317708 0.802084,0.635416 0.963542,0.958333 0.15625,0.479167 0.317708,0.958333 0.317708,1.4375 0,0.484375 -0.161458,0.963542 -0.317708,1.28125 0,0.322917 -0.322917,0.640625 -0.484375,0.802083 -0.15625,0.317709 -0.479167,0.479167 -0.640625,0.640625 -0.317708,0 -0.635417,0.15625 -0.958333,0.15625 -0.317709,0.161458667 -0.796875,0.161458667 -1.28125,0.161458667 -0.796875,0 -1.760417,0 -2.718750333,0 z M 0.957489,-0.640828 c 0.640625,0 1.125,0 1.760417,0 0.484375,0 0.802083,-0.161459 1.119791,-0.161459 0.322917,0 0.484375,-0.15625 0.640625,-0.317708 0.322917,-0.161458 0.479167,-0.479167 0.640625,-0.802083 0.161459,-0.317709 0.161459,-0.635417 0.161459,-1.119792 0,-0.640625 -0.161459,-1.119792 -0.322917,-1.4375 -0.317708,-0.322917 -0.635417,-0.479167 -0.958333,-0.640625 -0.317709,0 -0.796875,-0.161458 -1.4375,-0.161458 -0.479167,0 -0.963542,0 -1.604167,0 0,1.598958 0,3.041666 0,4.640625 z m 0,0"
       style="fill:none;stroke:#ffffff;stroke-width:0.5;stroke-linecap:round;stroke-linejoin:round;stroke-miterlimit:10;stroke-opacity:1" />
  </g>
</svg>
