<?xml version="1.0" encoding="UTF-8" standalone="no"?>
<svg
   xmlns:dc="http://purl.org/dc/elements/1.1/"
   xmlns:cc="http://creativecommons.org/ns#"
   xmlns:rdf="http://www.w3.org/1999/02/22-rdf-syntax-ns#"
   xmlns:svg="http://www.w3.org/2000/svg"
   xmlns="http://www.w3.org/2000/svg"
   xmlns:sodipodi="http://sodipodi.sourceforge.net/DTD/sodipodi-0.dtd"
   xmlns:inkscape="http://www.inkscape.org/namespaces/inkscape"
   width="730"
   height="350"
   viewBox="0 0 547.5 262.5"
   version="1.2"
   id="svg231"
   sodipodi:docname="speaker-minimal.pdf"
   inkscape:version="0.92.4 (unknown)">
  <metadata
     id="metadata237">
    <rdf:RDF>
      <cc:Work
         rdf:about="">
        <dc:format>image/svg+xml</dc:format>
        <dc:type
           rdf:resource="http://purl.org/dc/dcmitype/StillImage" />
        <dc:title></dc:title>
      </cc:Work>
    </rdf:RDF>
  </metadata>
  <defs
     id="defs235" />
  <sodipodi:namedview
     pagecolor="#ffffff"
     bordercolor="#666666"
     borderopacity="1"
     objecttolerance="10"
     gridtolerance="10"
     guidetolerance="10"
     inkscape:pageopacity="0"
     inkscape:pageshadow="2"
     inkscape:window-width="1920"
     inkscape:window-height="1020"
     id="namedview233"
     showgrid="false"
     units="px"
     inkscape:zoom="0.89393939"
     inkscape:cx="74.081555"
     inkscape:cy="238.6175"
     inkscape:window-x="0"
     inkscape:window-y="31"
     inkscape:window-maximized="1"
     inkscape:current-layer="svg231" />
  <g
     id="surface473"
     transform="matrix(2.3124922,0,0,2.3124922,-140.13641,-147.22013)">
    <path
       style="fill:#ffff00;fill-opacity:1;fill-rule:evenodd;stroke:#000000;stroke-width:0.95999998;stroke-linecap:round;stroke-linejoin:round;stroke-miterlimit:10;stroke-opacity:1"
       d="m -0.00167367,0.001251 -1.43750033,-0.161458 -1.598958,-0.317709 -1.28125,-0.640625 -1.28125,-0.802083 -0.958333,-1.119792 -0.963542,-1.119791 -0.635417,-1.28125 -0.484375,-1.4375 V -115.20187 l 0.484375,-1.27605 0.635417,-1.4427 0.963542,-1.28125 0.958333,-0.95834 1.28125,-0.80208 1.28125,-0.63542 1.598958,-0.32291 1.43750033,-0.16146 H 107.3577 l 1.44271,0.16146 1.4375,0.32291 1.44271,0.63542 1.11979,0.80208 1.11979,0.95834 0.80209,1.28125 0.63541,1.4427 0.48438,1.27605 0.15625,1.4427 V -8.321666 l -0.15625,1.442709 -0.48438,1.4375 -0.63541,1.28125 -0.80209,1.119791 -1.11979,1.119792 -1.11979,0.802083 -1.28125,0.640625 -1.59896,0.317709 -1.44271,0.161458 z m 0,0"
       transform="matrix(0.75,0,0,0.75,138.72,168.96)"
       id="path2"
       inkscape:connector-curvature="0" />
    <path
       style="fill:#dedede;fill-opacity:1;fill-rule:evenodd;stroke:none"
       d="m 143.03906,91.199219 v -9 h -0.23828 l -0.12109,9 z m 0,0"
       id="path4"
       inkscape:connector-curvature="0" />
    <path
       style="fill:#dedede;fill-opacity:1;fill-rule:evenodd;stroke:none"
       d="m 142.67969,91.199219 0.12109,-9 h -0.35937 v 9 z m 0,0"
       id="path6"
       inkscape:connector-curvature="0" />
    <path
       style="fill:#ffffff;fill-opacity:1;fill-rule:evenodd;stroke:none"
       d="m 144.71875,86.640625 -0.11719,0.960937 -0.36328,0.957032 -0.47656,0.839844 -0.60156,0.722656 -0.83985,0.480468 -0.96094,0.476563 -0.96093,0.121094 h -1.07813 l -0.96094,-0.359375 -0.83984,-0.480469 -0.83984,-0.597656 -0.60157,-0.722657 -0.35937,-0.839843 -0.23828,-1.078125 -0.1211,-0.960938 0.35938,-0.839844 0.35937,-0.960937 0.60157,-0.839844 0.71875,-0.597656 0.96093,-0.480469 0.96094,-0.242187 h 0.96094 l 1.07812,0.121093 0.96094,0.359376 0.83985,0.601562 0.60156,0.71875 0.47656,0.71875 0.36328,0.960938 z m 0,0"
       id="path8"
       inkscape:connector-curvature="0" />
    <path
       style="fill:#dedede;fill-opacity:1;fill-rule:evenodd;stroke:none"
       d="m 143.03906,91.199219 v -9 h -0.23828 l -0.12109,9 z m 0,0"
       id="path10"
       inkscape:connector-curvature="0" />
    <path
       style="fill:#dedede;fill-opacity:1;fill-rule:evenodd;stroke:none"
       d="m 142.67969,91.199219 0.12109,-9 h -0.35937 v 9 z m 0,0"
       id="path12"
       inkscape:connector-curvature="0" />
    <path
       style="fill:none;stroke:#000000;stroke-width:0.80000001;stroke-linecap:round;stroke-linejoin:round;stroke-miterlimit:10;stroke-opacity:1"
       d="M -0.00167367,8.36333e-4 -0.157924,1.282086 -0.642299,2.558128 -1.277715,3.67792 -2.079799,4.641461 -3.19959,5.282086 -4.48084,5.917503 -5.76209,6.078961 h -1.4375 L -8.48084,5.599795 -9.600632,4.95917 l -1.119792,-0.796875 -0.802083,-0.963542 -0.479167,-1.119792 -0.317708,-1.4375 -0.161458,-1.28125 0.479166,-1.119791 0.479167,-1.28125 0.802083,-1.119792 0.958334,-0.796875 1.28125,-0.640625 1.28125,-0.322917 h 1.28125 l 1.4375,0.161459 1.28125,0.479166 1.119791,0.802084 0.802084,0.958333 0.635416,0.958333 0.484375,1.28125 0.15625033,1.281250333"
       transform="matrix(0.75,0,0,0.75,144.72,86.639998)"
       id="path14"
       inkscape:connector-curvature="0" />
    <path
       style="fill:#dedede;fill-opacity:1;fill-rule:evenodd;stroke:none"
       d="m 139.67969,88.441406 v -3.601562 h -0.1211 l -0.11718,3.601562 z m 0,0"
       id="path16"
       inkscape:connector-curvature="0" />
    <path
       style="fill:#dedede;fill-opacity:1;fill-rule:evenodd;stroke:none"
       d="m 139.44141,88.441406 0.11718,-3.601562 h -0.11718 z m 0,0"
       id="path18"
       inkscape:connector-curvature="0" />
    <path
       style="fill:#ffffff;fill-opacity:1;fill-rule:evenodd;stroke:none"
       d="m 141.83984,86.640625 -0.12109,0.597656 -0.23828,0.480469 -0.48047,0.480469 -0.60156,0.242187 h -0.71875 l -0.48047,-0.242187 -0.59766,-0.480469 -0.24219,-0.480469 -0.12109,-0.597656 0.12109,-0.601563 0.24219,-0.480468 0.59766,-0.359375 0.48047,-0.359375 h 0.71875 L 141,85.199219 l 0.48047,0.359375 0.23828,0.480468 z m 0,0"
       id="path20"
       inkscape:connector-curvature="0" />
    <path
       style="fill:#dedede;fill-opacity:1;fill-rule:evenodd;stroke:none"
       d="m 139.67969,88.441406 v -3.601562 h -0.1211 l -0.11718,3.601562 z m 0,0"
       id="path22"
       inkscape:connector-curvature="0" />
    <path
       style="fill:#dedede;fill-opacity:1;fill-rule:evenodd;stroke:none"
       d="m 139.44141,88.441406 0.11718,-3.601562 h -0.11718 z m 0,0"
       id="path24"
       inkscape:connector-curvature="0" />
    <path
       style="fill:none;stroke:#000000;stroke-width:0.80000001;stroke-linecap:round;stroke-linejoin:round;stroke-miterlimit:10;stroke-opacity:1"
       d="M -2.03333e-4,8.36333e-4 -0.161662,0.797711 -0.47937,1.438336 -1.119995,2.078961 -1.922078,2.401878 H -2.880412 L -3.521037,2.078961 -4.317912,1.438336 -4.640828,0.797711 -4.802287,8.36333e-4 -4.640828,-0.801247 l 0.322916,-0.640625 0.796875,-0.479167 0.640625,-0.479166 h 0.958334 l 0.802083,0.479166 0.640625,0.479167 0.317708,0.640625 0.161458667,0.802083333"
       transform="matrix(0.75,0,0,0.75,141.84,86.639998)"
       id="path26"
       inkscape:connector-curvature="0" />
    <path
       style="fill:#dedede;fill-opacity:1;fill-rule:evenodd;stroke:none"
       d="m 216.48047,90.839844 v -8.761719 h -0.24219 v 8.761719 z m 0,0"
       id="path28"
       inkscape:connector-curvature="0" />
    <path
       style="fill:#dedede;fill-opacity:1;fill-rule:evenodd;stroke:none"
       d="m 216.12109,90.839844 0.11719,-8.761719 h -0.35937 v 8.761719 z m 0,0"
       id="path30"
       inkscape:connector-curvature="0" />
    <path
       style="fill:#ffffff;fill-opacity:1;fill-rule:evenodd;stroke:none"
       d="m 221.03906,86.398438 -0.11719,1.082031 -0.24218,0.839843 -0.60157,0.839844 -0.71875,0.71875 -1.67968,0.960938 h -2.03907 L 214.67969,90.601562 213.71875,90.238281 213,89.640625 l -0.60156,-0.839844 -0.47657,-0.839843 -0.12109,-1.082032 v -0.839844 l 0.12109,-0.960937 0.47657,-0.839844 0.60156,-0.839843 0.71875,-0.597657 0.83984,-0.480469 1.08203,-0.242187 h 0.96094 l 0.95703,0.121094 0.96094,0.359375 0.83984,0.480468 0.71875,0.722657 0.60157,0.839843 0.24218,0.957032 z m 0,0"
       id="path32"
       inkscape:connector-curvature="0" />
    <path
       style="fill:#dedede;fill-opacity:1;fill-rule:evenodd;stroke:none"
       d="m 216.48047,90.839844 v -8.761719 h -0.24219 v 8.761719 z m 0,0"
       id="path34"
       inkscape:connector-curvature="0" />
    <path
       style="fill:#dedede;fill-opacity:1;fill-rule:evenodd;stroke:none"
       d="m 216.12109,90.839844 0.11719,-8.761719 h -0.35937 v 8.761719 z m 0,0"
       id="path36"
       inkscape:connector-curvature="0" />
    <path
       style="fill:none;stroke:#000000;stroke-width:0.80000001;stroke-linecap:round;stroke-linejoin:round;stroke-miterlimit:10;stroke-opacity:1"
       d="M -0.001251,-0.00208033 -0.157501,1.440628 -0.480418,2.56042 -1.282501,3.680211 -2.240834,4.638545 -4.480418,5.919795 h -2.71875 l -1.28125,-0.317709 -1.28125,-0.484375 -0.958333,-0.796875 -0.802083,-1.119791 -0.635417,-1.119792 -0.161458,-1.442708 v -1.119792 l 0.161458,-1.28125 0.635417,-1.119792 0.802083,-1.119791 0.958333,-0.796875 1.119792,-0.640625 1.442708,-0.322917 h 1.28125 l 1.276042,0.161458 1.28125,0.479167 1.119792,0.640625 0.958333,0.963542 0.802083,1.119791 0.322917,1.276042 0.15625,1.11979167"
       transform="matrix(0.75,0,0,0.75,221.04,86.399998)"
       id="path38"
       inkscape:connector-curvature="0" />
    <path
       style="fill:#dedede;fill-opacity:1;fill-rule:evenodd;stroke:none"
       d="M 217.67969,88.199219 V 84.71875 h -0.1211 l -0.11718,3.480469 z m 0,0"
       id="path40"
       inkscape:connector-curvature="0" />
    <path
       style="fill:#dedede;fill-opacity:1;fill-rule:evenodd;stroke:none"
       d="m 217.44141,88.199219 0.11718,-3.480469 h -0.23828 v 3.480469 z m 0,0"
       id="path42"
       inkscape:connector-curvature="0" />
    <path
       style="fill:#ffffff;fill-opacity:1;fill-rule:evenodd;stroke:none"
       d="M 218.16016,86.398438 218.03906,87 l -0.35937,0.601562 -0.48047,0.359376 -0.48047,0.238281 h -0.59766 L 215.39844,87.960938 215.03906,87.601562 214.67969,87 l -0.1211,-0.480469 0.1211,-0.597656 0.71875,-0.960937 0.72265,-0.242188 h 0.59766 l 0.48047,0.242188 0.48047,0.480468 0.35937,0.480469 z m 0,0"
       id="path44"
       inkscape:connector-curvature="0" />
    <path
       style="fill:#dedede;fill-opacity:1;fill-rule:evenodd;stroke:none"
       d="M 217.67969,88.199219 V 84.71875 h -0.1211 l -0.11718,3.480469 z m 0,0"
       id="path46"
       inkscape:connector-curvature="0" />
    <path
       style="fill:#dedede;fill-opacity:1;fill-rule:evenodd;stroke:none"
       d="m 217.44141,88.199219 0.11718,-3.480469 h -0.23828 v 3.480469 z m 0,0"
       id="path48"
       inkscape:connector-curvature="0" />
    <path
       style="fill:none;stroke:#000000;stroke-width:0.80000001;stroke-linecap:round;stroke-linejoin:round;stroke-miterlimit:10;stroke-opacity:1"
       d="M 2.03333e-4,-0.00208033 -0.161255,0.800003 -0.640422,1.602086 -1.281047,2.081253 -1.921672,2.398961 H -2.718547 L -3.682088,2.081253 -4.161255,1.602086 -4.640422,0.800003 -4.80188,0.159378 l 0.161458,-0.796875 0.958334,-1.28125 0.963541,-0.322917 h 0.796875 l 0.640625,0.322917 0.640625,0.640625 0.479167,0.640625 0.161458333,0.63541667"
       transform="matrix(0.75,0,0,0.75,218.16,86.399998)"
       id="path50"
       inkscape:connector-curvature="0" />
    <path
       style="fill:#dedede;fill-opacity:1;fill-rule:evenodd;stroke:none"
       d="m 143.03906,166.44141 v -9.1211 h -0.23828 l -0.12109,9.1211 z m 0,0"
       id="path52"
       inkscape:connector-curvature="0" />
    <path
       style="fill:#dedede;fill-opacity:1;fill-rule:evenodd;stroke:none"
       d="m 142.67969,166.44141 0.12109,-9.1211 h -0.35937 v 9.1211 z m 0,0"
       id="path54"
       inkscape:connector-curvature="0" />
    <path
       style="fill:#ffffff;fill-opacity:1;fill-rule:evenodd;stroke:none"
       d="m 144.71875,161.87891 -0.11719,1.08203 -0.36328,0.83984 -0.47656,0.83984 -0.60156,0.71875 -0.83985,0.48047 -0.96094,0.35938 -0.96093,0.24219 h -1.07813 l -0.96094,-0.36329 -0.83984,-0.35937 -0.83984,-0.71875 -0.60157,-0.71875 -0.35937,-0.96094 -0.23828,-0.96094 -0.1211,-0.83984 0.35938,-1.07812 0.35937,-0.83985 0.60157,-0.83984 0.71875,-0.60156 0.96093,-0.48047 0.96094,-0.23828 0.96094,-0.1211 1.07812,0.23828 0.96094,0.24219 0.83985,0.59766 0.60156,0.83984 0.47656,0.72266 0.36328,0.96093 z m 0,0"
       id="path56"
       inkscape:connector-curvature="0" />
    <path
       style="fill:#dedede;fill-opacity:1;fill-rule:evenodd;stroke:none"
       d="m 143.03906,166.44141 v -9.1211 h -0.23828 l -0.12109,9.1211 z m 0,0"
       id="path58"
       inkscape:connector-curvature="0" />
    <path
       style="fill:#dedede;fill-opacity:1;fill-rule:evenodd;stroke:none"
       d="m 142.67969,166.44141 0.12109,-9.1211 h -0.35937 v 9.1211 z m 0,0"
       id="path60"
       inkscape:connector-curvature="0" />
    <path
       style="fill:none;stroke:#000000;stroke-width:0.80000001;stroke-linecap:round;stroke-linejoin:round;stroke-miterlimit:10;stroke-opacity:1"
       d="M -0.00167367,-0.00145433 -0.157924,1.441254 -0.642299,2.561046 -1.277715,3.680837 -2.079799,4.639171 -3.19959,5.279796 -4.48084,5.758962 -5.76209,6.081879 h -1.4375 l -1.28125,-0.484375 -1.119792,-0.479167 -1.119792,-0.958333 -0.802083,-0.958333 -0.479167,-1.28125 -0.317708,-1.28125 -0.161458,-1.119792 0.479166,-1.4375 0.479167,-1.119792 0.802083,-1.119791 0.958334,-0.802084 1.28125,-0.640625 1.28125,-0.317708 1.28125,-0.161458 1.4375,0.317708 1.28125,0.322917 1.119791,0.796875 0.802084,1.119791 0.635416,0.963542 0.484375,1.28125 0.15625033,1.27604167"
       transform="matrix(0.75,0,0,0.75,144.72,161.88)"
       id="path62"
       inkscape:connector-curvature="0" />
    <path
       style="fill:#dedede;fill-opacity:1;fill-rule:evenodd;stroke:none"
       d="m 139.80078,163.67969 v -3.71875 l -0.12109,3.71875 z m 0,0"
       id="path64"
       inkscape:connector-curvature="0" />
    <path
       style="fill:#dedede;fill-opacity:1;fill-rule:evenodd;stroke:none"
       d="m 139.67969,163.67969 0.12109,-3.71875 h -0.24219 v 3.71875 z m 0,0"
       id="path66"
       inkscape:connector-curvature="0" />
    <path
       style="fill:#ffffff;fill-opacity:1;fill-rule:evenodd;stroke:none"
       d="m 141.96094,161.87891 -0.1211,0.60156 -0.23828,0.48047 -0.48047,0.48047 -0.48047,0.23828 h -0.60156 l -0.71875,-0.1211 -0.96094,-0.71875 -0.12109,-0.71875 v -0.60156 l 0.12109,-0.48047 0.48047,-0.48047 0.48047,-0.35937 0.71875,-0.23828 0.60156,0.11718 0.48047,0.24219 0.48047,0.48047 0.23828,0.48047 z m 0,0"
       id="path68"
       inkscape:connector-curvature="0" />
    <path
       style="fill:#dedede;fill-opacity:1;fill-rule:evenodd;stroke:none"
       d="m 139.80078,163.67969 v -3.71875 l -0.12109,3.71875 z m 0,0"
       id="path70"
       inkscape:connector-curvature="0" />
    <path
       style="fill:#dedede;fill-opacity:1;fill-rule:evenodd;stroke:none"
       d="m 139.67969,163.67969 0.12109,-3.71875 h -0.24219 v 3.71875 z m 0,0"
       id="path72"
       inkscape:connector-curvature="0" />
    <path
       style="fill:none;stroke:#000000;stroke-width:0.80000001;stroke-linecap:round;stroke-linejoin:round;stroke-miterlimit:10;stroke-opacity:1"
       d="M 0.001251,-0.00145433 -0.160207,0.800629 -0.477916,1.441254 -1.118541,2.081879 -1.759166,2.399587 H -2.561249 L -3.519582,2.238129 -4.800832,1.279796 -4.962291,0.321462 v -0.802083 l 0.161459,-0.640625 0.640625,-0.640625 0.640625,-0.479167 0.958333,-0.317708 0.802083,0.15625 0.640625,0.322917 0.640625,0.640625 0.317709,0.640625 0.161458,0.79687467"
       transform="matrix(0.75,0,0,0.75,141.96,161.88)"
       id="path74"
       inkscape:connector-curvature="0" />
    <path
       style="fill:#dedede;fill-opacity:1;fill-rule:evenodd;stroke:none"
       d="m 215.28125,166.07812 v -9 h 0.11719 l 0.12109,9 z m 0,0"
       id="path76"
       inkscape:connector-curvature="0" />
    <path
       style="fill:#dedede;fill-opacity:1;fill-rule:evenodd;stroke:none"
       d="m 215.51953,166.07812 -0.12109,-9 h 0.36328 v 9 z m 0,0"
       id="path78"
       inkscape:connector-curvature="0" />
    <path
       style="fill:#dedede;fill-opacity:1;fill-rule:evenodd;stroke:none"
       d="m 216.12109,166.07812 v -9 h 0.11719 l 0.12109,9 z m 0,0"
       id="path80"
       inkscape:connector-curvature="0" />
    <path
       style="fill:#dedede;fill-opacity:1;fill-rule:evenodd;stroke:none"
       d="m 216.35937,166.07812 -0.12109,-9 h 0.36328 v 9 z m 0,0"
       id="path82"
       inkscape:connector-curvature="0" />
    <path
       style="fill:#dedede;fill-opacity:1;fill-rule:evenodd;stroke:none"
       d="m 216.96094,166.07812 v -9 h 0.23828 v 9 z m 0,0"
       id="path84"
       inkscape:connector-curvature="0" />
    <path
       style="fill:#dedede;fill-opacity:1;fill-rule:evenodd;stroke:none"
       d="m 217.19922,166.07812 -0.1211,-9 h 0.36329 v 9 z m 0,0"
       id="path86"
       inkscape:connector-curvature="0" />
    <path
       style="fill:#ffffff;fill-opacity:1;fill-rule:evenodd;stroke:none"
       d="m 221.16016,161.51953 -0.1211,1.08203 -0.35937,0.83985 -0.48047,0.83984 -0.71875,0.71875 -0.83985,0.60156 -1.92187,0.47656 h -1.07813 l -0.83984,-0.35937 -0.96094,-0.35938 L 213,164.64062 212.39844,163.92187 212.03906,162.96094 211.80078,162 v -0.83984 l 0.23828,-1.08204 0.35938,-0.83984 0.60156,-0.83984 0.83984,-0.59766 0.83985,-0.48047 0.96093,-0.12109 1.07813,-0.1211 0.83984,0.1211 1.08203,0.35937 0.83985,0.60157 0.71875,0.71875 0.48047,0.83984 0.35937,0.96094 z m 0,0"
       id="path88"
       inkscape:connector-curvature="0" />
    <path
       style="fill:#dedede;fill-opacity:1;fill-rule:evenodd;stroke:none"
       d="m 215.28125,166.07812 v -9 h 0.11719 l 0.12109,9 z m 0,0"
       id="path90"
       inkscape:connector-curvature="0" />
    <path
       style="fill:#dedede;fill-opacity:1;fill-rule:evenodd;stroke:none"
       d="m 215.51953,166.07812 -0.12109,-9 h 0.36328 v 9 z m 0,0"
       id="path92"
       inkscape:connector-curvature="0" />
    <path
       style="fill:#dedede;fill-opacity:1;fill-rule:evenodd;stroke:none"
       d="m 216.12109,166.07812 v -9 h 0.11719 l 0.12109,9 z m 0,0"
       id="path94"
       inkscape:connector-curvature="0" />
    <path
       style="fill:#dedede;fill-opacity:1;fill-rule:evenodd;stroke:none"
       d="m 216.35937,166.07812 -0.12109,-9 h 0.36328 v 9 z m 0,0"
       id="path96"
       inkscape:connector-curvature="0" />
    <path
       style="fill:#dedede;fill-opacity:1;fill-rule:evenodd;stroke:none"
       d="m 216.96094,166.07812 v -9 h 0.23828 v 9 z m 0,0"
       id="path98"
       inkscape:connector-curvature="0" />
    <path
       style="fill:#dedede;fill-opacity:1;fill-rule:evenodd;stroke:none"
       d="m 217.19922,166.07812 -0.1211,-9 h 0.36329 v 9 z m 0,0"
       id="path100"
       inkscape:connector-curvature="0" />
    <path
       style="fill:none;stroke:#000000;stroke-width:0.80000001;stroke-linecap:round;stroke-linejoin:round;stroke-miterlimit:10;stroke-opacity:1"
       d="M 2.03333e-4,-6.26e-4 -0.161255,1.442082 -0.640422,2.561874 -1.281047,3.681666 -2.23938,4.639999 l -1.119792,0.802083 -2.5625,0.635417 h -1.4375 l -1.119791,-0.479167 -1.28125,-0.479166 -1.119792,-0.958334 -0.802083,-0.958333 -0.479167,-1.28125 -0.317708,-1.28125 v -1.119792 l 0.317708,-1.442708 0.479167,-1.119792 0.802083,-1.119791 1.119792,-0.796875 1.119791,-0.640625 1.28125,-0.161459 1.4375,-0.161458 1.119792,0.161458 1.442708,0.479167 1.119792,0.802083 0.958333,0.958334 0.640625,1.119791 0.479167,1.28125 0.161458333,1.119792"
       transform="matrix(0.75,0,0,0.75,221.16,161.52)"
       id="path102"
       inkscape:connector-curvature="0" />
    <path
       style="fill:#dedede;fill-opacity:1;fill-rule:evenodd;stroke:none"
       d="m 217.44141,163.44141 v -3.72266 h -0.1211 l -0.12109,3.72266 z m 0,0"
       id="path104"
       inkscape:connector-curvature="0" />
    <path
       style="fill:#dedede;fill-opacity:1;fill-rule:evenodd;stroke:none"
       d="m 217.19922,163.44141 0.12109,-3.72266 h -0.24219 v 3.72266 z m 0,0"
       id="path106"
       inkscape:connector-curvature="0" />
    <path
       style="fill:#ffffff;fill-opacity:1;fill-rule:evenodd;stroke:none"
       d="m 218.28125,161.51953 -0.12109,0.60156 -0.35938,0.59766 -0.35937,0.35937 -0.60157,0.36329 h -0.60156 l -0.47656,-0.1211 -0.60156,-0.48047 -0.23829,-0.35937 -0.24218,-0.60156 v -0.59766 l 0.24218,-0.48047 0.23829,-0.60156 0.60156,-0.35938 0.47656,-0.12109 1.20313,0.24219 0.71875,0.96093 z m 0,0"
       id="path108"
       inkscape:connector-curvature="0" />
    <path
       style="fill:#dedede;fill-opacity:1;fill-rule:evenodd;stroke:none"
       d="m 217.44141,163.44141 v -3.72266 h -0.1211 l -0.12109,3.72266 z m 0,0"
       id="path110"
       inkscape:connector-curvature="0" />
    <path
       style="fill:#dedede;fill-opacity:1;fill-rule:evenodd;stroke:none"
       d="m 217.19922,163.44141 0.12109,-3.72266 h -0.24219 v 3.72266 z m 0,0"
       id="path112"
       inkscape:connector-curvature="0" />
    <path
       style="fill:none;stroke:#000000;stroke-width:0.80000001;stroke-linecap:round;stroke-linejoin:round;stroke-miterlimit:10;stroke-opacity:1"
       d="M 0.00165767,-6.26e-4 -0.159801,0.801457 -0.638967,1.598332 -1.118134,2.077499 -1.920217,2.561874 H -2.722301 L -3.357717,2.400416 -4.159801,1.759791 -4.477509,1.280624 -4.800426,0.478541 v -0.796875 l 0.322917,-0.640625 0.317708,-0.802084 0.802084,-0.479166 0.635416,-0.161459 1.604167,0.322917 0.958333,1.28125 0.16145867,0.796875"
       transform="matrix(0.75,0,0,0.75,218.28001,161.52)"
       id="path114"
       inkscape:connector-curvature="0" />
    <path
       style="fill:#dedede;fill-opacity:1;fill-rule:evenodd;stroke:none"
       d="m 178.19922,166.07812 v -9 h 0.24219 l 0.11718,9 z m 0,0"
       id="path116"
       inkscape:connector-curvature="0" />
    <path
       style="fill:#dedede;fill-opacity:1;fill-rule:evenodd;stroke:none"
       d="m 178.55859,166.07812 -0.11718,-9 h 0.35937 v 9 z m 0,0"
       id="path118"
       inkscape:connector-curvature="0" />
    <path
       style="fill:#dedede;fill-opacity:1;fill-rule:evenodd;stroke:none"
       d="m 179.03906,166.07812 v -9 h 0.24219 l 0.11719,9 z m 0,0"
       id="path120"
       inkscape:connector-curvature="0" />
    <path
       style="fill:#dedede;fill-opacity:1;fill-rule:evenodd;stroke:none"
       d="m 179.39844,166.07812 -0.11719,-9 h 0.35937 v 9 z m 0,0"
       id="path122"
       inkscape:connector-curvature="0" />
    <path
       style="fill:#dedede;fill-opacity:1;fill-rule:evenodd;stroke:none"
       d="m 180,166.07812 v -9 h 0.23828 v 9 z m 0,0"
       id="path124"
       inkscape:connector-curvature="0" />
    <path
       style="fill:#dedede;fill-opacity:1;fill-rule:evenodd;stroke:none"
       d="m 180.23828,166.07812 v -9 h 0.24219 v 9 z m 0,0"
       id="path126"
       inkscape:connector-curvature="0" />
    <path
       style="fill:#ffffff;fill-opacity:1;fill-rule:evenodd;stroke:none"
       d="m 182.64062,161.51953 v 1.08203 l -0.35937,0.83985 -0.48047,0.83984 -0.72266,0.71875 -0.83984,0.60156 -0.95703,0.23828 -0.96094,0.23828 h -1.08203 l -0.95703,-0.35937 -0.83984,-0.35938 -0.83985,-0.71875 L 174,163.92187 173.64062,162.96094 173.39844,162 v -0.83984 l 0.24218,-1.08204 0.35938,-0.83984 0.60156,-0.83984 0.83985,-0.59766 0.83984,-0.48047 0.95703,-0.12109 1.08203,-0.1211 0.96094,0.1211 0.95703,0.35937 0.83984,0.60157 0.72266,0.71875 0.48047,0.83984 0.35937,0.96094 z m 0,0"
       id="path128"
       inkscape:connector-curvature="0" />
    <path
       style="fill:#dedede;fill-opacity:1;fill-rule:evenodd;stroke:none"
       d="m 178.19922,166.07812 v -9 h 0.24219 l 0.11718,9 z m 0,0"
       id="path130"
       inkscape:connector-curvature="0" />
    <path
       style="fill:#dedede;fill-opacity:1;fill-rule:evenodd;stroke:none"
       d="m 178.55859,166.07812 -0.11718,-9 h 0.35937 v 9 z m 0,0"
       id="path132"
       inkscape:connector-curvature="0" />
    <path
       style="fill:#dedede;fill-opacity:1;fill-rule:evenodd;stroke:none"
       d="m 179.03906,166.07812 v -9 h 0.24219 l 0.11719,9 z m 0,0"
       id="path134"
       inkscape:connector-curvature="0" />
    <path
       style="fill:#dedede;fill-opacity:1;fill-rule:evenodd;stroke:none"
       d="m 179.39844,166.07812 -0.11719,-9 h 0.35937 v 9 z m 0,0"
       id="path136"
       inkscape:connector-curvature="0" />
    <path
       style="fill:#dedede;fill-opacity:1;fill-rule:evenodd;stroke:none"
       d="m 180,166.07812 v -9 h 0.23828 v 9 z m 0,0"
       id="path138"
       inkscape:connector-curvature="0" />
    <path
       style="fill:#dedede;fill-opacity:1;fill-rule:evenodd;stroke:none"
       d="m 180.23828,166.07812 v -9 h 0.24219 v 9 z m 0,0"
       id="path140"
       inkscape:connector-curvature="0" />
    <path
       style="fill:none;stroke:#000000;stroke-width:0.80000001;stroke-linecap:round;stroke-linejoin:round;stroke-miterlimit:10;stroke-opacity:1"
       d="M 8.29333e-4,-6.26e-4 V 1.442082 L -0.478337,2.561874 -1.118962,3.681666 -2.082504,4.639999 -3.202296,5.442082 -4.478337,5.759791 -5.759587,6.077499 h -1.442709 l -1.276041,-0.479167 -1.119792,-0.479166 -1.119792,-0.958334 -0.802083,-0.958333 -0.479167,-1.28125 -0.322916,-1.28125 v -1.119792 l 0.322916,-1.442708 0.479167,-1.119792 0.802083,-1.119791 1.119792,-0.796875 1.119792,-0.640625 1.276041,-0.161459 1.442709,-0.161458 1.28125,0.161458 1.276041,0.479167 1.119792,0.802083 0.963542,0.958334 0.640625,1.119791 0.479166333,1.28125 v 1.119792"
       transform="matrix(0.75,0,0,0.75,182.64,161.52)"
       id="path142"
       inkscape:connector-curvature="0" />
    <path
       style="fill:#ffffff;fill-opacity:1;fill-rule:evenodd;stroke:none"
       d="m 179.87891,161.51953 -0.11719,0.60156 -0.24219,0.59766 -0.48047,0.35937 -0.48047,0.36329 h -0.59765 l -0.60157,-0.1211 -0.59765,-0.48047 -0.36328,-0.35937 -0.11719,-0.60156 v -0.59766 l 0.23828,-0.48047 0.24219,-0.60156 0.59765,-0.35938 0.60157,-0.12109 0.59765,0.12109 0.48047,0.1211 0.48047,0.48047 0.35938,0.48046 z m 0,0"
       id="path144"
       inkscape:connector-curvature="0" />
    <path
       style="fill:none;stroke:#000000;stroke-width:0.80000001;stroke-linecap:round;stroke-linejoin:round;stroke-miterlimit:10;stroke-opacity:1"
       d="M -0.00145433,-6.26e-4 -0.157704,0.801457 -0.480621,1.598332 -1.121246,2.077499 -1.761871,2.561874 H -2.558746 L -3.360829,2.400416 -4.157704,1.759791 -4.642079,1.280624 -4.798329,0.478541 v -0.796875 l 0.317708,-0.640625 0.322917,-0.802084 0.796875,-0.479166 0.802083,-0.161459 0.796875,0.161459 0.640625,0.161458 0.640625,0.640625 0.47916667,0.640625 v 0.796875"
       transform="matrix(0.75,0,0,0.75,179.88,161.52)"
       id="path146"
       inkscape:connector-curvature="0" />
    <path
       style="fill:#ff0000;fill-opacity:1;fill-rule:evenodd;stroke:none"
       d="m 163.80078,140.76172 c 0,0.35937 -0.24219,0.71875 -0.72266,0.95703 -0.47656,0.24219 -1.07812,0.35937 -1.79687,0.35937 -0.48047,0 -0.83984,0 -1.20313,0 -0.35937,-0.11718 -0.59765,-0.11718 -0.83984,-0.23828 0,-0.35937 0,-0.71875 0,-1.07812 0,0 0.12109,0 0.12109,0 0.1211,0 0.24219,0.11719 0.24219,0.11719 0.11719,0.12109 0.35938,0.12109 0.47656,0.24218 0.1211,0 0.36329,0.11719 0.60157,0.11719 0.12109,0 0.35937,0 0.60156,0 0.35937,0 0.48047,0 0.71875,0 0.12109,-0.11719 0.12109,-0.11719 0.12109,-0.23828 0,-0.12109 0,-0.23828 -0.12109,-0.23828 0,-0.1211 -0.23828,-0.1211 -0.48047,-0.1211 -0.12109,0 -0.23828,-0.12109 -0.48047,-0.12109 -0.11719,0 -0.35937,0 -0.48047,-0.12109 -0.48047,0 -0.71875,-0.23828 -0.95703,-0.35938 -0.24219,-0.23828 -0.36328,-0.48047 -0.36328,-0.71875 0,-0.48047 0.24219,-0.71875 0.72266,-0.96094 0.35937,-0.35937 0.96093,-0.48046 1.80078,-0.48046 0.35937,0 0.71875,0.12109 0.95703,0.12109 0.35937,0.12109 0.60156,0.12109 0.83984,0.23828 0,0.36328 0,0.60156 0,0.96094 -0.11718,0 -0.11718,0 -0.11718,0 -0.24219,-0.1211 -0.48047,-0.23828 -0.83985,-0.35938 -0.24219,0 -0.60156,-0.12109 -0.83984,-0.12109 -0.24219,0 -0.48047,0.12109 -0.60156,0.12109 -0.23829,0.1211 -0.35938,0.1211 -0.35938,0.23828 0,0.1211 0.12109,0.24219 0.12109,0.24219 0.11719,0 0.23829,0.1211 0.59766,0.1211 0.12109,0 0.35938,0.11718 0.48047,0.11718 0.23828,0 0.35937,0 0.60156,0.1211 0.35938,0 0.71875,0.24218 0.83985,0.35937 0.23828,0.24219 0.35937,0.48047 0.35937,0.72266 z m 0,0"
       id="path148"
       inkscape:connector-curvature="0" />
    <path
       style="fill:#ff0000;fill-opacity:1;fill-rule:evenodd;stroke:none"
       d="m 169.55859,142.07812 c -0.48047,0 -0.95703,0 -1.55859,0 0,-0.71875 0,-1.3164 0,-2.03906 0,-0.11719 0,-0.35937 0,-0.48047 0,-0.11718 0,-0.23828 -0.12109,-0.35937 0,-0.1211 -0.11719,-0.1211 -0.23829,-0.23828 -0.12109,0 -0.24218,0 -0.48046,0 -0.1211,0 -0.23829,0 -0.35938,0 -0.12109,0.11718 -0.35937,0.11718 -0.48047,0.23828 0,0.96094 0,1.92187 0,2.8789 -0.48047,0 -1.08203,0 -1.55859,0 0,-1.4375 0,-2.75781 0,-4.07812 0.47656,0 1.07812,0 1.55859,0 0,0.23828 0,0.35937 0,0.48047 0.23828,-0.24219 0.48047,-0.35938 0.83985,-0.35938 0.23828,-0.12109 0.48046,-0.24218 0.83984,-0.24218 0.48047,0 0.83984,0.12109 1.19922,0.48046 0.24219,0.24219 0.35937,0.60157 0.35937,1.08204 0,0.83984 0,1.67968 0,2.63671 z m 0,0"
       id="path150"
       inkscape:connector-curvature="0" />
    <path
       style="fill:#ff0000;fill-opacity:1;fill-rule:evenodd;stroke:none"
       d="m 173.87891,141 c 0,-0.23828 0,-0.60156 0,-0.83984 -0.11719,0 -0.35938,0 -0.59766,0 -0.24219,0.12109 -0.48047,0.12109 -0.60156,0.12109 -0.1211,0 -0.23828,0.11719 -0.35938,0.23828 0,0 -0.12109,0.12109 -0.12109,0.24219 0,0.11719 0,0.11719 0,0.23828 0.12109,0 0.12109,0.12109 0.12109,0.12109 0.1211,0 0.23828,0.11719 0.23828,0.11719 0.1211,0 0.24219,0 0.48047,0 0.1211,0 0.35938,0 0.48047,0 0.12109,-0.11719 0.24219,-0.11719 0.35938,-0.23828 z m 0,0.60156 c 0,0 -0.11719,0.11719 -0.23829,0.23828 -0.12109,0 -0.24218,0.1211 -0.35937,0.1211 -0.12109,0.11718 -0.35938,0.11718 -0.48047,0.11718 -0.12109,0 -0.35937,0 -0.48047,0 -0.48047,0 -0.83984,0 -1.19922,-0.23828 -0.35937,-0.23828 -0.48047,-0.60156 -0.48047,-0.96093 0,-0.23829 0.1211,-0.48047 0.23829,-0.71875 0.12109,-0.1211 0.35937,-0.35938 0.72265,-0.48047 0.23828,0 0.59766,-0.1211 1.07813,-0.1211 0.35937,-0.11718 0.83984,-0.11718 1.19922,-0.11718 0,-0.24219 0,-0.48047 -0.23829,-0.48047 -0.24218,-0.1211 -0.60156,-0.1211 -0.96093,-0.1211 -0.23828,0 -0.60157,0 -0.83985,0.1211 -0.23828,0 -0.48047,0.11718 -0.60156,0.11718 -0.11719,0 -0.11719,0 -0.11719,0 0,-0.35937 0,-0.59765 0,-0.95703 0.11719,0 0.35938,-0.12109 0.71875,-0.12109 0.35938,0 0.71875,-0.12109 1.08203,-0.12109 0.95704,0 1.5586,0.12109 1.91797,0.35937 0.48047,0.24219 0.60157,0.60156 0.60157,1.08203 0,0.83985 0,1.80078 0,2.75781 -0.48047,0 -0.96094,0 -1.5625,0 0,-0.23828 0,-0.35937 0,-0.47656 z m 0,0"
       id="path152"
       inkscape:connector-curvature="0" />
    <path
       style="fill:#ff0000;fill-opacity:1;fill-rule:evenodd;stroke:none"
       d="m 181.92187,139.92187 c 0,0.35938 -0.12109,0.71875 -0.24218,0.95704 -0.1211,0.24218 -0.23828,0.48046 -0.48047,0.72265 -0.1211,0.11719 -0.35938,0.23828 -0.71875,0.35938 -0.24219,0.11718 -0.48047,0.11718 -0.71875,0.11718 -0.36328,0 -0.60156,0 -0.72266,0 -0.23828,-0.11718 -0.48047,-0.11718 -0.59765,-0.23828 0,0.60157 0,1.08203 0,1.67969 -0.48047,0 -1.08204,0 -1.5625,0 0,-1.80078 0,-3.71875 0,-5.51953 0.48046,0 1.08203,0 1.5625,0 0,0.12109 0,0.35937 0,0.48047 0.23828,-0.24219 0.48046,-0.35938 0.71875,-0.35938 0.23828,-0.12109 0.48046,-0.24218 0.83984,-0.24218 0.60156,0 1.07812,0.24218 1.44141,0.60156 0.23828,0.35937 0.48046,0.83984 0.48046,1.4414 z m -1.5625,0.11719 c 0,-0.48047 -0.12109,-0.71875 -0.23828,-0.83984 -0.24218,-0.23828 -0.48047,-0.35938 -0.83984,-0.35938 -0.12109,0 -0.24219,0.1211 -0.48047,0.1211 -0.12109,0 -0.24219,0.11718 -0.35937,0.11718 0,0.72266 0,1.32032 0,2.04297 0.11718,0 0.23828,0 0.35937,0 0.12109,0.11719 0.12109,0.11719 0.23828,0.11719 0.48047,0 0.72266,-0.11719 0.96094,-0.35937 0.23828,-0.23829 0.35937,-0.48047 0.35937,-0.83985 z m 0,0"
       id="path154"
       inkscape:connector-curvature="0" />
    <path
       style="fill:#ff0000;fill-opacity:1;fill-rule:evenodd;stroke:none"
       d="m 184.80078,139.44141 c -0.48047,0 -1.08203,0 -1.5625,0 0,-0.48047 0,-0.96094 0,-1.44141 0.48047,0 1.08203,0 1.5625,0 0,0.48047 0,0.96094 0,1.44141 z m 0,2.63671 c -0.48047,0 -1.08203,0 -1.5625,0 0,-0.47656 0,-0.95703 0,-1.4375 0.48047,0 1.08203,0 1.5625,0 0,0.48047 0,0.96094 0,1.4375 z m 0,0"
       id="path156"
       inkscape:connector-curvature="0" />
    <path
       style="fill:#ff0000;fill-opacity:1;fill-rule:evenodd;stroke:none"
       d="m 191.51953,139.92187 c 0,0.71875 -0.12109,1.19922 -0.59766,1.5586 -0.36328,0.48047 -0.96093,0.59765 -1.5625,0.59765 -0.23828,0 -0.48046,0 -0.71875,0 -0.24218,-0.11718 -0.35937,-0.11718 -0.60156,-0.23828 0,0 0,0.1211 0,0.23828 -0.48047,0 -0.96094,0 -1.55859,0 0,-1.91796 0,-3.71875 0,-5.63671 0.59765,0 1.07812,0 1.55859,0 0,0.71875 0,1.32031 0,2.03906 0.24219,-0.24219 0.48047,-0.35938 0.72266,-0.35938 0.23828,-0.12109 0.59765,-0.24218 0.83984,-0.24218 0.71875,0 1.07813,0.24218 1.4375,0.60156 0.35938,0.35937 0.48047,0.83984 0.48047,1.4414 z m -1.55859,0.11719 c 0,-0.35937 -0.1211,-0.71875 -0.24219,-0.83984 -0.11719,-0.23828 -0.35938,-0.35938 -0.71875,-0.35938 -0.12109,0 -0.35938,0.1211 -0.48047,0.1211 -0.12109,0 -0.35937,0.11718 -0.48047,0.11718 0,0.72266 0,1.32032 0,2.04297 0.1211,0 0.24219,0 0.35938,0 0.12109,0.11719 0.24218,0.11719 0.36328,0.11719 0.35937,0 0.71875,-0.11719 0.95703,-0.35937 0.12109,-0.23829 0.24219,-0.48047 0.24219,-0.83985 z m 0,0"
       id="path158"
       inkscape:connector-curvature="0" />
    <path
       style="fill:#ff0000;fill-opacity:1;fill-rule:evenodd;stroke:none"
       d="m 194.16016,142.07812 c -0.48047,0 -0.96094,0 -1.44141,0 0,-1.4375 0,-2.75781 0,-4.07812 0.48047,0 0.96094,0 1.44141,0 0,1.32031 0,2.64062 0,4.07812 z m 0.12109,-4.55859 c -0.60156,0 -1.08203,0 -1.67969,0 0,-0.35937 0,-0.71875 0,-1.07812 0.59766,0 1.07813,0 1.67969,0 0,0.35937 0,0.71875 0,1.07812 z m 0,0"
       id="path160"
       inkscape:connector-curvature="0" />
    <path
       style="fill:#ff0000;fill-opacity:1;fill-rule:evenodd;stroke:none"
       d="m 198.71875,141.96094 c -0.11719,0.11718 -0.35938,0.11718 -0.48047,0.11718 -0.23828,0 -0.47656,0 -0.71875,0 -0.59766,0 -1.07812,-0.11718 -1.32031,-0.23828 -0.23828,-0.23828 -0.48047,-0.60156 -0.48047,-1.07812 0,-0.60156 0,-1.20313 0,-1.80078 -0.11719,0 -0.35938,0 -0.59766,0 0,-0.35938 0,-0.60157 0,-0.96094 0.23828,0 0.48047,0 0.59766,0 0,-0.35938 0,-0.71875 0,-1.07813 0.60156,0 1.08203,0 1.5625,0 0,0.35938 0,0.71875 0,1.07813 0.48047,0 0.95703,0 1.4375,0 0,0.35937 0,0.60156 0,0.96094 -0.48047,0 -0.95703,0 -1.4375,0 0,0.35937 0,0.83984 0,1.32031 0,0.11719 0,0.35937 0,0.35937 0,0.1211 0,0.23829 0.11719,0.35938 0,0 0.12109,0.12109 0.24218,0.12109 0,0.11719 0.23829,0.11719 0.35938,0.11719 0.12109,0 0.23828,0 0.35937,0 0.1211,-0.11719 0.24219,-0.11719 0.24219,-0.11719 0,0 0.11719,0 0.11719,0 0,0.23828 0,0.59766 0,0.83985 z m 0,0"
       id="path162"
       inkscape:connector-curvature="0" />
    <path
       style="fill:#ff0000;fill-opacity:1;fill-rule:evenodd;stroke:none"
       d="m 206.64062,95.398438 c 0.1211,0.121093 0.1211,0.242187 0.23829,0.242187 0,0.121094 0,0.359375 0,0.480469 0,0.238281 0,0.359375 0,0.597656 -0.11719,0.121094 -0.23829,0.359375 -0.48047,0.480469 -0.11719,0.121093 -0.35938,0.121093 -0.47657,0.242187 -0.24218,0.117188 -0.48046,0.117188 -0.84375,0.117188 -0.35937,0 -0.59765,0 -0.95703,-0.117188 -0.24218,0 -0.35937,-0.121094 -0.60156,-0.121094 0,-0.359374 0,-0.71875 0,-0.960937 0.12109,0 0.12109,0 0.12109,0 0.23829,0 0.35938,0.121094 0.59766,0.242187 0.24219,0 0.48047,0.117188 0.60156,0.117188 0.1211,0 0.23828,0 0.35938,-0.117188 0.12109,0 0.24219,0 0.35937,-0.121093 0.1211,0 0.1211,0 0.24219,-0.121094 0,-0.121094 0,-0.121094 0,-0.359375 0,-0.121094 0,-0.121094 -0.12109,-0.238281 0,-0.121094 -0.1211,-0.121094 -0.23828,-0.121094 0,0 -0.1211,-0.121094 -0.24219,-0.121094 -0.1211,0 -0.23828,0 -0.35938,0 -0.12109,0 -0.23828,0 -0.23828,0 0,-0.238281 0,-0.480469 0,-0.71875 0,0 0.11719,0 0.23828,0 0.1211,0 0.23828,0 0.35938,0 0.12109,0 0.24219,-0.121093 0.24219,-0.121093 0.11718,0 0.23828,-0.121094 0.23828,-0.121094 0,-0.117188 0.12109,-0.117188 0.12109,-0.238282 0,-0.121093 -0.12109,-0.242187 -0.12109,-0.242187 0,-0.117187 -0.1211,-0.117187 -0.1211,-0.117187 -0.11718,0 -0.23828,-0.121094 -0.35937,-0.121094 0,0 -0.1211,0 -0.23828,0 -0.1211,0 -0.35938,0 -0.60157,0.121094 -0.12109,0 -0.35937,0.117187 -0.59765,0.238281 0,0 0,0 -0.1211,0 0,-0.238281 0,-0.597657 0,-0.960938 0.23829,0 0.35938,-0.117187 0.71875,-0.117187 C 204.60156,93 204.83984,93 205.19922,93 c 0.24219,0 0.48047,0 0.60156,0.121094 0.23828,0 0.48047,0 0.59766,0.117187 0.12109,0.121094 0.24218,0.242188 0.36328,0.363281 0,0.117188 0.11719,0.359376 0.11719,0.476563 0,0.242187 -0.11719,0.480469 -0.23829,0.601563 -0.24218,0.242187 -0.35937,0.359374 -0.60156,0.480468 0.1211,0 0.24219,0 0.24219,0.121094 0.11719,0 0.23828,0 0.35937,0.117188 z m 0,0"
       id="path164"
       inkscape:connector-curvature="0" />
    <path
       style="fill:#ff0000;fill-opacity:1;fill-rule:evenodd;stroke:none"
       d="m 211.80078,93.121094 c -0.48047,1.4375 -1.08203,2.878906 -1.5625,4.320312 -0.47656,0 -0.83984,0 -1.19922,0 -0.59765,-1.441406 -1.07812,-2.882812 -1.67969,-4.320312 0.48047,0 0.83985,0 1.19922,0 0.36328,0.957031 0.72266,2.039062 1.08203,3 0.35938,-0.960938 0.71875,-2.042969 0.96094,-3 0.47656,0 0.83985,0 1.19922,0 z m 0,0"
       id="path166"
       inkscape:connector-curvature="0" />
    <path
       style="fill:#ff0000;fill-opacity:1;fill-rule:evenodd;stroke:none"
       d="m 204.12109,155.28125 c -0.12109,0.11719 -0.35937,0.11719 -0.60156,0.23828 -0.23828,0.12109 -0.59766,0.12109 -0.83984,0.12109 -0.60157,0 -1.07813,-0.24218 -1.44141,-0.60156 -0.35937,-0.35937 -0.59766,-0.96094 -0.59766,-1.67969 0,-0.71875 0.23829,-1.19921 0.59766,-1.67968 0.36328,-0.35938 0.83984,-0.60157 1.44141,-0.60157 0.24218,0 0.48047,0 0.71875,0.1211 0.24218,0 0.48047,0.12109 0.72265,0.24219 0,0.35937 0,0.71875 0,1.07812 0,0 -0.12109,0 -0.12109,0 0,0 -0.12109,-0.12109 -0.12109,-0.23828 -0.11719,0 -0.23829,-0.12109 -0.35938,-0.12109 0,-0.1211 -0.12109,-0.1211 -0.23828,-0.23829 -0.12109,0 -0.35938,0 -0.48047,0 -0.12109,0 -0.24219,0 -0.48047,0.11719 -0.12109,0 -0.24219,0.1211 -0.35937,0.24219 0,0.11719 -0.1211,0.23828 -0.24219,0.48047 0,0.11719 0,0.35937 0,0.59765 0,0.48047 0.12109,0.83985 0.24219,1.08204 0.23828,0.23828 0.59765,0.35937 0.96093,0.35937 0.11719,0 0.11719,0 0.11719,0 0.1211,0 0.1211,0 0.1211,0 0,-0.24219 0,-0.60156 0,-0.83984 -0.23829,0 -0.48047,0 -0.71875,0 0,-0.24219 0,-0.48047 0,-0.83985 0.59765,0 1.07812,0 1.67968,0 0,0.71875 0,1.4375 0,2.16016 z m 0,0"
       id="path168"
       inkscape:connector-curvature="0" />
    <path
       style="fill:#ff0000;fill-opacity:1;fill-rule:evenodd;stroke:none"
       d="m 208.32031,155.51953 c -0.35937,0 -0.60156,0 -0.96094,0 -0.48046,-0.96094 -0.96093,-1.91797 -1.55859,-3 0,1.08203 0,2.03906 0,3 -0.24219,0 -0.48047,0 -0.83984,0 0,-1.44141 0,-2.87891 0,-4.32031 0.35937,0 0.71875,0 1.19922,0 0.35937,0.83984 0.83984,1.67969 1.32031,2.51953 0,-0.83984 0,-1.67969 0,-2.51953 0.23828,0 0.59765,0 0.83984,0 0,1.4414 0,2.8789 0,4.32031 z m 0,0"
       id="path170"
       inkscape:connector-curvature="0" />
    <path
       style="fill:#ff0000;fill-opacity:1;fill-rule:evenodd;stroke:none"
       d="m 212.64062,153.35937 c 0,0.35938 0,0.83985 -0.12109,1.08204 -0.23828,0.35937 -0.35937,0.59765 -0.59766,0.71875 -0.24218,0.12109 -0.48046,0.23828 -0.60156,0.35937 -0.24219,0 -0.48047,0 -0.83984,0 -0.35938,0 -0.83985,0 -1.19922,0 0,-1.44141 0,-2.87891 0,-4.32031 0.35937,0 0.83984,0 1.32031,0 0.23828,0 0.47656,0 0.71875,0.12109 0.23828,0 0.35938,0.1211 0.60156,0.23828 0.23829,0.1211 0.35938,0.36328 0.59766,0.72266 0.12109,0.35937 0.12109,0.71875 0.12109,1.07812 z m -0.96093,0 c 0,-0.23828 0,-0.48046 -0.1211,-0.71875 0,-0.24218 -0.23828,-0.35937 -0.35937,-0.48046 -0.1211,-0.1211 -0.23828,-0.1211 -0.35938,-0.1211 -0.12109,0 -0.23828,0 -0.35937,0 -0.1211,0 -0.24219,0 -0.24219,0 0,0.83985 0,1.80078 0,2.64063 0,0 0.12109,0 0.24219,0 0.12109,0 0.35937,0 0.48047,0 0,0 0.11718,0 0.23828,-0.1211 0.24219,-0.11718 0.35937,-0.23828 0.35937,-0.48047 0.1211,-0.23828 0.1211,-0.47656 0.1211,-0.71875 z m 0,0"
       id="path172"
       inkscape:connector-curvature="0" />
    <path
       style="fill:#ff0000;fill-opacity:1;fill-rule:evenodd;stroke:none"
       d="m 179.87891,155.64062 c -1.19922,0 -2.51954,0 -3.83985,0 0,-0.24218 0,-0.48046 0,-0.71875 0.35938,-0.24218 0.60156,-0.36328 0.96094,-0.60156 0.23828,-0.24219 0.48047,-0.48047 0.71875,-0.60156 0.24219,-0.23828 0.35937,-0.48047 0.48047,-0.59766 0.12109,-0.12109 0.24219,-0.35937 0.24219,-0.48047 0,-0.24218 -0.1211,-0.35937 -0.24219,-0.48046 -0.1211,-0.1211 -0.35938,-0.23829 -0.59766,-0.23829 -0.24219,0 -0.48047,0.11719 -0.60156,0.11719 -0.23828,0.1211 -0.48047,0.24219 -0.71875,0.35938 0,-0.35938 0,-0.71875 0,-1.07813 0.11719,0 0.35937,-0.12109 0.59766,-0.12109 0.35937,-0.1211 0.60156,-0.1211 0.96093,-0.1211 0.60157,0 1.08203,0.1211 1.32032,0.36329 0.35937,0.23828 0.48046,0.59765 0.48046,0.95703 0,0.36328 0,0.60156 -0.24218,0.83984 -0.11719,0.24219 -0.35938,0.48047 -0.59766,0.83984 -0.24219,0.1211 -0.48047,0.24219 -0.60156,0.36329 -0.23828,0.23828 -0.35938,0.23828 -0.48047,0.35937 0.72266,0 1.44141,0 2.16016,0 0,0.23828 0,0.59766 0,0.83984 z m 0,0"
       id="path174"
       inkscape:connector-curvature="0" />
    <path
       style="fill:#ff0000;fill-opacity:1;fill-rule:evenodd;stroke:none"
       d="m 149.03906,155.64062 c -1.32031,0 -2.51953,0 -3.83984,0 0,-0.24218 0,-0.48046 0,-0.71875 0.35937,0 0.83984,0 1.19922,0 0,-0.84375 0,-1.5625 0,-2.40234 -0.35938,0 -0.83985,0 -1.19922,0 0,-0.23828 0,-0.48047 0,-0.71875 0.12109,0 0.35937,0 0.48047,-0.12109 0.24218,0 0.35937,0 0.48047,0 0.12109,-0.1211 0.23828,-0.1211 0.23828,-0.23828 0.12109,-0.1211 0.12109,-0.1211 0.12109,-0.24219 0.48047,0 0.83984,0 1.32031,0 0,1.19922 0,2.40234 0,3.72265 0.35938,0 0.71875,0 1.19922,0 0,0.23829 0,0.47657 0,0.71875 z m 0,0"
       id="path176"
       inkscape:connector-curvature="0" />
    <path
       style="fill:#ff0000;fill-opacity:1;fill-rule:evenodd;stroke:none"
       d="m 149.03906,95.28125 c 0,0.359375 -0.11719,0.71875 -0.11719,0.957031 -0.12109,0.363281 -0.24218,0.601563 -0.36328,0.722657 -0.11718,0.238281 -0.35937,0.359374 -0.59765,0.480468 -0.24219,0 -0.48047,0.117188 -0.83985,0.117188 -0.35937,0 -0.72265,-0.117188 -0.96093,-0.117188 -0.23829,-0.121094 -0.35938,-0.242187 -0.48047,-0.480468 -0.23828,-0.242188 -0.35938,-0.480469 -0.35938,-0.722657 C 145.19922,96 145.19922,95.640625 145.19922,95.28125 c 0,-0.359375 0,-0.722656 0.12109,-0.960938 0,-0.359374 0.1211,-0.601562 0.35938,-0.71875 0.12109,-0.242187 0.35937,-0.363281 0.60156,-0.480468 C 146.51953,93 146.76172,93 147.12109,93 c 0.35938,0 0.59766,0 0.83985,0.121094 0.23828,0.117187 0.48047,0.238281 0.59765,0.480468 0.1211,0.238282 0.24219,0.359376 0.36328,0.71875 0,0.238282 0.11719,0.601563 0.11719,0.960938 z m -1.19922,0 c 0,-0.480469 -0.12109,-0.960938 -0.23828,-1.203125 -0.12109,-0.117187 -0.24219,-0.238281 -0.48047,-0.238281 -0.24218,0 -0.48047,0.121094 -0.60156,0.238281 -0.12109,0.242187 -0.12109,0.722656 -0.12109,1.203125 0,0.480469 0,0.839844 0.12109,1.078125 0.12109,0.242187 0.35938,0.359375 0.60156,0.359375 0.23828,0 0.35938,-0.117188 0.48047,-0.359375 0.11719,-0.238281 0.23828,-0.597656 0.23828,-1.078125 z m 0,0"
       id="path178"
       inkscape:connector-curvature="0" />
    <path
       style="fill:#3f3f3f;fill-opacity:1;fill-rule:evenodd;stroke:#ff0000;stroke-width:4.96000004;stroke-linecap:round;stroke-linejoin:round;stroke-miterlimit:10;stroke-opacity:1"
       d="m 0.002502,0.001251 h -3.520833 l -0.963542,-0.161458 h -0.796875 l -0.802083,-0.161459 -0.479167,-0.15625 h -0.317708 l -0.161459,-0.161458 v -8.640625 l 0.161459,-0.161458 0.317708,-0.15625 h 0.479167 l 0.802083,-0.161459 0.796875,-0.161458 h 2.083333 l 1.276042,-0.161458 h 90.401042 l 1.119791,0.161458 h 2.239584 l 0.802083,0.161458 0.640625,0.161459 h 0.640625 l 0.317708,0.15625 0.161459,0.161458 v 8.640625 l -0.161459,0.161458 h -0.317708 l -0.640625,0.15625 -0.640625,0.161459 h -0.802083 l -1.119792,0.161458 z m 0,0"
       transform="matrix(0.75,0,0,0.75,145.92,126.96)"
       id="path180"
       inkscape:connector-curvature="0" />
    <path
       style="fill:#ff0000;fill-opacity:1;fill-rule:evenodd;stroke:#000000;stroke-width:0.95999998;stroke-linecap:round;stroke-linejoin:round;stroke-miterlimit:10;stroke-opacity:1"
       d="m 0.00209533,6.26e-4 1.59895867,0.161458 1.4375,0.317709 1.28125,0.479166 1.119791,0.802084 1.119792,1.119791 0.802083,1.28125 0.640625,1.276042 0.317709,1.442708 0.161458,1.598959 v 13.119791 l -0.161458,1.598959 -0.317709,1.442708 -0.640625,1.28125 -0.802083,1.119792 -1.119792,1.119791 -1.119791,0.796875 -1.28125,0.802084 -1.4375,0.317708 H -103.36249 l -1.4375,-0.317708 -1.28125,-0.802084 -1.28125,-0.796875 -1.11979,-1.119791 -0.79688,-0.963542 -0.64062,-1.4375 -0.31771,-1.442708 -0.16146,-1.4375 V 8.479793 l 0.16146,-1.598959 0.31771,-1.28125 0.64062,-1.4375 0.79688,-1.28125 1.11979,-1.119791 1.28125,-0.802084 1.28125,-0.479166 1.4375,-0.317709 1.44271,-0.161458 z m 0,0"
       transform="matrix(0.75,0,0,0.75,216.59999,75.479999)"
       id="path182"
       inkscape:connector-curvature="0" />
    <path
       style="fill:#dedede;fill-opacity:1;fill-rule:evenodd;stroke:#000000;stroke-width:0.80000001;stroke-linecap:round;stroke-linejoin:round;stroke-miterlimit:10;stroke-opacity:1"
       d="M 0.00165767,4.14667e-4 -1.279592,-0.161044 -3.519176,-1.119377 -4.321259,-2.07771 -5.279592,-3.041252 -5.602509,-4.161044 -5.920217,-5.442294 v -1.276041 l 0.317708,-1.28125 0.322917,-0.958334 0.958333,-0.963541 0.802083,-0.958334 1.119792,-0.640625 1.119792,-0.317708 h 2.557291 l 1.119792,0.479167 1.125,0.640625 0.958333,0.958333 0.640625,0.802083 0.640625,1.276042 0.317709,1.28125 v 1.119792 l -0.317709,1.28125 -1.28125,2.239583 -0.958333,0.802083 -1.125,0.479167 -1.119792,0.479166667 z m 0,0"
       transform="matrix(0.75,0,0,0.75,215.28001,91.320002)"
       id="path184"
       inkscape:connector-curvature="0" />
    <path
       style="fill:#dedede;fill-opacity:1;fill-rule:evenodd;stroke:#000000;stroke-width:0.80000001;stroke-linecap:round;stroke-linejoin:round;stroke-miterlimit:10;stroke-opacity:1"
       d="M -0.00209533,-4.14667e-4 -0.637512,-0.161873 -1.439595,-0.64104 -2.08022,-1.120206 -2.397929,-1.92229 v -0.796875 l 0.15625,-0.640625 0.479167,-0.640625 0.640625,-0.479166 0.640625,-0.161459 h 0.802083 l 0.958334,0.161459 0.640625,0.479166 0.479166,0.640625 v 1.4375 L 2.081238,-1.120206 1.602071,-0.64104 0.799988,-0.161873 Z m 0,0"
       transform="matrix(0.75,0,0,0.75,215.40001,88.679999)"
       id="path186"
       inkscape:connector-curvature="0" />
    <path
       style="fill:#dedede;fill-opacity:1;fill-rule:evenodd;stroke:#000000;stroke-width:0.80000001;stroke-linecap:round;stroke-linejoin:round;stroke-miterlimit:10;stroke-opacity:1"
       d="M 0.00229867,4.14667e-4 -1.278951,-0.161044 -3.518535,-1.119377 -4.482076,-2.07771 -5.117493,-3.041252 -5.758118,-4.161044 -6.081035,-5.442294 v -1.276041 l 0.322917,-1.28125 0.640625,-0.958334 0.635417,-0.963541 0.963541,-0.958334 1.119792,-0.640625 1.119792,-0.317708 H 1.27834 l 1.119792,0.479167 1.119792,0.640625 0.802083,0.958333 0.958333,0.802083 0.322917,1.276042 0.317708,1.28125 v 1.119792 L 5.601257,-3.999585 5.27834,-2.879794 4.320007,-1.760002 3.517924,-0.957919 2.55959,-0.478752 1.27834,4.14667e-4 Z m 0,0"
       transform="matrix(0.75,0,0,0.75,140.75999,91.320002)"
       id="path188"
       inkscape:connector-curvature="0" />
    <path
       style="fill:#dedede;fill-opacity:1;fill-rule:evenodd;stroke:#000000;stroke-width:0.80000001;stroke-linecap:round;stroke-linejoin:round;stroke-miterlimit:10;stroke-opacity:1"
       d="M 0,-4.14667e-4 -0.958333,-0.161873 -1.598958,-0.64104 -2.078125,-1.120206 -2.5625,-1.92229 v -0.796875 l 0.161458,-0.640625 0.322917,-0.640625 0.796875,-0.479166 0.802083,-0.161459 h 0.796875 l 0.640625,0.161459 0.640625,0.479166 0.479167,0.640625 0.322917,0.640625 L 2.239583,-1.92229 1.921875,-1.120206 1.4375,-0.64104 0.802083,-0.161873 Z m 0,0"
       transform="matrix(0.75,0,0,0.75,141,88.679999)"
       id="path190"
       inkscape:connector-curvature="0" />
    <path
       style="fill:#ff0000;fill-opacity:1;fill-rule:evenodd;stroke:#000000;stroke-width:0.95999998;stroke-linecap:round;stroke-linejoin:round;stroke-miterlimit:10;stroke-opacity:1"
       d="M 4.06667e-4,-0.00145433 1.281657,0.160004 l 1.598958,0.317708 1.28125,0.484375 2.239583,1.916667 0.796875,1.28125 0.640625,1.4375 0.479167,1.28125 v 25.921875 l -0.479167,1.4375 -0.640625,1.28125 -0.796875,1.119792 -1.119791,1.119791 -1.119792,0.802084 -1.28125,0.796875 -1.598958,0.161458 -1.281250333,0.161458 H -80.801677 l -1.4375,-0.161458 -1.598958,-0.161458 -1.119792,-0.796875 -1.28125,-0.802084 -1.119791,-1.119791 -0.802084,-1.119792 -0.640625,-1.28125 -0.317708,-1.4375 -0.161458,-1.442708 V 8.477712 l 0.161458,-1.598958 0.317708,-1.28125 0.640625,-1.4375 0.802084,-1.28125 1.119791,-0.958333 1.28125,-0.958334 1.119792,-0.484375 1.598958,-0.317708 1.28125,-0.16145833 z m 0,0"
       transform="matrix(0.75,0,0,0.75,208.32001,71.879997)"
       id="path192"
       inkscape:connector-curvature="0" />
    <path
       style="fill:#ffffff;fill-opacity:1;fill-rule:evenodd;stroke:none"
       d="m 145.19922,88.320312 c 0.35937,0 0.72265,-0.121093 1.08203,-0.121093 0,0.480469 0.11719,0.839843 0.23828,1.082031 0.24219,0.238281 0.48047,0.480469 0.83984,0.71875 0.35938,0.121094 0.83985,0.238281 1.19922,0.238281 0.48047,0 0.83985,-0.117187 1.08203,-0.238281 0.35938,-0.121094 0.59766,-0.238281 0.71875,-0.480469 0.1211,-0.238281 0.24219,-0.480469 0.24219,-0.71875 0,-0.359375 -0.12109,-0.601562 -0.24219,-0.722656 -0.12109,-0.238281 -0.35937,-0.359375 -0.71875,-0.597656 -0.24218,0 -0.71875,-0.242188 -1.4414,-0.359375 -0.71875,-0.242188 -1.19922,-0.359375 -1.5586,-0.601563 -0.35937,-0.121093 -0.60156,-0.480469 -0.83984,-0.71875 -0.12109,-0.359375 -0.24219,-0.722656 -0.24219,-1.082031 0,-0.480469 0.1211,-0.839844 0.36328,-1.320312 0.23829,-0.359376 0.59766,-0.597657 0.95704,-0.839844 0.48046,-0.117188 0.96093,-0.238282 1.4414,-0.238282 0.60156,0 1.19922,0.121094 1.67969,0.238282 0.35937,0.242187 0.71875,0.601562 0.96094,0.960937 0.23828,0.359375 0.35937,0.839844 0.48047,1.320313 -0.36329,0.121094 -0.72266,0.121094 -1.08204,0.121094 0,-0.601563 -0.23828,-0.960938 -0.59765,-1.199219 -0.24219,-0.363281 -0.72266,-0.480469 -1.32031,-0.480469 -0.72266,0 -1.08204,0.117188 -1.44141,0.359375 -0.23828,0.238281 -0.48047,0.597656 -0.48047,0.960937 0,0.359376 0.12109,0.597657 0.35938,0.71875 0.24218,0.238282 0.72265,0.480469 1.5625,0.71875 0.95703,0.121094 1.4375,0.359376 1.79687,0.480469 0.48047,0.242188 0.83984,0.601563 1.08203,0.839844 0.23828,0.359375 0.35938,0.839844 0.35938,1.320313 0,0.480468 -0.1211,0.839843 -0.48047,1.320312 -0.23828,0.359375 -0.48047,0.71875 -0.96094,0.839844 -0.47656,0.238281 -0.95703,0.359375 -1.55859,0.359375 -0.71875,0 -1.32032,-0.121094 -1.80078,-0.359375 -0.48047,-0.121094 -0.95704,-0.480469 -1.19922,-0.960938 -0.23828,-0.480468 -0.35938,-0.957031 -0.48047,-1.558594 z m 0,0"
       id="path194"
       inkscape:connector-curvature="0" />
    <path
       style="fill:#ffffff;fill-opacity:1;fill-rule:evenodd;stroke:none"
       d="m 153.12109,91.078125 c 0,-2.878906 0,-5.757813 0,-8.636719 0.95703,0 1.91797,0 3,0 0.48047,0 0.95703,0 1.19922,0.117188 0.35938,0 0.71875,0.121094 0.96094,0.363281 0.23828,0.238281 0.48047,0.476563 0.71875,0.839844 0.12109,0.359375 0.23828,0.71875 0.23828,1.199219 0,0.71875 -0.23828,1.320312 -0.71875,1.800781 -0.35937,0.597656 -1.19922,0.839843 -2.28125,0.839843 -0.71875,0 -1.4375,0 -2.16016,0 0,1.199219 0,2.277344 0,3.476563 -0.23828,0 -0.59765,0 -0.95703,0 z m 0.95703,-4.558594 c 0.72266,0 1.44141,0 2.16016,0 0.60156,0 1.08203,-0.121093 1.44141,-0.359375 0.24218,-0.238281 0.35937,-0.71875 0.35937,-1.199218 0,-0.359376 0,-0.601563 -0.23828,-0.960938 -0.12109,-0.238281 -0.35937,-0.359375 -0.60156,-0.480469 -0.23828,0 -0.48047,0 -0.96094,0 -0.71875,0 -1.4375,0 -2.16016,0 0,0.960938 0,2.039063 0,3 z m 0,0"
       id="path196"
       inkscape:connector-curvature="0" />
    <path
       style="fill:none;stroke:#ffffff;stroke-width:0.31999999;stroke-linecap:round;stroke-linejoin:round;stroke-miterlimit:10;stroke-opacity:1"
       d="M -0.00104767,4.14667e-4 C 0.478119,4.14667e-4 0.962494,-0.161044 1.441661,-0.161044 c 0,0.640625 0.15625,1.119792 0.317708,1.442709 0.322917,0.317708 0.640625,0.640625 1.119792,0.958333 0.479166,0.161458 1.119791,0.317708 1.598958,0.317708 0.640625,0 1.119792,-0.15625 1.442708,-0.317708 C 6.399994,2.07854 6.717702,1.92229 6.879161,1.599373 7.040619,1.281665 7.202077,0.958748 7.202077,0.64104 c 0,-0.479167 -0.161458,-0.802084 -0.322916,-0.963542 -0.161459,-0.317708 -0.479167,-0.479167 -0.958334,-0.796875 -0.322916,0 -0.958333,-0.322917 -1.921875,-0.479167 C 3.040619,-1.92146 2.399994,-2.07771 1.920827,-2.400627 1.441661,-2.562085 1.118744,-3.041252 0.801036,-3.35896 0.639577,-3.838127 0.478119,-4.322502 0.478119,-4.801669 c 0,-0.640625 0.161458,-1.119791 0.484375,-1.760416 0.317708,-0.479167 0.796875,-0.796875 1.276042,-1.119792 0.640625,-0.15625 1.28125,-0.317708 1.921875,-0.317708 0.802083,0 1.598958,0.161458 2.239583,0.317708 0.479167,0.322917 0.958333,0.802083 1.28125,1.28125 0.317708,0.479167 0.479167,1.119792 0.640625,1.760417 -0.484375,0.161458 -0.963542,0.161458 -1.442708,0.161458 0,-0.802083 -0.317709,-1.28125 -0.796875,-1.598958 -0.322917,-0.484375 -0.963542,-0.640625 -1.760417,-0.640625 -0.963542,0 -1.442708,0.15625 -1.921875,0.479166 -0.317708,0.317709 -0.640625,0.796875 -0.640625,1.28125 0,0.479167 0.161458,0.796875 0.479167,0.958334 0.322916,0.317708 0.963541,0.640625 2.083333,0.958333 1.276042,0.161458 1.916667,0.479167 2.395833,0.640625 0.640625,0.322917 1.119792,0.802083 1.442709,1.119792 0.317708,0.479166 0.479166,1.119791 0.479166,1.760416 0,0.640625 -0.161458,1.119792 -0.640625,1.760417 C 7.681244,2.719165 7.358327,3.198331 6.717702,3.35979 6.082286,3.677498 5.441661,3.838956 4.639577,3.838956 3.681244,3.838956 2.879161,3.677498 2.238536,3.35979 1.597911,3.198331 0.962494,2.719165 0.639577,2.07854 0.321869,1.437915 0.160411,0.802498 -0.00104767,4.14667e-4"
       transform="matrix(0.75,0,0,0.75,145.2,88.320002)"
       id="path198"
       inkscape:connector-curvature="0" />
    <path
       style="fill:none;stroke:#ffffff;stroke-width:0.31999999;stroke-linecap:round;stroke-linejoin:round;stroke-miterlimit:10;stroke-opacity:1"
       d="m 0.00145433,-0.002502 c 0,-3.838542 0,-7.677083 0,-11.515625 1.27604167,0 2.55729167,0 3.99999967,0 0.640625,0 1.276042,0 1.598959,0.15625 0.479166,0 0.958333,0.161458 1.28125,0.484375 0.317708,0.317708 0.640625,0.635417 0.958333,1.119792 0.161458,0.479166 0.317708,0.958333 0.317708,1.598958 0,0.958333 -0.317708,1.760417 -0.958333,2.401042 -0.479167,0.796875 -1.598958,1.119791 -3.041667,1.119791 -0.958333,0 -1.916666,0 -2.880208,0 0,1.598959 0,3.036459 0,4.635417 -0.317708,0 -0.796875,0 -1.27604167,0 z M 1.277496,-6.080627 c 0.963542,0 1.921875,0 2.880208,0 0.802084,0 1.442709,-0.161458 1.921875,-0.479167 0.322917,-0.317708 0.479167,-0.958333 0.479167,-1.598958 0,-0.479167 0,-0.802083 -0.317708,-1.28125 -0.161459,-0.317708 -0.479167,-0.479167 -0.802084,-0.640625 -0.317708,0 -0.640625,0 -1.28125,0 -0.958333,0 -1.916666,0 -2.880208,0 0,1.28125 0,2.71875 0,4 z m 0,0"
       transform="matrix(0.75,0,0,0.75,153.12,91.080002)"
       id="path200"
       inkscape:connector-curvature="0" />
    <path
       style="fill:#000000;fill-opacity:1;fill-rule:evenodd;stroke:none"
       d="m 163.92187,88.078125 c 0.23829,0 0.59766,-0.117187 0.83985,-0.117187 0,0.480468 0,0.839843 0.11719,1.078124 0.12109,0.242188 0.35937,0.480469 0.60156,0.722657 C 165.83984,89.878906 166.07812,90 166.55859,90 c 0.24219,0 0.60157,-0.121094 0.83985,-0.238281 0.36328,-0.121094 0.48047,-0.242188 0.72265,-0.480469 0.11719,-0.242188 0.23828,-0.480469 0.23828,-0.839844 0,-0.242187 0,-0.480468 -0.12109,-0.601562 -0.11719,-0.238282 -0.23828,-0.480469 -0.47656,-0.601563 -0.24219,0 -0.60156,-0.238281 -1.20313,-0.359375 -0.59765,-0.238281 -0.95703,-0.359375 -1.19922,-0.597656 -0.35937,-0.242188 -0.48046,-0.480469 -0.59765,-0.722656 -0.1211,-0.359375 -0.24219,-0.71875 -0.1211,-1.078125 0,-0.480469 0.1211,-0.839844 0.35938,-1.320313 0.23828,-0.359375 0.60156,-0.601562 0.96094,-0.839844 0.48047,-0.121093 0.83984,-0.242187 1.32031,-0.242187 0.48047,0 0.95703,0.121094 1.32031,0.242187 0.35938,0.238282 0.59766,0.601563 0.71875,0.960938 0.1211,0.359375 0.23828,0.839844 0.1211,1.320312 -0.24219,0 -0.48047,0.117188 -0.83985,0.117188 0,-0.597656 -0.12109,-0.957031 -0.24219,-1.199219 -0.23828,-0.359375 -0.71875,-0.480469 -1.19921,-0.480469 -0.48047,0 -0.96094,0.121094 -1.19922,0.359376 -0.24219,0.242187 -0.48047,0.601562 -0.48047,0.960937 0,0.359375 0,0.601563 0.12109,0.71875 0.23828,0.242187 0.59766,0.480469 1.32031,0.601563 0.71875,0.242187 1.19922,0.480468 1.4375,0.601562 0.35938,0.238281 0.60157,0.480469 0.71875,0.839844 0.1211,0.359375 0.24219,0.839844 0.1211,1.320312 0,0.480469 -0.23828,0.839844 -0.48047,1.199219 -0.23828,0.480469 -0.59766,0.839844 -0.95703,0.960937 -0.36328,0.238282 -0.83985,0.359376 -1.32031,0.359376 -0.60157,0 -1.08204,-0.121094 -1.5625,-0.359376 -0.35938,-0.242187 -0.59766,-0.480468 -0.83985,-0.960937 -0.11719,-0.480469 -0.23828,-0.960937 -0.11719,-1.5625 z m 0,0"
       id="path202"
       inkscape:connector-curvature="0" />
    <path
       style="fill:#000000;fill-opacity:1;fill-rule:evenodd;stroke:none"
       d="m 170.16016,90.839844 c 0.35937,-2.878906 0.71875,-5.761719 1.07812,-8.640625 0.83984,0 1.68359,0 2.52344,0 0.47656,0 0.71875,0 0.95703,0.121093 0.35937,0 0.60156,0.121094 0.83984,0.359376 0.1211,0.242187 0.36328,0.480468 0.36328,0.839843 0.11719,0.359375 0.11719,0.71875 0.11719,1.199219 -0.11719,0.722656 -0.35937,1.320312 -0.83984,1.800781 -0.35938,0.601563 -1.07813,0.839844 -2.03906,0.839844 -0.60157,0 -1.08204,0 -1.67969,0 -0.1211,1.082031 -0.35938,2.28125 -0.48047,3.480469 -0.23828,0 -0.60156,0 -0.83984,0 z m 1.4414,-4.558594 c 0.59766,0 1.19922,0 1.67969,0 0.59766,0 1.07812,-0.121094 1.32031,-0.359375 0.23828,-0.363281 0.47656,-0.722656 0.47656,-1.203125 0.1211,-0.359375 0,-0.71875 -0.11718,-0.957031 0,-0.242188 -0.24219,-0.363281 -0.48047,-0.480469 -0.1211,0 -0.35938,-0.121094 -0.83985,-0.121094 -0.48046,0 -1.08203,0 -1.67968,0 -0.1211,1.078125 -0.24219,2.160156 -0.35938,3.121094 z m 0,0"
       id="path204"
       inkscape:connector-curvature="0" />
    <path
       style="fill:#000000;fill-opacity:1;fill-rule:evenodd;stroke:none"
       d="m 176.39844,90.839844 c 0.36328,-2.878906 0.72265,-5.761719 1.08203,-8.640625 1.67969,0 3.23828,0 4.91797,0 -0.11719,0.359375 -0.11719,0.722656 -0.11719,0.960937 -1.32031,0 -2.64063,0 -4.08203,0 0,0.960938 -0.1211,1.800782 -0.23828,2.761719 1.19922,0 2.39843,0 3.71875,0 -0.1211,0.238281 -0.1211,0.597656 -0.1211,0.957031 -1.32031,0 -2.51953,0 -3.71875,0 -0.12109,0.960938 -0.23828,1.921875 -0.35937,3 1.32031,0 2.75781,0 4.07812,0 0,0.242188 0,0.601563 -0.11718,0.960938 -1.67969,0 -3.36329,0 -5.04297,0 z m 0,0"
       id="path206"
       inkscape:connector-curvature="0" />
    <path
       style="fill:#000000;fill-opacity:1;fill-rule:evenodd;stroke:none"
       d="m 181.92187,90.839844 c 1.19922,-2.878906 2.51954,-5.761719 3.71875,-8.640625 0.23829,0 0.59766,0 0.96094,0 0.47656,2.878906 1.07813,5.761719 1.67969,8.640625 -0.35938,0 -0.72266,0 -1.08203,0 -0.1211,-0.839844 -0.23828,-1.800782 -0.48047,-2.640625 -0.83984,0 -1.79688,0 -2.75781,0 -0.35938,0.839843 -0.72266,1.800781 -1.08203,2.640625 -0.23829,0 -0.59766,0 -0.95704,0 z m 2.39844,-3.601563 c 0.71875,0 1.5586,0 2.28125,0 -0.12109,-0.71875 -0.24219,-1.558593 -0.36328,-2.398437 C 186.12109,84.121094 186,83.519531 186,83.160156 c -0.23828,0.480469 -0.35938,1.078125 -0.60156,1.558594 -0.35938,0.839844 -0.71875,1.679688 -1.07813,2.519531 z m 0,0"
       id="path208"
       inkscape:connector-curvature="0" />
    <path
       style="fill:#000000;fill-opacity:1;fill-rule:evenodd;stroke:none"
       d="m 188.87891,90.839844 c 0.35937,-2.878906 0.72265,-5.761719 1.08203,-8.640625 0.35937,0 0.59765,0 0.96093,0 -0.24218,1.441406 -0.36328,2.878906 -0.60156,4.320312 1.32031,-1.441406 2.64063,-2.878906 3.96094,-4.320312 0.35937,0 0.71875,0 1.19922,0 -1.08203,1.199219 -2.28125,2.28125 -3.35938,3.480469 0.83985,1.800781 1.67969,3.480468 2.39844,5.160156 -0.35937,0 -0.83984,0 -1.19922,0 -0.60156,-1.441406 -1.19922,-2.878906 -1.92187,-4.320313 -0.35938,0.359375 -0.83985,0.839844 -1.19922,1.320313 -0.1211,0.960937 -0.23828,2.039062 -0.35938,3 -0.35937,0 -0.60156,0 -0.96093,0 z m 0,0"
       id="path210"
       inkscape:connector-curvature="0" />
    <path
       style="fill:#000000;fill-opacity:1;fill-rule:evenodd;stroke:none"
       d="m 195.23828,90.839844 c 0.36328,-2.878906 0.72266,-5.761719 1.08203,-8.640625 1.67969,0 3.23828,0 4.91797,0 -0.11719,0.359375 -0.11719,0.722656 -0.11719,0.960937 -1.4414,0 -2.76172,0 -4.08203,0 -0.11719,0.960938 -0.11719,1.800782 -0.23828,2.761719 1.19922,0 2.39844,0 3.71875,0 -0.12109,0.238281 -0.12109,0.597656 -0.12109,0.957031 -1.32032,0 -2.51953,0 -3.71875,0 -0.1211,0.960938 -0.23828,1.921875 -0.35938,3 1.32031,0 2.75781,0 4.07813,0 0,0.242188 -0.11719,0.601563 -0.11719,0.960938 -1.67969,0 -3.35938,0 -5.04297,0 z m 0,0"
       id="path212"
       inkscape:connector-curvature="0" />
    <path
       style="fill:#000000;fill-opacity:1;fill-rule:evenodd;stroke:none"
       d="m 201.48047,90.839844 c 0.35937,-2.878906 0.71875,-5.761719 1.07812,-8.640625 1.08203,0 2.04297,0 3,0 0.60157,0 1.08203,0.121093 1.32032,0.242187 0.35937,0.117188 0.60156,0.359375 0.72265,0.839844 0.11719,0.359375 0.11719,0.839844 0.11719,1.320312 -0.11719,0.597657 -0.35938,1.078126 -0.71875,1.558594 -0.35938,0.359375 -0.83984,0.601563 -1.55859,0.71875 0.23828,0.121094 0.48046,0.359375 0.59765,0.480469 0.1211,0.242187 0.35938,0.71875 0.60156,1.082031 0.23829,0.839844 0.59766,1.558594 0.83985,2.398438 -0.35938,0 -0.71875,0 -1.08203,0 -0.23828,-0.601563 -0.47657,-1.199219 -0.71875,-1.800782 -0.23828,-0.480468 -0.35938,-0.960937 -0.48047,-1.199218 -0.1211,-0.238282 -0.23828,-0.480469 -0.35938,-0.601563 -0.12109,-0.117187 -0.23828,-0.117187 -0.48047,-0.238281 0,0 -0.23828,0 -0.48046,0 -0.23829,0 -0.59766,0 -0.95704,0 -0.24218,1.320312 -0.36328,2.519531 -0.48046,3.839844 -0.36329,0 -0.60157,0 -0.96094,0 z m 1.55859,-4.800782 c 0.60156,0 1.19922,0 1.92188,0 0.35937,0 0.71875,-0.117187 0.96093,-0.238281 0.23829,-0.121093 0.47657,-0.242187 0.59766,-0.480469 0.12109,-0.242187 0.24219,-0.480468 0.24219,-0.71875 0,-0.480468 0,-0.839843 -0.24219,-1.082031 -0.12109,-0.238281 -0.48047,-0.359375 -1.07812,-0.359375 -0.60157,0 -1.32032,0 -2.04297,0 -0.11719,0.960938 -0.23828,1.917969 -0.35938,2.878906 z m 0,0"
       id="path214"
       inkscape:connector-curvature="0" />
    <path
       style="fill:none;stroke:#000000;stroke-width:0.5;stroke-linecap:round;stroke-linejoin:round;stroke-miterlimit:10;stroke-opacity:1"
       d="m 0.002502,-0.002502 c 0.317708,0 0.796875,-0.15625 1.119792,-0.15625 0,0.640625 0,1.119792 0.15625,1.4375 0.161458,0.322917 0.479166,0.640625 0.802083,0.963542 0.479167,0.15625 0.796875,0.317708 1.4375,0.317708 0.322917,0 0.802083,-0.161458 1.119792,-0.317708 C 5.122294,2.080831 5.278544,1.919373 5.60146,1.601665 5.75771,1.278748 5.919169,0.96104 5.919169,0.481873 c 0,-0.322917 0,-0.640625 -0.161459,-0.802083 C 5.60146,-0.637919 5.440002,-0.960835 5.122294,-1.122294 4.799377,-1.122294 4.32021,-1.440002 3.518127,-1.60146 2.721252,-1.919169 2.242085,-2.080627 1.919169,-2.398335 1.440002,-2.721252 1.278544,-3.03896 1.122294,-3.361877 0.960835,-3.841044 0.799377,-4.32021 0.960835,-4.799377 c 0,-0.640625 0.161459,-1.119792 0.479167,-1.760417 0.317708,-0.479166 0.802083,-0.802083 1.28125,-1.119791 0.640625,-0.161459 1.119792,-0.322917 1.760417,-0.322917 0.640625,0 1.276041,0.161458 1.760416,0.322917 0.479167,0.317708 0.796875,0.802083 0.958334,1.28125 0.161458,0.479166 0.317708,1.119791 0.161458,1.760416 -0.322917,0 -0.640625,0.15625 -1.119792,0.15625 0,-0.796875 -0.161458,-1.276041 -0.322916,-1.598958 C 5.60146,-6.559794 4.960835,-6.721252 4.32021,-6.721252 c -0.640625,0 -1.28125,0.161458 -1.598958,0.479167 -0.322917,0.322916 -0.640625,0.802083 -0.640625,1.28125 0,0.479166 0,0.802083 0.161458,0.958333 0.317709,0.322917 0.796875,0.640625 1.760417,0.802083 0.958333,0.322917 1.598958,0.640625 1.916667,0.802084 0.479166,0.317708 0.802083,0.640625 0.958333,1.119791 0.161458,0.479167 0.322917,1.119792 0.161458,1.760417 0,0.640625 -0.317708,1.119792 -0.640625,1.598958 C 6.080627,2.721456 5.60146,3.200623 5.122294,3.362081 4.637919,3.67979 4.002502,3.841248 3.361877,3.841248 2.559794,3.841248 1.919169,3.67979 1.278544,3.362081 0.799377,3.039165 0.481669,2.721456 0.158752,2.080831 0.002502,1.440206 -0.158956,0.799581 0.002502,-0.002502"
       transform="matrix(0.75,0,0,0.75,163.92,88.080002)"
       id="path216"
       inkscape:connector-curvature="0" />
    <path
       style="fill:none;stroke:#000000;stroke-width:0.5;stroke-linecap:round;stroke-linejoin:round;stroke-miterlimit:10;stroke-opacity:1"
       d="M 2.03333e-4,-2.11333e-4 C 0.47937,-3.838753 0.958537,-7.682503 1.437703,-11.521045 c 1.119792,0 2.244792,0 3.364584,0 0.635416,0 0.958333,0 1.276041,0.161459 0.479167,0 0.802084,0.161458 1.119792,0.479166 0.161458,0.322917 0.484375,0.640625 0.484375,1.119792 0.15625,0.479167 0.15625,0.958333 0.15625,1.598958 -0.15625,0.963542 -0.479167,1.760417 -1.119792,2.401042 -0.479166,0.802083 -1.4375,1.119792 -2.71875,1.119792 -0.802083,0 -1.442708,0 -2.239583,0 -0.161458,1.442708 -0.479167,3.041666 -0.640625,4.640624667 -0.317708,0 -0.802083,0 -1.119791667,0 z M 1.922078,-6.078336 c 0.796875,0 1.598959,0 2.239584,0 0.796875,0 1.4375,-0.161459 1.760416,-0.479167 0.317709,-0.484375 0.635417,-0.963542 0.635417,-1.604167 0.161458,-0.479166 0,-0.958333 -0.15625,-1.276041 0,-0.322917 -0.322917,-0.484375 -0.640625,-0.640625 -0.161458,0 -0.479167,-0.161459 -1.119792,-0.161459 -0.640625,0 -1.442708,0 -2.239583,0 -0.161458,1.4375 -0.322917,2.880209 -0.479167,4.161459 z m 0,0"
       transform="matrix(0.75,0,0,0.75,170.16,90.840002)"
       id="path218"
       inkscape:connector-curvature="0" />
    <path
       style="fill:none;stroke:#000000;stroke-width:0.5;stroke-linecap:round;stroke-linejoin:round;stroke-miterlimit:10;stroke-opacity:1"
       d="M -0.00208033,-2.11333e-4 C 0.482295,-3.838753 0.961461,-7.682503 1.440628,-11.521045 c 2.239583,0 4.317708,0 6.557292,0 -0.15625,0.479167 -0.15625,0.963542 -0.15625,1.28125 -1.760417,0 -3.520834,0 -5.442709,0 0,1.28125 -0.161458,2.401042 -0.317708,3.682292 1.598958,0 3.197917,0 4.958333,0 -0.161458,0.317708 -0.161458,0.796875 -0.161458,1.276042 -1.760417,0 -3.359375,0 -4.958333,0 -0.161459,1.28125 -0.317709,2.5625 -0.479167,4 1.760417,0 3.677083,0 5.4375,0 0,0.322916 0,0.802083 -0.15625,1.281249667 -2.239583,0 -4.484375,0 -6.72395833,0"
       transform="matrix(0.75,0,0,0.75,176.4,90.840002)"
       id="path220"
       inkscape:connector-curvature="0" />
    <path
       style="fill:none;stroke:#000000;stroke-width:0.5;stroke-linecap:round;stroke-linejoin:round;stroke-miterlimit:10;stroke-opacity:1"
       d="M 0.002502,-2.11333e-4 C 1.60146,-3.838753 3.361877,-7.682503 4.960835,-11.521045 c 0.317709,0 0.796875,0 1.28125,0 0.635417,3.838542 1.4375,7.682292 2.239584,11.520833667 -0.479167,0 -0.963542,0 -1.442709,0 C 6.877502,-1.120003 6.721252,-2.401253 6.398335,-3.521045 c -1.119791,0 -2.395833,0 -3.677083,0 -0.479167,1.119792 -0.963542,2.401042 -1.442708,3.520833667 -0.317709,0 -0.796875,0 -1.276042,0 z M 3.200419,-4.802295 c 0.958333,0 2.078125,0 3.041666,0 C 6.080627,-5.760628 5.919169,-6.88042 5.75771,-8.000211 5.60146,-8.958545 5.440002,-9.760628 5.440002,-10.239795 c -0.317708,0.640625 -0.479167,1.4375 -0.802083,2.078125 -0.479167,1.119792 -0.958334,2.239584 -1.4375,3.359375 z m 0,0"
       transform="matrix(0.75,0,0,0.75,181.92,90.840002)"
       id="path222"
       inkscape:connector-curvature="0" />
    <path
       style="fill:none;stroke:#000000;stroke-width:0.5;stroke-linecap:round;stroke-linejoin:round;stroke-miterlimit:10;stroke-opacity:1"
       d="M -0.00145433,-2.11333e-4 C 0.477712,-3.838753 0.962087,-7.682503 1.441254,-11.521045 c 0.479167,0 0.796875,0 1.28125,0 -0.322917,1.921875 -0.484375,3.838542 -0.802083,5.760417 1.760416,-1.921875 3.520833,-3.838542 5.28125,-5.760417 0.479166,0 0.958333,0 1.598958,0 -1.442708,1.598959 -3.041667,3.041667 -4.479167,4.640625 1.119792,2.401042 2.239584,4.640625 3.197917,6.880208667 -0.479167,0 -1.119792,0 -1.598958,0 C 5.118337,-1.922086 4.321462,-3.838753 3.357921,-5.760628 c -0.479167,0.479167 -1.119792,1.119792 -1.598959,1.760417 -0.161458,1.28125 -0.317708,2.71875 -0.479166,3.999999667 -0.479167,0 -0.802084,0 -1.28125033,0"
       transform="matrix(0.75,0,0,0.75,188.88,90.840002)"
       id="path224"
       inkscape:connector-curvature="0" />
    <path
       style="fill:none;stroke:#000000;stroke-width:0.5;stroke-linecap:round;stroke-linejoin:round;stroke-miterlimit:10;stroke-opacity:1"
       d="M -0.00229867,-2.11333e-4 C 0.482076,-3.838753 0.961243,-7.682503 1.44041,-11.521045 c 2.239583,0 4.317708,0 6.557291,0 -0.15625,0.479167 -0.15625,0.963542 -0.15625,1.28125 -1.921875,0 -3.682291,0 -5.442708,0 -0.15625,1.28125 -0.15625,2.401042 -0.317708,3.682292 1.598958,0 3.197916,0 4.958333,0 -0.161458,0.317708 -0.161458,0.796875 -0.161458,1.276042 -1.760417,0 -3.359375,0 -4.958334,0 -0.161458,1.28125 -0.317708,2.5625 -0.479166,4 1.760416,0 3.677083,0 5.4375,0 0,0.322916 -0.15625,0.802083 -0.15625,1.281249667 -2.239584,0 -4.479167,0 -6.72395867,0"
       transform="matrix(0.75,0,0,0.75,195.24,90.840002)"
       id="path226"
       inkscape:connector-curvature="0" />
    <path
       style="fill:none;stroke:#000000;stroke-width:0.5;stroke-linecap:round;stroke-linejoin:round;stroke-miterlimit:10;stroke-opacity:1"
       d="M 6.1e-4,-2.11333e-4 C 0.479777,-3.838753 0.958943,-7.682503 1.43811,-11.521045 c 1.442708,0 2.723958,0 4,0 0.802083,0 1.442708,0.161459 1.760417,0.322917 0.479166,0.15625 0.802083,0.479167 0.963541,1.119792 0.15625,0.479166 0.15625,1.119791 0.15625,1.760416 -0.15625,0.796875 -0.479166,1.4375 -0.958333,2.078125 -0.479167,0.479167 -1.119792,0.802084 -2.078125,0.958334 0.317708,0.161458 0.640625,0.479166 0.796875,0.640625 0.161458,0.322916 0.479167,0.958333 0.802083,1.442708 0.317709,1.119792 0.796875,2.078125 1.119792,3.197916667 -0.479167,0 -0.958333,0 -1.442708,0 C 6.240193,-0.802295 5.922485,-1.59917 5.599568,-2.401253 5.28186,-3.041878 5.120402,-3.682503 4.958943,-4.000211 4.797485,-4.31792 4.641235,-4.640836 4.479777,-4.802295 4.318318,-4.958545 4.162068,-4.958545 3.839152,-5.120003 c 0,0 -0.317709,0 -0.640625,0 -0.317709,0 -0.796875,0 -1.276042,0 -0.322917,1.760417 -0.484375,3.359375 -0.640625,5.119791667 -0.484375,0 -0.802083,0 -1.28125,0 z M 2.078735,-6.401253 c 0.802083,0 1.598958,0 2.5625,0 0.479167,0 0.958333,-0.15625 1.28125,-0.317708 0.317708,-0.161459 0.635417,-0.322917 0.796875,-0.640625 0.161458,-0.322917 0.322917,-0.640625 0.322917,-0.958334 0,-0.640625 0,-1.119791 -0.322917,-1.442708 -0.161458,-0.317708 -0.640625,-0.479167 -1.4375,-0.479167 -0.802083,0 -1.760417,0 -2.723958,0 -0.15625,1.28125 -0.317709,2.557292 -0.479167,3.838542 z m 0,0"
       transform="matrix(0.75,0,0,0.75,201.48001,90.840002)"
       id="path228"
       inkscape:connector-curvature="0" />
  </g>
</svg>
