<?xml version="1.0" encoding="UTF-8" standalone="no"?>
<svg
   xmlns:dc="http://purl.org/dc/elements/1.1/"
   xmlns:cc="http://creativecommons.org/ns#"
   xmlns:rdf="http://www.w3.org/1999/02/22-rdf-syntax-ns#"
   xmlns:svg="http://www.w3.org/2000/svg"
   xmlns="http://www.w3.org/2000/svg"
   xmlns:sodipodi="http://sodipodi.sourceforge.net/DTD/sodipodi-0.dtd"
   xmlns:inkscape="http://www.inkscape.org/namespaces/inkscape"
   id="svg231"
   version="1.2"
   viewBox="0 0 547.5 262.5"
   height="350"
   width="730"
   sodipodi:docname="whistle-chip-minimal.svg"
   inkscape:version="0.92.4 (unknown)">
  <sodipodi:namedview
     pagecolor="#ffffff"
     bordercolor="#666666"
     borderopacity="1"
     objecttolerance="10"
     gridtolerance="10"
     guidetolerance="10"
     inkscape:pageopacity="0"
     inkscape:pageshadow="2"
     inkscape:window-width="1920"
     inkscape:window-height="1020"
     id="namedview120"
     showgrid="false"
     inkscape:zoom="1.2166111"
     inkscape:cx="249.91653"
     inkscape:cy="192.37999"
     inkscape:window-x="0"
     inkscape:window-y="31"
     inkscape:window-maximized="1"
     inkscape:current-layer="svg231" />
  <metadata
     id="metadata237">
    <rdf:RDF>
      <cc:Work
         rdf:about="">
        <dc:format>image/svg+xml</dc:format>
        <dc:type
           rdf:resource="http://purl.org/dc/dcmitype/StillImage" />
        <dc:title />
      </cc:Work>
    </rdf:RDF>
  </metadata>
  <defs
     id="defs235" />
  <g
     id="g1402">
    <g
       id="g1298">
      <path
         inkscape:connector-curvature="0"
         style="fill:#ffff00;fill-opacity:1;fill-rule:evenodd;stroke:#000000;stroke-width:1.66499424;stroke-linecap:round;stroke-linejoin:round;stroke-miterlimit:10;stroke-opacity:1"
         d="m 180.64961,243.50072 -2.49316,-0.28003 -2.77318,-0.55102 -2.22216,-1.11108 -2.22216,-1.39111 -1.66211,-1.94213 -1.67113,-1.94213 -1.10205,-2.22216 -0.84009,-2.49316 V 43.695986 l 0.84009,-2.213141 1.10205,-2.502175 1.67113,-2.22216 1.66211,-1.662115 2.22216,-1.391103 2.22216,-1.102053 2.77318,-0.560045 2.49316,-0.280031 h 186.20078 l 2.50219,0.280031 2.49315,0.560045 2.5022,1.102053 1.94213,1.391103 1.94212,1.662115 1.39112,2.22216 1.10204,2.502175 0.84009,2.213141 0.271,2.502175 V 229.06571 l -0.271,2.50219 -0.84009,2.49316 -1.10204,2.22216 -1.39112,1.94213 -1.94212,1.94213 -1.94213,1.39111 -2.22216,1.11108 -2.77319,0.55102 -2.50219,0.28003 z m 0,0"
         id="path2" />
      <path
         inkscape:connector-curvature="0"
         style="fill:#dedede;fill-opacity:1;fill-rule:evenodd;stroke:none;stroke-width:2.31249213"
         d="m 190.6403,237.67433 v -21.09247 h -0.55102 l -0.28002,21.09247 z m 0,0"
         id="path52" />
      <path
         inkscape:connector-curvature="0"
         style="fill:#dedede;fill-opacity:1;fill-rule:evenodd;stroke:none;stroke-width:2.31249213"
         d="m 189.80926,237.67433 0.28002,-21.09247 h -0.83104 v 21.09247 z m 0,0"
         id="path54" />
      <path
         inkscape:connector-curvature="0"
         style="fill:#ffffff;fill-opacity:1;fill-rule:evenodd;stroke:none;stroke-width:2.31249213"
         d="m 194.52457,227.12359 -0.271,2.50218 -0.84008,1.94213 -1.10204,1.94212 -1.39111,1.6621 -1.94214,1.11109 -2.22217,0.83106 -2.22214,0.56006 h -2.49317 l -2.22217,-0.8401 -1.94212,-0.83104 -1.94212,-1.66211 -1.39113,-1.6621 -0.83104,-2.22217 -0.55102,-2.22216 -0.28004,-1.94213 0.83106,-2.49314 0.83104,-1.94215 1.39113,-1.94212 1.6621,-1.3911 2.22214,-1.11109 2.22217,-0.55102 2.22217,-0.28004 2.49314,0.55102 2.22217,0.56006 1.94214,1.38209 1.39111,1.94212 1.10204,1.67115 0.84008,2.22214 z m 0,0"
         id="path56" />
      <path
         inkscape:connector-curvature="0"
         style="fill:#dedede;fill-opacity:1;fill-rule:evenodd;stroke:none;stroke-width:2.31249213"
         d="m 190.6403,237.67433 v -21.09247 h -0.55102 l -0.28002,21.09247 z m 0,0"
         id="path58" />
      <path
         inkscape:connector-curvature="0"
         style="fill:#dedede;fill-opacity:1;fill-rule:evenodd;stroke:none;stroke-width:2.31249213"
         d="m 189.80926,237.67433 0.28002,-21.09247 h -0.83104 v 21.09247 z m 0,0"
         id="path60" />
      <path
         inkscape:connector-curvature="0"
         style="fill:none;stroke:#000000;stroke-width:1.38749528;stroke-linecap:round;stroke-linejoin:round;stroke-miterlimit:10;stroke-opacity:1"
         d="m 194.52456,227.12359 -0.271,2.50219 -0.84008,1.94213 -1.10205,1.94213 -1.39111,1.6621 -1.94213,1.11109 -2.22216,0.83105 -2.22216,0.56005 h -2.49316 l -2.22216,-0.84008 -1.94213,-0.83105 -1.94213,-1.66211 -1.39111,-1.6621 -0.83105,-2.22216 -0.55103,-2.22216 -0.28002,-1.94213 0.83105,-2.49316 0.83105,-1.94213 1.39111,-1.94213 1.6621,-1.39111 2.22216,-1.11108 2.22216,-0.55103 2.22216,-0.28002 2.49316,0.55102 2.22216,0.56006 1.94213,1.38207 1.39111,1.94213 1.10205,1.67114 0.84008,2.22216 0.271,2.21313"
         id="path62" />
      <path
         inkscape:connector-curvature="0"
         style="fill:#dedede;fill-opacity:1;fill-rule:evenodd;stroke:none;stroke-width:2.31249213"
         d="m 183.1518,231.28788 v -8.59958 l -0.28002,8.59958 z m 0,0"
         id="path64" />
      <path
         inkscape:connector-curvature="0"
         style="fill:#dedede;fill-opacity:1;fill-rule:evenodd;stroke:none;stroke-width:2.31249213"
         d="m 182.87178,231.28788 0.28002,-8.59958 h -0.56006 v 8.59958 z m 0,0"
         id="path66" />
      <path
         inkscape:connector-curvature="0"
         style="fill:#ffffff;fill-opacity:1;fill-rule:evenodd;stroke:none;stroke-width:2.31249213"
         d="m 188.14716,227.12359 -0.28005,1.3911 -0.55102,1.11108 -1.11108,1.11109 -1.11108,0.55102 h -1.39111 l -1.6621,-0.28005 -2.22217,-1.6621 -0.28002,-1.6621 v -1.39111 l 0.28002,-1.11108 1.11109,-1.11108 1.11108,-0.83104 1.6621,-0.55102 1.39111,0.27097 1.11108,0.56007 1.11108,1.11108 0.55102,1.11108 z m 0,0"
         id="path68" />
      <path
         inkscape:connector-curvature="0"
         style="fill:#dedede;fill-opacity:1;fill-rule:evenodd;stroke:none;stroke-width:2.31249213"
         d="m 183.1518,231.28788 v -8.59958 l -0.28002,8.59958 z m 0,0"
         id="path70" />
      <path
         inkscape:connector-curvature="0"
         style="fill:#dedede;fill-opacity:1;fill-rule:evenodd;stroke:none;stroke-width:2.31249213"
         d="m 182.87178,231.28788 0.28002,-8.59958 h -0.56006 v 8.59958 z m 0,0"
         id="path72" />
      <path
         inkscape:connector-curvature="0"
         style="fill:none;stroke:#000000;stroke-width:1.38749528;stroke-linecap:round;stroke-linejoin:round;stroke-miterlimit:10;stroke-opacity:1"
         d="m 188.14715,227.12359 -0.28003,1.39111 -0.55102,1.11108 -1.11108,1.11108 -1.11108,0.55102 h -1.39111 l -1.6621,-0.28003 -2.22216,-1.6621 -0.28003,-1.66211 v -1.3911 l 0.28003,-1.11108 1.11108,-1.11108 1.11108,-0.83106 1.6621,-0.55102 1.39111,0.271 1.11108,0.56005 1.11108,1.11108 0.55102,1.11108 0.28003,1.38208"
         id="path74" />
      <path
         inkscape:connector-curvature="0"
         style="fill:#dedede;fill-opacity:1;fill-rule:evenodd;stroke:none;stroke-width:2.31249213"
         d="M 357.6998,236.83423 V 216.0218 h 0.271 l 0.28002,20.81243 z m 0,0"
         id="path76" />
      <path
         inkscape:connector-curvature="0"
         style="fill:#dedede;fill-opacity:1;fill-rule:evenodd;stroke:none;stroke-width:2.31249213"
         d="M 358.25082,236.83423 357.9708,216.0218 h 0.84008 v 20.81243 z m 0,0"
         id="path78" />
      <path
         inkscape:connector-curvature="0"
         style="fill:#dedede;fill-opacity:1;fill-rule:evenodd;stroke:none;stroke-width:2.31249213"
         d="M 359.64192,236.83423 V 216.0218 h 0.27101 l 0.28002,20.81243 z m 0,0"
         id="path80" />
      <path
         inkscape:connector-curvature="0"
         style="fill:#dedede;fill-opacity:1;fill-rule:evenodd;stroke:none;stroke-width:2.31249213"
         d="m 360.19295,236.83423 -0.28002,-20.81243 h 0.84008 v 20.81243 z m 0,0"
         id="path82" />
      <path
         inkscape:connector-curvature="0"
         style="fill:#dedede;fill-opacity:1;fill-rule:evenodd;stroke:none;stroke-width:2.31249213"
         d="M 361.58407,236.83423 V 216.0218 h 0.55102 v 20.81243 z m 0,0"
         id="path84" />
      <path
         inkscape:connector-curvature="0"
         style="fill:#dedede;fill-opacity:1;fill-rule:evenodd;stroke:none;stroke-width:2.31249213"
         d="m 362.13509,236.83423 -0.28004,-20.81243 h 0.8401 v 20.81243 z m 0,0"
         id="path86" />
      <path
         inkscape:connector-curvature="0"
         style="fill:#ffffff;fill-opacity:1;fill-rule:evenodd;stroke:none;stroke-width:2.31249213"
         d="m 371.29473,226.29252 -0.28004,2.50219 -0.83104,1.94215 -1.11108,1.94212 -1.66211,1.6621 -1.94214,1.39111 -4.44431,1.10204 h -2.49317 l -1.94212,-0.83104 -2.22217,-0.83107 -1.94212,-1.6621 -1.3911,-1.6621 -0.83107,-2.22215 -0.55102,-2.22216 v -1.94213 l 0.55102,-2.50221 0.83107,-1.94212 1.3911,-1.94212 1.94212,-1.38209 1.94215,-1.11108 2.22214,-0.28002 2.49317,-0.28004 1.94212,0.28004 2.50219,0.83104 1.94214,1.39113 1.66211,1.6621 1.11108,1.94212 0.83104,2.22217 z m 0,0"
         id="path88" />
      <path
         inkscape:connector-curvature="0"
         style="fill:#dedede;fill-opacity:1;fill-rule:evenodd;stroke:none;stroke-width:2.31249213"
         d="M 357.6998,236.83423 V 216.0218 h 0.271 l 0.28002,20.81243 z m 0,0"
         id="path90" />
      <path
         inkscape:connector-curvature="0"
         style="fill:#dedede;fill-opacity:1;fill-rule:evenodd;stroke:none;stroke-width:2.31249213"
         d="M 358.25082,236.83423 357.9708,216.0218 h 0.84008 v 20.81243 z m 0,0"
         id="path92" />
      <path
         inkscape:connector-curvature="0"
         style="fill:#dedede;fill-opacity:1;fill-rule:evenodd;stroke:none;stroke-width:2.31249213"
         d="M 359.64192,236.83423 V 216.0218 h 0.27101 l 0.28002,20.81243 z m 0,0"
         id="path94" />
      <path
         inkscape:connector-curvature="0"
         style="fill:#dedede;fill-opacity:1;fill-rule:evenodd;stroke:none;stroke-width:2.31249213"
         d="m 360.19295,236.83423 -0.28002,-20.81243 h 0.84008 v 20.81243 z m 0,0"
         id="path96" />
      <path
         inkscape:connector-curvature="0"
         style="fill:#dedede;fill-opacity:1;fill-rule:evenodd;stroke:none;stroke-width:2.31249213"
         d="M 361.58407,236.83423 V 216.0218 h 0.55102 v 20.81243 z m 0,0"
         id="path98" />
      <path
         inkscape:connector-curvature="0"
         style="fill:#dedede;fill-opacity:1;fill-rule:evenodd;stroke:none;stroke-width:2.31249213"
         d="m 362.13509,236.83423 -0.28004,-20.81243 h 0.8401 v 20.81243 z m 0,0"
         id="path100" />
      <path
         inkscape:connector-curvature="0"
         style="fill:none;stroke:#000000;stroke-width:1.38749528;stroke-linecap:round;stroke-linejoin:round;stroke-miterlimit:10;stroke-opacity:1"
         d="m 371.29471,226.29252 -0.28003,2.50219 -0.83105,1.94214 -1.11108,1.94213 -1.6621,1.6621 -1.94213,1.39111 -4.44432,1.10205 h -2.49316 l -1.94213,-0.83106 -2.22216,-0.83105 -1.94213,-1.6621 -1.39111,-1.6621 -0.83105,-2.22217 -0.55103,-2.22216 v -1.94213 l 0.55103,-2.50219 0.83105,-1.94213 1.39111,-1.94213 1.94213,-1.38208 1.94213,-1.11108 2.22216,-0.28002 2.49316,-0.28003 1.94213,0.28003 2.50219,0.83105 1.94213,1.39111 1.6621,1.6621 1.11108,1.94213 0.83105,2.22216 0.28003,1.94213"
         id="path102" />
      <path
         inkscape:connector-curvature="0"
         style="fill:#dedede;fill-opacity:1;fill-rule:evenodd;stroke:none;stroke-width:2.31249213"
         d="m 362.69515,230.73686 v -8.60863 h -0.28004 l -0.28002,8.60863 z m 0,0"
         id="path104" />
      <path
         inkscape:connector-curvature="0"
         style="fill:#dedede;fill-opacity:1;fill-rule:evenodd;stroke:none;stroke-width:2.31249213"
         d="m 362.13509,230.73686 0.28002,-8.60863 h -0.56006 v 8.60863 z m 0,0"
         id="path106" />
      <path
         inkscape:connector-curvature="0"
         style="fill:#ffffff;fill-opacity:1;fill-rule:evenodd;stroke:none;stroke-width:2.31249213"
         d="m 364.63728,226.29252 -0.28002,1.39111 -0.83107,1.38208 -0.83104,0.83104 -1.39112,0.84011 h -1.3911 l -1.10205,-0.28005 -1.3911,-1.11108 -0.55104,-0.83104 -0.56004,-1.3911 v -1.38209 l 0.56004,-1.11108 0.55104,-1.3911 1.3911,-0.83107 1.10205,-0.28002 2.78222,0.56007 1.66211,2.22214 z m 0,0"
         id="path108" />
      <path
         inkscape:connector-curvature="0"
         style="fill:#dedede;fill-opacity:1;fill-rule:evenodd;stroke:none;stroke-width:2.31249213"
         d="m 362.69515,230.73686 v -8.60863 h -0.28004 l -0.28002,8.60863 z m 0,0"
         id="path110" />
      <path
         inkscape:connector-curvature="0"
         style="fill:#dedede;fill-opacity:1;fill-rule:evenodd;stroke:none;stroke-width:2.31249213"
         d="m 362.13509,230.73686 0.28002,-8.60863 h -0.56006 v 8.60863 z m 0,0"
         id="path112" />
      <path
         inkscape:connector-curvature="0"
         style="fill:none;stroke:#000000;stroke-width:1.38749528;stroke-linecap:round;stroke-linejoin:round;stroke-miterlimit:10;stroke-opacity:1"
         d="m 364.63729,226.29252 -0.28003,1.39111 -0.83105,1.38208 -0.83106,0.83105 -1.39111,0.84009 h -1.3911 l -1.10205,-0.28003 -1.39111,-1.11108 -0.55102,-0.83106 -0.56006,-1.3911 v -1.38208 l 0.56006,-1.11108 0.55102,-1.39111 1.39111,-0.83105 1.10205,-0.28003 2.78221,0.56006 1.66211,2.22216 0.28003,1.38207"
         id="path114" />
      <path
         inkscape:connector-curvature="0"
         style="fill:#dedede;fill-opacity:1;fill-rule:evenodd;stroke:none;stroke-width:2.31249213"
         d="M 271.9479,236.83423 V 216.0218 h 0.56006 l 0.27098,20.81243 z m 0,0"
         id="path116" />
      <path
         inkscape:connector-curvature="0"
         style="fill:#dedede;fill-opacity:1;fill-rule:evenodd;stroke:none;stroke-width:2.31249213"
         d="m 272.77894,236.83423 -0.27098,-20.81243 h 0.83104 v 20.81243 z m 0,0"
         id="path118" />
      <path
         inkscape:connector-curvature="0"
         style="fill:#dedede;fill-opacity:1;fill-rule:evenodd;stroke:none;stroke-width:2.31249213"
         d="M 273.89002,236.83423 V 216.0218 h 0.56006 l 0.271,20.81243 z m 0,0"
         id="path120" />
      <path
         inkscape:connector-curvature="0"
         style="fill:#dedede;fill-opacity:1;fill-rule:evenodd;stroke:none;stroke-width:2.31249213"
         d="m 274.72108,236.83423 -0.271,-20.81243 h 0.83104 v 20.81243 z m 0,0"
         id="path122" />
      <path
         inkscape:connector-curvature="0"
         style="fill:#dedede;fill-opacity:1;fill-rule:evenodd;stroke:none;stroke-width:2.31249213"
         d="M 276.11219,236.83423 V 216.0218 h 0.55102 v 20.81243 z m 0,0"
         id="path124" />
      <path
         inkscape:connector-curvature="0"
         style="fill:#dedede;fill-opacity:1;fill-rule:evenodd;stroke:none;stroke-width:2.31249213"
         d="M 276.66321,236.83423 V 216.0218 h 0.56006 v 20.81243 z m 0,0"
         id="path126" />
      <path
         inkscape:connector-curvature="0"
         style="fill:#ffffff;fill-opacity:1;fill-rule:evenodd;stroke:none;stroke-width:2.31249213"
         d="m 282.2186,226.29252 v 2.50219 l -0.83104,1.94215 -1.11108,1.94212 -1.67115,1.6621 -1.94212,1.39111 -2.21313,0.55102 -2.22216,0.55102 h -2.50219 l -2.21312,-0.83104 -1.94213,-0.83107 -1.94214,-1.6621 -1.39111,-1.6621 -0.83106,-2.22215 -0.56004,-2.22216 v -1.94213 l 0.56004,-2.50221 0.83106,-1.94212 1.39111,-1.94212 1.94214,-1.38209 1.94213,-1.11108 2.21312,-0.28002 2.50219,-0.28004 2.22216,0.28004 2.21313,0.83104 1.94212,1.39113 1.67115,1.6621 1.11108,1.94212 0.83104,2.22217 z m 0,0"
         id="path128" />
      <path
         inkscape:connector-curvature="0"
         style="fill:#dedede;fill-opacity:1;fill-rule:evenodd;stroke:none;stroke-width:2.31249213"
         d="M 271.9479,236.83423 V 216.0218 h 0.56006 l 0.27098,20.81243 z m 0,0"
         id="path130" />
      <path
         inkscape:connector-curvature="0"
         style="fill:#dedede;fill-opacity:1;fill-rule:evenodd;stroke:none;stroke-width:2.31249213"
         d="m 272.77894,236.83423 -0.27098,-20.81243 h 0.83104 v 20.81243 z m 0,0"
         id="path132" />
      <path
         inkscape:connector-curvature="0"
         style="fill:#dedede;fill-opacity:1;fill-rule:evenodd;stroke:none;stroke-width:2.31249213"
         d="M 273.89002,236.83423 V 216.0218 h 0.56006 l 0.271,20.81243 z m 0,0"
         id="path134" />
      <path
         inkscape:connector-curvature="0"
         style="fill:#dedede;fill-opacity:1;fill-rule:evenodd;stroke:none;stroke-width:2.31249213"
         d="m 274.72108,236.83423 -0.271,-20.81243 h 0.83104 v 20.81243 z m 0,0"
         id="path136" />
      <path
         inkscape:connector-curvature="0"
         style="fill:#dedede;fill-opacity:1;fill-rule:evenodd;stroke:none;stroke-width:2.31249213"
         d="M 276.11219,236.83423 V 216.0218 h 0.55102 v 20.81243 z m 0,0"
         id="path138" />
      <path
         inkscape:connector-curvature="0"
         style="fill:#dedede;fill-opacity:1;fill-rule:evenodd;stroke:none;stroke-width:2.31249213"
         d="M 276.66321,236.83423 V 216.0218 h 0.56006 v 20.81243 z m 0,0"
         id="path140" />
      <path
         inkscape:connector-curvature="0"
         style="fill:none;stroke:#000000;stroke-width:1.38749528;stroke-linecap:round;stroke-linejoin:round;stroke-miterlimit:10;stroke-opacity:1"
         d="m 282.21861,226.29252 v 2.50219 l -0.83105,1.94214 -1.11108,1.94213 -1.67114,1.6621 -1.94213,1.39111 -2.21313,0.55102 -2.22216,0.55103 h -2.50219 l -2.21313,-0.83106 -1.94213,-0.83105 -1.94213,-1.6621 -1.39111,-1.6621 -0.83105,-2.22217 -0.56006,-2.22216 v -1.94213 l 0.56006,-2.50219 0.83105,-1.94213 1.39111,-1.94213 1.94213,-1.38208 1.94213,-1.11108 2.21313,-0.28002 2.50219,-0.28003 2.22216,0.28003 2.21313,0.83105 1.94213,1.39111 1.67114,1.6621 1.11108,1.94213 0.83105,2.22216 v 1.94213"
         id="path142" />
      <path
         inkscape:connector-curvature="0"
         style="fill:#ffffff;fill-opacity:1;fill-rule:evenodd;stroke:none;stroke-width:2.31249213"
         d="m 275.83217,226.29252 -0.271,1.39111 -0.56007,1.38208 -1.11108,0.83104 -1.11108,0.84011 h -1.38206 l -1.39113,-0.28005 -1.38206,-1.11108 -0.84008,-0.83104 -0.271,-1.3911 v -1.38209 l 0.55102,-1.11108 0.56006,-1.3911 1.38206,-0.83107 1.39113,-0.28002 1.38206,0.28002 1.11108,0.28005 1.11108,1.11108 0.83107,1.11106 z m 0,0"
         id="path144" />
      <path
         inkscape:connector-curvature="0"
         style="fill:none;stroke:#000000;stroke-width:1.38749528;stroke-linecap:round;stroke-linejoin:round;stroke-miterlimit:10;stroke-opacity:1"
         d="m 275.83217,226.29252 -0.271,1.39111 -0.56005,1.38208 -1.11108,0.83105 -1.11108,0.84009 h -1.38208 l -1.39111,-0.28003 -1.38207,-1.11108 -0.84009,-0.83106 -0.27099,-1.3911 v -1.38208 l 0.55102,-1.11108 0.56006,-1.39111 1.38207,-0.83105 1.39111,-0.28003 1.38208,0.28003 1.11108,0.28003 1.11108,1.11108 0.83105,1.11108 v 1.38207"
         id="path146" />
      <path
         inkscape:connector-curvature="0"
         style="fill:#ff0000;fill-opacity:1;fill-rule:evenodd;stroke:none;stroke-width:2.31249213"
         d="m 238.65162,178.29025 c 0,0.83104 -0.56007,1.6621 -1.67115,2.21312 -1.10204,0.56007 -2.49314,0.83104 -4.15525,0.83104 -1.11108,0 -1.94212,0 -2.78223,0 -0.83104,-0.27097 -1.38206,-0.27097 -1.94212,-0.55102 0,-0.83104 0,-1.6621 0,-2.49314 0,0 0.28002,0 0.28002,0 0.28004,0 0.56006,0.271 0.56006,0.271 0.271,0.28002 0.83107,0.28002 1.10204,0.56004 0.28005,0 0.84011,0.271 1.39113,0.271 0.28002,0 0.83104,0 1.3911,0 0.83104,0 1.11109,0 1.66211,0 0.28002,-0.271 0.28002,-0.271 0.28002,-0.55102 0,-0.28002 0,-0.55102 -0.28002,-0.55102 0,-0.28004 -0.55102,-0.28004 -1.11109,-0.28004 -0.28002,0 -0.55102,-0.28002 -1.11108,-0.28002 -0.271,0 -0.83104,0 -1.11108,-0.28002 -1.11109,0 -1.66211,-0.55102 -2.21313,-0.83107 -0.56006,-0.55102 -0.84008,-1.11108 -0.84008,-1.6621 0,-1.11108 0.56006,-1.6621 1.67115,-2.22217 0.83104,-0.83104 2.22214,-1.11106 4.16429,-1.11106 0.83104,0 1.6621,0.28002 2.21312,0.28002 0.83104,0.28002 1.3911,0.28002 1.94212,0.55102 0,0.84009 0,1.39111 0,2.22217 -0.27097,0 -0.27097,0 -0.27097,0 -0.56007,-0.28004 -1.11109,-0.55102 -1.94215,-0.83106 -0.56006,0 -1.3911,-0.28002 -1.94212,-0.28002 -0.56007,0 -1.11109,0.28002 -1.39111,0.28002 -0.55104,0.28004 -0.83106,0.28004 -0.83106,0.55102 0,0.28004 0.28002,0.56006 0.28002,0.56006 0.271,0 0.55104,0.28004 1.38208,0.28004 0.28002,0 0.83107,0.27098 1.11109,0.27098 0.55102,0 0.83104,0 1.3911,0.28004 0.83106,0 1.6621,0.56004 1.94215,0.83104 0.55102,0.56007 0.83104,1.11109 0.83104,1.67115 z m 0,0"
         id="path148" />
      <path
         inkscape:connector-curvature="0"
         style="fill:#ff0000;fill-opacity:1;fill-rule:evenodd;stroke:none;stroke-width:2.31249213"
         d="m 251.96651,181.33441 c -1.11109,0 -2.21313,0 -3.60423,0 0,-1.6621 0,-3.04416 0,-4.71531 0,-0.271 0,-0.83104 0,-1.11108 0,-0.27098 0,-0.55102 -0.28002,-0.83104 0,-0.28004 -0.271,-0.28004 -0.55104,-0.55102 -0.28002,0 -0.56004,0 -1.11106,0 -0.28005,0 -0.55105,0 -0.83107,0 -0.28002,0.27098 -0.83104,0.27098 -1.11108,0.55102 0,2.22217 0,4.44431 0,6.65743 -1.11108,0 -2.50219,0 -3.60423,0 0,-3.3242 0,-6.37741 0,-9.43062 1.10204,0 2.49315,0 3.60423,0 0,0.55102 0,0.83104 0,1.11109 0.55102,-0.56007 1.11108,-0.83107 1.94215,-0.83107 0.55102,-0.28002 1.11106,-0.56004 1.94212,-0.56004 1.11108,0 1.94212,0.28002 2.77319,1.11106 0.56006,0.56007 0.83104,1.39113 0.83104,2.50221 0,1.94213 0,3.88425 0,6.09737 z m 0,0"
         id="path150" />
      <path
         inkscape:connector-curvature="0"
         style="fill:#ff0000;fill-opacity:1;fill-rule:evenodd;stroke:none;stroke-width:2.31249213"
         d="m 261.95721,178.84127 c 0,-0.55102 0,-1.3911 0,-1.94212 -0.271,0 -0.83106,0 -1.38208,0 -0.56006,0.28002 -1.11108,0.28002 -1.3911,0.28002 -0.28005,0 -0.55102,0.271 -0.83107,0.55102 0,0 -0.28002,0.28002 -0.28002,0.56006 0,0.271 0,0.271 0,0.55102 0.28002,0 0.28002,0.28002 0.28002,0.28002 0.28005,0 0.55102,0.271 0.55102,0.271 0.28005,0 0.56007,0 1.11109,0 0.28004,0 0.83106,0 1.11108,0 0.28002,-0.271 0.56006,-0.271 0.83106,-0.55102 z m 0,1.3911 c 0,0 -0.271,0.271 -0.55104,0.55102 -0.28002,0 -0.56004,0.28005 -0.83104,0.28005 -0.28002,0.27097 -0.83106,0.27097 -1.11108,0.27097 -0.28002,0 -0.83104,0 -1.11109,0 -1.11108,0 -1.94212,0 -2.77318,-0.55102 -0.83104,-0.55102 -1.11109,-1.3911 -1.11109,-2.22214 0,-0.55104 0.28005,-1.11108 0.55105,-1.6621 0.28002,-0.28005 0.83104,-0.83107 1.67112,-1.11109 0.55102,0 1.38208,-0.28004 2.49317,-0.28004 0.83104,-0.27098 1.94212,-0.27098 2.77318,-0.27098 0,-0.56006 0,-1.11108 -0.55104,-1.11108 -0.56004,-0.28004 -1.3911,-0.28004 -2.22214,-0.28004 -0.55102,0 -1.39113,0 -1.94215,0.28004 -0.55102,0 -1.11108,0.27098 -1.3911,0.27098 -0.271,0 -0.271,0 -0.271,0 0,-0.83104 0,-1.38206 0,-2.21313 0.271,0 0.83106,-0.28002 1.6621,-0.28002 0.83106,0 1.6621,-0.28002 2.50219,-0.28002 2.21314,0 3.60425,0.28002 4.43529,0.83104 1.11108,0.56007 1.39112,1.39111 1.39112,2.50219 0,1.94215 0,4.16429 0,6.37741 -1.11108,0 -2.22216,0 -3.61327,0 0,-0.55102 0,-0.83104 0,-1.10204 z m 0,0"
         id="path152" />
      <path
         inkscape:connector-curvature="0"
         style="fill:#ff0000;fill-opacity:1;fill-rule:evenodd;stroke:none;stroke-width:2.31249213"
         d="m 280.5565,176.3481 c 0,0.83107 -0.28002,1.66211 -0.56004,2.21315 -0.28005,0.56004 -0.55102,1.11106 -1.11109,1.67112 -0.28004,0.271 -0.83106,0.55102 -1.6621,0.83107 -0.56006,0.27097 -1.11108,0.27097 -1.6621,0.27097 -0.84009,0 -1.39111,0 -1.67115,0 -0.55102,-0.27097 -1.11108,-0.27097 -1.38206,-0.55102 0,1.39113 0,2.50219 0,3.88427 -1.11108,0 -2.50221,0 -3.61327,0 0,-4.16429 0,-8.59958 0,-12.76387 1.11106,0 2.50219,0 3.61327,0 0,0.28002 0,0.83104 0,1.11109 0.55102,-0.56007 1.11106,-0.83107 1.6621,-0.83107 0.55102,-0.28002 1.11106,-0.56004 1.94213,-0.56004 1.3911,0 2.49314,0.56004 3.33325,1.39111 0.55102,0.83104 1.11106,1.94212 1.11106,3.33322 z m -3.61327,0.271 c 0,-1.11108 -0.28002,-1.6621 -0.55102,-1.94212 -0.56004,-0.55102 -1.11109,-0.83106 -1.94213,-0.83106 -0.28002,0 -0.56006,0.28004 -1.11108,0.28004 -0.28002,0 -0.56006,0.27098 -0.83104,0.27098 0,1.67114 0,3.05323 0,4.72435 0.27098,0 0.55102,0 0.83104,0 0.28002,0.271 0.28002,0.271 0.55102,0.271 1.11108,0 1.67115,-0.271 2.22217,-0.83104 0.55102,-0.55104 0.83104,-1.11108 0.83104,-1.94215 z m 0,0"
         id="path154" />
      <path
         inkscape:connector-curvature="0"
         style="fill:#ff0000;fill-opacity:1;fill-rule:evenodd;stroke:none;stroke-width:2.31249213"
         d="m 287.21395,175.23704 c -1.11108,0 -2.50218,0 -3.61327,0 0,-1.11108 0,-2.22216 0,-3.33325 1.11109,0 2.50219,0 3.61327,0 0,1.11109 0,2.22217 0,3.33325 z m 0,6.09737 c -1.11108,0 -2.50218,0 -3.61327,0 0,-1.10204 0,-2.21312 0,-3.3242 1.11109,0 2.50219,0 3.61327,0 0,1.11108 0,2.22216 0,3.3242 z m 0,0"
         id="path156" />
      <path
         inkscape:connector-curvature="0"
         style="fill:#ff0000;fill-opacity:1;fill-rule:evenodd;stroke:none;stroke-width:2.31249213"
         d="m 302.75101,176.3481 c 0,1.66211 -0.28002,2.77319 -1.38208,3.60425 -0.84009,1.11109 -2.22215,1.38206 -3.61327,1.38206 -0.55102,0 -1.11106,0 -1.66211,0 -0.56004,-0.27097 -0.83104,-0.27097 -1.3911,-0.55102 0,0 0,0.28005 0,0.55102 -1.11108,0 -2.22217,0 -3.60423,0 0,-4.43526 0,-8.59958 0,-13.03484 1.38206,0 2.49315,0 3.60423,0 0,1.6621 0,3.0532 0,4.71531 0.56006,-0.56007 1.11108,-0.83107 1.67115,-0.83107 0.55102,-0.28002 1.38206,-0.56004 1.94212,-0.56004 1.6621,0 2.49317,0.56004 3.32421,1.39111 0.83106,0.83104 1.11108,1.94212 1.11108,3.33322 z m -3.60423,0.271 c 0,-0.83104 -0.28004,-1.6621 -0.56006,-1.94212 -0.271,-0.55102 -0.83106,-0.83106 -1.6621,-0.83106 -0.28002,0 -0.83107,0.28004 -1.11109,0.28004 -0.28002,0 -0.83104,0.27098 -1.11108,0.27098 0,1.67114 0,3.05323 0,4.72435 0.28004,0 0.56006,0 0.83106,0 0.28002,0.271 0.56004,0.271 0.84009,0.271 0.83104,0 1.6621,-0.271 2.21312,-0.83104 0.28002,-0.55104 0.56006,-1.11108 0.56006,-1.94215 z m 0,0"
         id="path158" />
      <path
         inkscape:connector-curvature="0"
         style="fill:#ff0000;fill-opacity:1;fill-rule:evenodd;stroke:none;stroke-width:2.31249213"
         d="m 308.85745,181.33441 c -1.11109,0 -2.22217,0 -3.33325,0 0,-3.3242 0,-6.37741 0,-9.43062 1.11108,0 2.22216,0 3.33325,0 0,3.05321 0,6.10642 0,9.43062 z m 0.28002,-10.5417 c -1.39111,0 -2.50219,0 -3.88427,0 0,-0.83104 0,-1.6621 0,-2.49314 1.38208,0 2.49316,0 3.88427,0 0,0.83104 0,1.6621 0,2.49314 z m 0,0"
         id="path160" />
      <path
         inkscape:connector-curvature="0"
         style="fill:#ff0000;fill-opacity:1;fill-rule:evenodd;stroke:none;stroke-width:2.31249213"
         d="m 319.39915,181.06344 c -0.271,0.27097 -0.83106,0.27097 -1.11108,0.27097 -0.55102,0 -1.10205,0 -1.66211,0 -1.38208,0 -2.49314,-0.27097 -3.0532,-0.55102 -0.55102,-0.55102 -1.11109,-1.3911 -1.11109,-2.49314 0,-1.3911 0,-2.78223 0,-4.16429 -0.271,0 -0.83106,0 -1.38208,0 0,-0.83106 0,-1.39113 0,-2.22217 0.55102,0 1.11108,0 1.38208,0 0,-0.83106 0,-1.6621 0,-2.49316 1.39111,0 2.50219,0 3.61327,0 0,0.83106 0,1.6621 0,2.49316 1.11108,0 2.21313,0 3.32421,0 0,0.83104 0,1.39111 0,2.22217 -1.11108,0 -2.21313,0 -3.32421,0 0,0.83104 0,1.94212 0,3.05321 0,0.271 0,0.83104 0,0.83104 0,0.28004 0,0.55104 0.271,0.83106 0,0 0.28002,0.28002 0.56004,0.28002 0,0.271 0.55105,0.271 0.83107,0.271 0.28002,0 0.55102,0 0.83104,0 0.28004,-0.271 0.56006,-0.271 0.56006,-0.271 0,0 0.271,0 0.271,0 0,0.55102 0,1.38208 0,1.94215 z m 0,0"
         id="path162" />
      <path
         inkscape:connector-curvature="0"
         style="fill:#ff0000;fill-opacity:1;fill-rule:evenodd;stroke:none;stroke-width:2.31249213"
         d="m 331.89202,211.86655 c -0.28002,0.271 -0.83104,0.271 -1.3911,0.55102 -0.55102,0.28002 -1.38209,0.28002 -1.94213,0.28002 -1.39112,0 -2.49316,-0.56004 -3.33325,-1.3911 -0.83104,-0.83104 -1.38208,-2.22217 -1.38208,-3.88427 0,-1.66211 0.55104,-2.77317 1.38208,-3.88425 0.84009,-0.83106 1.94213,-1.39113 3.33325,-1.39113 0.56004,0 1.11109,0 1.66211,0.28005 0.56004,0 1.11108,0.28002 1.67112,0.56006 0,0.83104 0,1.6621 0,2.49314 0,0 -0.28002,0 -0.28002,0 0,0 -0.28002,-0.28002 -0.28002,-0.55102 -0.271,0 -0.55104,-0.28002 -0.83106,-0.28002 0,-0.28004 -0.28002,-0.28004 -0.55102,-0.55104 -0.28002,0 -0.83107,0 -1.11109,0 -0.28002,0 -0.56006,0 -1.11108,0.271 -0.28002,0 -0.56006,0.28004 -0.83104,0.56006 0,0.271 -0.28004,0.55102 -0.56006,1.11109 0,0.271 0,0.83104 0,1.38206 0,1.11108 0.28002,1.94214 0.56006,2.50221 0.55102,0.55102 1.38206,0.83104 2.22214,0.83104 0.271,0 0.271,0 0.271,0 0.28005,0 0.28005,0 0.28005,0 0,-0.56007 0,-1.39111 0,-1.94213 -0.55105,0 -1.11109,0 -1.66211,0 0,-0.56006 0,-1.11108 0,-1.94214 1.38206,0 2.49315,0 3.88425,0 0,1.6621 0,3.3242 0,4.99535 z m 0,0"
         id="path168" />
      <path
         inkscape:connector-curvature="0"
         style="fill:#ff0000;fill-opacity:1;fill-rule:evenodd;stroke:none;stroke-width:2.31249213"
         d="m 341.60268,212.41757 c -0.83104,0 -1.3911,0 -2.22216,0 -1.11106,-2.22217 -2.22215,-4.43529 -3.60423,-6.93748 0,2.50219 0,4.71531 0,6.93748 -0.56006,0 -1.11108,0 -1.94212,0 0,-3.33325 0,-6.65746 0,-9.99068 0.83104,0 1.6621,0 2.77318,0 0.83104,1.94212 1.94213,3.88427 3.05321,5.82639 0,-1.94212 0,-3.88427 0,-5.82639 0.55102,0 1.38206,0 1.94212,0 0,3.33322 0,6.65743 0,9.99068 z m 0,0"
         id="path170" />
      <path
         inkscape:connector-curvature="0"
         style="fill:#ff0000;fill-opacity:1;fill-rule:evenodd;stroke:none;stroke-width:2.31249213"
         d="m 351.59337,207.42222 c 0,0.83106 0,1.94214 -0.28002,2.50221 -0.55103,0.83104 -0.83104,1.38206 -1.38209,1.6621 -0.56004,0.28002 -1.11106,0.55102 -1.3911,0.83104 -0.56006,0 -1.11108,0 -1.94212,0 -0.83107,0 -1.94215,0 -2.77319,0 0,-3.33325 0,-6.65746 0,-9.99068 0.83104,0 1.94212,0 3.0532,0 0.55103,0 1.10205,0 1.66211,0.28002 0.55102,0 0.83106,0.28004 1.3911,0.55102 0.55105,0.28004 0.83106,0.84008 1.38209,1.67114 0.28002,0.83104 0.28002,1.66211 0.28002,2.49315 z m -2.22215,0 c 0,-0.55102 0,-1.11106 -0.28004,-1.66211 0,-0.56004 -0.55102,-0.83104 -0.83104,-1.11106 -0.28004,-0.28004 -0.55102,-0.28004 -0.83106,-0.28004 -0.28002,0 -0.55103,0 -0.83104,0 -0.28005,0 -0.56007,0 -0.56007,0 0,1.94215 0,4.16429 0,6.10644 0,0 0.28002,0 0.56007,0 0.28001,0 0.83104,0 1.11108,0 0,0 0.27098,0 0.55102,-0.28005 0.56006,-0.27097 0.83104,-0.55102 0.83104,-1.11108 0.28004,-0.55102 0.28004,-1.10204 0.28004,-1.6621 z m 0,0"
         id="path172" />
      <path
         inkscape:connector-curvature="0"
         style="fill:#ff0000;fill-opacity:1;fill-rule:evenodd;stroke:none;stroke-width:2.31249213"
         d="m 275.83217,212.69759 c -2.77319,0 -5.82642,0 -8.87963,0 0,-0.56004 0,-1.11106 0,-1.6621 0.83107,-0.56004 1.39111,-0.84009 2.22217,-1.39111 0.55102,-0.56006 1.11108,-1.11108 1.6621,-1.3911 0.56007,-0.55102 0.83104,-1.11108 1.11109,-1.38208 0.28002,-0.28002 0.56006,-0.83104 0.56006,-1.11109 0,-0.56004 -0.28004,-0.83104 -0.56006,-1.11106 -0.28005,-0.28004 -0.83107,-0.55104 -1.38209,-0.55104 -0.56006,0 -1.11108,0.271 -1.3911,0.271 -0.55102,0.28004 -1.11108,0.56006 -1.6621,0.83106 0,-0.83106 0,-1.6621 0,-2.49316 0.271,0 0.83104,-0.28002 1.38208,-0.28002 0.83104,-0.28005 1.3911,-0.28005 2.22214,-0.28005 1.39113,0 2.50219,0.28005 3.05323,0.84011 0.83104,0.55102 1.11106,1.38206 1.11106,2.21312 0,0.84009 0,1.39111 -0.56004,1.94213 -0.271,0.56006 -0.83106,1.11108 -1.38208,1.94212 -0.56006,0.28004 -1.11108,0.56006 -1.3911,0.84011 -0.55102,0.55102 -0.83107,0.55102 -1.11109,0.83104 1.67115,0 3.33325,0 4.99536,0 0,0.55102 0,1.38208 0,1.94212 z m 0,0"
         id="path174" />
      <path
         inkscape:connector-curvature="0"
         style="fill:#ff0000;fill-opacity:1;fill-rule:evenodd;stroke:none;stroke-width:2.31249213"
         d="m 204.51525,212.69759 c -3.0532,0 -5.82639,0 -8.8796,0 0,-0.56004 0,-1.11106 0,-1.6621 0.83104,0 1.94213,0 2.77319,0 0,-1.95117 0,-3.61327 0,-5.5554 -0.83106,0 -1.94215,0 -2.77319,0 0,-0.55102 0,-1.11108 0,-1.6621 0.28002,0 0.83104,0 1.11109,-0.28002 0.56004,0 0.83104,0 1.11108,0 0.28002,-0.28004 0.55102,-0.28004 0.55102,-0.55102 0.28002,-0.28004 0.28002,-0.28004 0.28002,-0.56006 1.11108,0 1.94212,0 3.05321,0 0,2.77318 0,5.55539 0,8.6086 0.83106,0 1.6621,0 2.77318,0 0,0.55104 0,1.10206 0,1.6621 z m 0,0"
         id="path176" />
      <path
         inkscape:connector-curvature="0"
         style="fill:#3f3f3f;fill-opacity:1;fill-rule:evenodd;stroke:#ff0000;stroke-width:8.6024704;stroke-linecap:round;stroke-linejoin:round;stroke-miterlimit:10;stroke-opacity:1"
         d="m 197.30679,146.37605 h -6.10642 l -1.67114,-0.28003 h -1.38208 l -1.39111,-0.28003 -0.83105,-0.27099 h -0.55102 l -0.28003,-0.28003 v -14.98603 l 0.28003,-0.28003 0.55102,-0.271 h 0.83105 l 1.39111,-0.28003 1.38208,-0.28002 h 3.61327 l 2.21312,-0.28003 H 352.1444 l 1.94213,0.28003 h 3.88426 l 1.39111,0.28002 1.11108,0.28003 h 1.11108 l 0.55103,0.271 0.28003,0.28003 v 14.98603 l -0.28003,0.28003 h -0.55103 l -1.11108,0.27099 -1.11108,0.28003 h -1.39111 l -1.94213,0.28003 z m 0,0"
         id="path180" />
    </g>
    <g
       transform="matrix(8.7558326,0,0,8.7558326,-597.31781,-94.7308)"
       id="g1671">
      <path
         inkscape:connector-curvature="0"
         style="fill:#ff0000;fill-opacity:1;fill-rule:evenodd;stroke:#000000;stroke-width:0.19049999;stroke-linecap:round;stroke-linejoin:round;stroke-miterlimit:10;stroke-opacity:1"
         d="m 108.40984,13.07861 0.41238,0.03204 0.38137,0.06305 0.34934,0.159163 0.31729,0.15813 0.34933,0.254249 0.25425,0.285253 0.22221,0.286287 0.19017,0.317294 0.12712,0.381373 0.0951,0.380338 v 2.857706 l -0.0951,0.381374 -0.12712,0.349332 -0.19017,0.349332 -0.22221,0.285255 -0.25425,0.286287 -0.31729,0.253214 -0.34933,0.191204 -0.34934,0.127122 -0.38137,0.09509 H 89.868339 L 89.486969,20.476613 89.105595,20.349491 88.788302,20.158287 88.43897,19.905073 88.184721,19.618786 87.962513,19.333531 87.772344,18.984199 87.64522,18.634867 87.55014,18.253493 87.5181,17.873155 V 15.77716 l 0.03204,-0.381373 0.09508,-0.380338 0.127124,-0.349332 0.190169,-0.349335 0.222208,-0.286287 0.254249,-0.285253 0.349332,-0.254249 0.317293,-0.15813 0.349335,-0.159163 0.381371,-0.06305 0.412379,-0.03204 z m 0,0"
         id="path2010" />
      <path
         inkscape:connector-curvature="0"
         style="fill:#ffffff;fill-opacity:1;fill-rule:evenodd;stroke:#ffffff;stroke-width:0.09921875;stroke-linecap:round;stroke-linejoin:round;stroke-miterlimit:10;stroke-opacity:1"
         d="m 90.312757,16.98328 h -0.159163 v -0.06305 l -0.03204,-0.03204 v -0.09508 l 0.03204,-0.03204 v -0.06305 l 0.03204,-0.03204 h 6.190837 l 0.09508,0.09508 v 0.159162 l -0.031,0.03204 -0.03204,0.03101 z m 0,0"
         id="path2012" />
      <path
         inkscape:connector-curvature="0"
         style="fill:#ffbf00;fill-opacity:1;fill-rule:evenodd;stroke:#ffbf00;stroke-width:0.34924999;stroke-linecap:round;stroke-linejoin:round;stroke-miterlimit:10;stroke-opacity:1"
         d="m 99.266217,18.06332 -0.286287,-0.03204 -0.222211,-0.09508 -0.222207,-0.127125 -0.159163,-0.158131 -0.126093,-0.222207 -0.09612,-0.191204 -0.03101,-0.254249 0.03101,-0.253214 0.09612,-0.222208 0.126093,-0.22221 0.159163,-0.159163 0.222207,-0.127124 0.222211,-0.09508 0.286287,-0.03204 0.222207,0.03204 0.222208,0.09508 0.22221,0.127124 0.190168,0.159163 0.19017,0.444418 0.032,0.253214 -0.032,0.254249 -0.0951,0.191204 -0.0951,0.222207 -0.190169,0.158131 -0.22221,0.127125 -0.222208,0.09508 z m 0,0"
         id="path2014" />
      <path
         inkscape:connector-curvature="0"
         style="fill:#dedede;fill-opacity:1;fill-rule:evenodd;stroke:#000000;stroke-width:0.15875001;stroke-linecap:round;stroke-linejoin:round;stroke-miterlimit:10;stroke-opacity:1"
         d="m 89.486969,18.031279 -0.254249,-0.03204 -0.222208,-0.06304 -0.22221,-0.159163 -0.190169,-0.158131 -0.127122,-0.222207 -0.127125,-0.191204 -0.03204,-0.253214 v -0.286288 l 0.03204,-0.222207 0.127125,-0.22221 0.127122,-0.19017 0.190169,-0.159163 0.22221,-0.15813 0.222208,-0.03204 0.254249,-0.03204 0.254248,0.03204 0.222208,0.06305 0.190169,0.127124 0.222208,0.191204 0.159165,0.222207 0.06305,0.19017 0.06408,0.254248 v 0.253214 l -0.06408,0.254249 -0.06305,0.222207 -0.159165,0.191204 -0.190169,0.158129 -0.191202,0.127124 -0.253214,0.06304 z m 0,0"
         id="path2016" />
      <path
         inkscape:connector-curvature="0"
         style="fill:#dedede;fill-opacity:1;fill-rule:evenodd;stroke:#000000;stroke-width:0.15875001;stroke-linecap:round;stroke-linejoin:round;stroke-miterlimit:10;stroke-opacity:1"
         d="m 89.519007,17.301608 -0.159163,-0.03204 -0.159163,-0.06408 -0.09509,-0.126089 -0.06304,-0.127125 v -0.286287 l 0.09508,-0.158131 0.127124,-0.06408 0.158131,-0.06304 h 0.159163 l 0.159162,0.06304 0.127125,0.06408 0.09509,0.158131 0.03101,0.127122 v 0.159165 l -0.06305,0.127125 -0.09508,0.126089 -0.159163,0.06408 z m 0,0"
         id="path2018" />
      <path
         inkscape:connector-curvature="0"
         style="fill:#ffffff;fill-opacity:1;fill-rule:evenodd;stroke:#ffffff;stroke-width:0.09921875;stroke-linecap:round;stroke-linejoin:round;stroke-miterlimit:10;stroke-opacity:1"
         d="m 102.05984,17.079398 h -0.063 l -0.0641,-0.06408 v -0.03204 h -0.032 V 16.85719 l 0.0961,-0.09612 h 0.031 l 0.032,-0.03101 h 6.00067 l 0.032,0.03101 h 0.032 l 0.031,0.03204 0.0641,0.06408 v 0.12609 h -0.032 v 0.03204 l -0.032,0.03204 -0.031,0.03204 z m 0,0"
         id="path2020" />
      <path
         inkscape:connector-curvature="0"
         style="fill:#ffffff;fill-opacity:1;fill-rule:evenodd;stroke:#ffffff;stroke-width:0.09921875;stroke-linecap:round;stroke-linejoin:round;stroke-miterlimit:10;stroke-opacity:1"
         d="m 101.90068,14.983401 v -0.06305 l 0.032,-0.03204 v -0.03204 l 0.032,-0.03204 0.032,-0.03101 h 0.19017 v 0.03101 l 0.032,0.03204 v 0.06408 l 0.031,0.03101 v 3.77858 h -0.031 v 0.06305 l -0.032,0.03204 -0.0641,0.03204 h -0.0951 l -0.031,-0.03204 h -0.032 l -0.032,-0.03204 v -0.03101 l -0.032,-0.03204 z m 0,0"
         id="path2022" />
      <path
         inkscape:connector-curvature="0"
         style="fill:#ffffff;fill-opacity:1;fill-rule:evenodd;stroke:#ffffff;stroke-width:0.09921875;stroke-linecap:round;stroke-linejoin:round;stroke-miterlimit:10;stroke-opacity:1"
         d="m 96.154259,14.983401 0.03204,-0.03204 v -0.09508 l 0.06305,-0.06305 h 0.159163 l 0.03204,0.03101 0.031,0.03204 0.03204,0.03204 v 3.873664 l -0.03204,0.03101 -0.031,0.03204 h -0.03204 l -0.03204,0.03204 h -0.09509 l -0.03204,-0.03204 h -0.03101 l -0.03204,-0.03204 v -0.06305 l -0.03204,-0.06304 z m 0,0"
         id="path2024" />
      <path
         inkscape:connector-curvature="0"
         style="fill:none;stroke:#ffffff;stroke-width:0.34924999;stroke-linecap:round;stroke-linejoin:round;stroke-miterlimit:10;stroke-opacity:1"
         d="m 97.107175,14.856279 v 4.190957 h 4.190955 v -4.190957 z m 0,0"
         id="path2026" />
      <path
         inkscape:connector-curvature="0"
         style="fill:#dedede;fill-opacity:1;fill-rule:evenodd;stroke:#000000;stroke-width:0.15875001;stroke-linecap:round;stroke-linejoin:round;stroke-miterlimit:10;stroke-opacity:1"
         d="m 109.20359,18.031279 -0.25424,-0.03204 -0.22221,-0.06304 -0.22221,-0.159163 -0.19017,-0.158131 -0.15916,-0.222207 -0.0631,-0.191204 -0.0641,-0.253214 v -0.286288 l 0.0641,-0.222207 0.063,-0.22221 0.15916,-0.19017 0.19018,-0.159163 0.2222,-0.15813 0.22221,-0.03204 0.25425,-0.03204 0.22221,0.03204 0.25425,0.06305 0.2222,0.127124 0.19018,0.191204 0.12712,0.222207 0.12712,0.19017 0.032,0.254248 v 0.253215 l -0.032,0.254248 -0.12712,0.222208 -0.12712,0.191204 -0.19018,0.158128 -0.2222,0.127124 -0.22221,0.06304 z m 0,0"
         id="path2028" />
      <path
         inkscape:connector-curvature="0"
         style="fill:#dedede;fill-opacity:1;fill-rule:evenodd;stroke:#000000;stroke-width:0.15875001;stroke-linecap:round;stroke-linejoin:round;stroke-miterlimit:10;stroke-opacity:1"
         d="m 109.23563,17.301608 -0.15916,-0.03204 -0.15813,-0.06408 -0.0961,-0.126089 -0.063,-0.127125 v -0.159165 l 0.032,-0.127122 0.0951,-0.158131 0.12712,-0.06408 0.12713,-0.06304 h 0.15812 l 0.15917,0.06304 0.12712,0.06408 0.0951,0.158131 0.032,0.127122 v 0.159165 l -0.0961,0.127125 -0.0951,0.126089 -0.12712,0.06408 z m 0,0"
         id="path2030" />
      <path
         inkscape:connector-curvature="0"
         style="fill:#ffffff;fill-opacity:1;fill-rule:evenodd;stroke:none;stroke-width:0.26458332"
         d="m 92.249589,20.444567 c -0.127122,-0.38137 -0.254246,-0.730705 -0.349332,-1.111043 0.03101,0 0.09509,0 0.158131,0 0.06408,0.22221 0.159163,0.476456 0.222207,0.729673 0,0.09508 0.03204,0.159163 0.03204,0.222207 0.03204,-0.09509 0.06305,-0.190169 0.06305,-0.190169 0.09612,-0.254249 0.191202,-0.508497 0.254246,-0.761711 0.09509,0 0.159166,0 0.222211,0 0.06408,0.190169 0.127124,0.380338 0.191201,0.571542 0.06305,0.127124 0.09509,0.253214 0.09509,0.380338 0.03101,-0.06304 0.06305,-0.127124 0.06305,-0.222207 0.09509,-0.253217 0.159163,-0.507463 0.222207,-0.729673 0.06408,0 0.127125,0 0.19017,0 -0.12609,0.380338 -0.253214,0.729673 -0.380339,1.111043 -0.06408,0 -0.09508,0 -0.159163,0 -0.09508,-0.286287 -0.190169,-0.571539 -0.285252,-0.857829 -0.03204,-0.06304 -0.03204,-0.12609 -0.03204,-0.12609 -0.03204,0.06305 -0.03204,0.09509 -0.06305,0.12609 -0.09612,0.28629 -0.191201,0.571542 -0.286287,0.857829 -0.03204,0 -0.09508,0 -0.158131,0 z m 0,0"
         id="path2032" />
      <path
         inkscape:connector-curvature="0"
         style="fill:#ffffff;fill-opacity:1;fill-rule:evenodd;stroke:none;stroke-width:0.26458332"
         d="m 93.773012,20.444567 c 0,-0.38137 0,-0.730705 0,-1.111043 0.06408,0 0.127124,0 0.190169,0 0,0.127124 0,0.285255 0,0.444418 0.222208,0 0.444416,0 0.667658,0 0,-0.159163 0,-0.317294 0,-0.444418 0.06305,0 0.126092,0 0.190169,0 0,0.380338 0,0.729673 0,1.111043 -0.06408,0 -0.127122,0 -0.190169,0 0,-0.159163 0,-0.349332 0,-0.508495 -0.223242,0 -0.44545,0 -0.667658,0 0,0.159163 0,0.349332 0,0.508495 -0.06305,0 -0.126092,0 -0.190169,0 z m 0,0"
         id="path2034" />
      <path
         inkscape:connector-curvature="0"
         style="fill:#ffffff;fill-opacity:1;fill-rule:evenodd;stroke:none;stroke-width:0.26458332"
         d="m 95.138302,20.444567 c 0,-0.38137 0,-0.730705 0,-1.111043 0.06305,0 0.127124,0 0.190169,0 0,0.380338 0,0.729673 0,1.111043 -0.06304,0 -0.127124,0 -0.190169,0 z m 0,0"
         id="path2036" />
      <path
         inkscape:connector-curvature="0"
         style="fill:#ffffff;fill-opacity:1;fill-rule:evenodd;stroke:none;stroke-width:0.26458332"
         d="m 95.58272,20.095235 c 0.06408,0 0.09509,0 0.159163,0 0,0.03204 0.03101,0.09508 0.06305,0.127125 0.03204,0.03204 0.06408,0.06305 0.127124,0.09508 0.06305,0 0.127124,0.03204 0.190169,0.03204 0.09612,0 0.127125,0 0.191204,-0.03204 0.06305,-0.03204 0.09508,-0.03204 0.127124,-0.06305 0.03101,-0.03204 0.03101,-0.06408 0.03101,-0.09612 0,-0.03101 0,-0.06305 -0.03101,-0.09508 -0.03204,-0.03101 -0.06408,-0.06305 -0.127124,-0.06305 -0.03204,-0.03204 -0.127124,-0.03204 -0.254249,-0.06408 -0.09508,-0.03101 -0.190169,-0.06304 -0.254249,-0.06304 -0.06304,-0.03204 -0.09508,-0.06305 -0.127121,-0.127125 -0.03101,-0.03204 -0.06305,-0.09509 -0.06305,-0.127124 0,-0.06304 0.03204,-0.127125 0.06305,-0.158131 0.03204,-0.06408 0.09508,-0.09612 0.159163,-0.127124 0.09508,-0.03204 0.158128,-0.03204 0.254249,-0.03204 0.09508,0 0.190169,0 0.253214,0.03204 0.09612,0.03101 0.159163,0.06304 0.191201,0.127124 0.03101,0.06305 0.06305,0.12609 0.06305,0.190169 -0.06305,0 -0.127122,0 -0.158128,0 -0.03204,-0.06408 -0.06408,-0.127124 -0.09612,-0.159163 -0.06305,-0.03101 -0.126092,-0.06304 -0.253214,-0.06304 -0.09612,0 -0.159165,0.03204 -0.22221,0.06305 -0.03204,0.03204 -0.06408,0.06408 -0.06408,0.127124 0,0.03204 0,0.06408 0.03204,0.09508 0.03204,0.03204 0.127124,0.03204 0.285252,0.06408 0.127125,0.03204 0.222211,0.06305 0.286288,0.09509 0.09509,0.03204 0.127124,0.06304 0.190169,0.09508 0.03204,0.06408 0.03204,0.09509 0.03204,0.159163 0,0.06305 0,0.127124 -0.06408,0.190169 -0.03101,0.03204 -0.09508,0.09509 -0.158131,0.127124 -0.09508,0.03204 -0.159163,0.03204 -0.254246,0.03204 -0.127124,0 -0.22221,0 -0.317294,-0.03204 -0.06408,-0.03204 -0.127123,-0.09508 -0.190168,-0.159162 -0.03204,-0.06304 -0.06408,-0.127124 -0.06408,-0.190169 z m 0,0"
         id="path2038" />
      <path
         inkscape:connector-curvature="0"
         style="fill:#ffffff;fill-opacity:1;fill-rule:evenodd;stroke:none;stroke-width:0.26458332"
         d="m 97.234299,20.444567 c 0,-0.317293 0,-0.666625 0,-0.983919 -0.159163,0 -0.318328,0 -0.445452,0 0,-0.06408 0,-0.09612 0,-0.127124 0.349334,0 0.698666,0 1.047998,0 0,0.03101 0,0.06304 0,0.127124 -0.158128,0 -0.285253,0 -0.444418,0 0,0.317294 0,0.666626 0,0.983919 -0.06305,0 -0.127121,0 -0.158128,0 z m 0,0"
         id="path2040" />
      <path
         inkscape:connector-curvature="0"
         style="fill:#ffffff;fill-opacity:1;fill-rule:evenodd;stroke:none;stroke-width:0.26458332"
         d="m 98.028049,20.444567 c 0,-0.38137 0,-0.730705 0,-1.111043 0.03101,0 0.09508,0 0.158128,0 0,0.317293 0,0.666625 0,0.983919 0.22221,0 0.444418,0 0.666628,0 0,0.06304 0,0.09509 0,0.127124 -0.285255,0 -0.571542,0 -0.824756,0 z m 0,0"
         id="path2042" />
      <path
         inkscape:connector-curvature="0"
         style="fill:#ffffff;fill-opacity:1;fill-rule:evenodd;stroke:none;stroke-width:0.26458332"
         d="m 99.075013,20.444567 c 0,-0.38137 0,-0.730705 0,-1.111043 0.318325,0 0.635619,0 0.952917,0 0,0.03101 0,0.06304 0,0.127124 -0.254253,0 -0.539506,0 -0.793754,0 0,0.09509 0,0.22221 0,0.349332 0.254248,0 0.507463,0 0.72967,0 0,0.03101 0,0.09509 0,0.126092 -0.222207,0 -0.475422,0 -0.72967,0 0,0.127125 0,0.254247 0,0.381371 0.285255,0 0.539501,0 0.825794,0 0,0.06304 0,0.09509 0,0.127124 -0.318331,0 -0.666632,0 -0.984957,0 z m 0,0"
         id="path2044" />
      <path
         inkscape:connector-curvature="0"
         style="fill:none;stroke:#ffffff;stroke-width:0.09921875;stroke-linecap:round;stroke-linejoin:round;stroke-miterlimit:10;stroke-opacity:1"
         d="m 92.249592,20.44457 c -0.127125,-0.381373 -0.254249,-0.730705 -0.349335,-1.111044 0.03101,0 0.09509,0 0.158131,0 0.06408,0.222208 0.159163,0.476457 0.222207,0.729671 0,0.09508 0.03204,0.159163 0.03204,0.222207 0.03204,-0.09508 0.06305,-0.190169 0.06305,-0.190169 0.09612,-0.254246 0.191202,-0.508495 0.254249,-0.761709 0.09508,0 0.159163,0 0.222208,0 0.06408,0.19017 0.127124,0.380339 0.191204,0.57154 0.06305,0.127124 0.09508,0.253214 0.09508,0.380338 0.03101,-0.06304 0.06305,-0.127124 0.06305,-0.222207 0.09509,-0.253214 0.159163,-0.507463 0.22221,-0.729671 0.06408,0 0.127124,0 0.190169,0 -0.126092,0.380339 -0.253216,0.729671 -0.380338,1.111044 -0.06408,0 -0.09509,0 -0.159166,0 -0.09508,-0.28629 -0.190169,-0.571542 -0.285252,-0.85783 -0.03204,-0.06304 -0.03204,-0.126092 -0.03204,-0.126092 -0.03204,0.06305 -0.03204,0.09509 -0.06305,0.126092 -0.09612,0.286288 -0.191201,0.57154 -0.286287,0.85783 -0.03204,0 -0.09508,0 -0.158128,0"
         id="path2046" />
      <path
         inkscape:connector-curvature="0"
         style="fill:none;stroke:#ffffff;stroke-width:0.09921875;stroke-linecap:round;stroke-linejoin:round;stroke-miterlimit:10;stroke-opacity:1"
         d="m 93.773009,20.44457 c 0,-0.381373 0,-0.730705 0,-1.111044 0.06408,0 0.127125,0 0.19017,0 0,0.127122 0,0.285253 0,0.444416 0.22221,0 0.444418,0 0.66766,0 0,-0.159163 0,-0.317294 0,-0.444416 0.06305,0 0.12609,0 0.190169,0 0,0.380339 0,0.729671 0,1.111044 -0.06408,0 -0.127124,0 -0.190169,0 0,-0.159166 0,-0.349335 0,-0.508498 -0.223242,0 -0.44545,0 -0.66766,0 0,0.159163 0,0.349332 0,0.508498 -0.06305,0 -0.12609,0 -0.19017,0"
         id="path2048" />
      <path
         inkscape:connector-curvature="0"
         style="fill:none;stroke:#ffffff;stroke-width:0.09921875;stroke-linecap:round;stroke-linejoin:round;stroke-miterlimit:10;stroke-opacity:1"
         d="m 95.138304,20.44457 c 0,-0.381373 0,-0.730705 0,-1.111044 0.06304,0 0.127125,0 0.19017,0 0,0.380339 0,0.729671 0,1.111044 -0.06305,0 -0.127125,0 -0.19017,0"
         id="path2050" />
      <path
         inkscape:connector-curvature="0"
         style="fill:none;stroke:#ffffff;stroke-width:0.09921875;stroke-linecap:round;stroke-linejoin:round;stroke-miterlimit:10;stroke-opacity:1"
         d="m 95.58272,20.095235 c 0.06408,0 0.09509,0 0.159163,0 0,0.03204 0.03101,0.09509 0.06305,0.127125 0.03204,0.03204 0.06408,0.06305 0.127124,0.09508 0.06305,0 0.127124,0.03204 0.190169,0.03204 0.09612,0 0.127125,0 0.191204,-0.03204 0.06305,-0.03204 0.09508,-0.03204 0.127124,-0.06305 0.03101,-0.03204 0.03101,-0.06408 0.03101,-0.09612 0,-0.03101 0,-0.06305 -0.03101,-0.09508 -0.03204,-0.03101 -0.06408,-0.06305 -0.127124,-0.06305 -0.03204,-0.03204 -0.127124,-0.03204 -0.254249,-0.06408 -0.09508,-0.03101 -0.190169,-0.06304 -0.254249,-0.06304 -0.06304,-0.03204 -0.09508,-0.06305 -0.127121,-0.127125 -0.03101,-0.03204 -0.06305,-0.09509 -0.06305,-0.127124 0,-0.06304 0.03204,-0.127125 0.06305,-0.158131 0.03204,-0.06408 0.09508,-0.09612 0.159163,-0.127124 0.09508,-0.03204 0.158128,-0.03204 0.254249,-0.03204 0.09508,0 0.190169,0 0.253214,0.03204 0.09612,0.03101 0.159163,0.06305 0.191201,0.127124 0.03101,0.06305 0.06305,0.12609 0.06305,0.190169 -0.06305,0 -0.127122,0 -0.158128,0 -0.03204,-0.06408 -0.06408,-0.127124 -0.09612,-0.159163 -0.06305,-0.03101 -0.126092,-0.06304 -0.253214,-0.06304 -0.09612,0 -0.159165,0.03204 -0.22221,0.06305 -0.03204,0.03204 -0.06408,0.06408 -0.06408,0.127124 0,0.03204 0,0.06408 0.03204,0.09508 0.03204,0.03204 0.127124,0.03204 0.285252,0.06408 0.127125,0.03204 0.222211,0.06305 0.286288,0.09509 0.09509,0.03204 0.127124,0.06304 0.190169,0.09508 0.03204,0.06408 0.03204,0.09509 0.03204,0.159163 0,0.06305 0,0.127124 -0.06408,0.190169 -0.03101,0.03204 -0.09508,0.09509 -0.158131,0.127124 -0.09508,0.03204 -0.159163,0.03204 -0.254246,0.03204 -0.127124,0 -0.22221,0 -0.317294,-0.03204 -0.06408,-0.03204 -0.127123,-0.09508 -0.190168,-0.159162 -0.03204,-0.06304 -0.06408,-0.127124 -0.06408,-0.190169"
         id="path2052" />
      <path
         inkscape:connector-curvature="0"
         style="fill:none;stroke:#ffffff;stroke-width:0.09921875;stroke-linecap:round;stroke-linejoin:round;stroke-miterlimit:10;stroke-opacity:1"
         d="m 97.234297,20.44457 c 0,-0.317294 0,-0.666628 0,-0.983922 -0.159163,0 -0.318326,0 -0.44545,0 0,-0.06408 0,-0.09612 0,-0.127122 0.349332,0 0.698663,0 1.047998,0 0,0.031 0,0.06305 0,0.127122 -0.158131,0 -0.285255,0 -0.444418,0 0,0.317294 0,0.666628 0,0.983922 -0.06305,0 -0.127124,0 -0.15813,0"
         id="path2054" />
      <path
         inkscape:connector-curvature="0"
         style="fill:none;stroke:#ffffff;stroke-width:0.09921875;stroke-linecap:round;stroke-linejoin:round;stroke-miterlimit:10;stroke-opacity:1"
         d="m 98.028046,20.44457 c 0,-0.381373 0,-0.730705 0,-1.111044 0.03101,0 0.09509,0 0.158131,0 0,0.317294 0,0.666626 0,0.98392 0.222208,0 0.444418,0 0.666626,0 0,0.06304 0,0.09508 0,0.127124 -0.285253,0 -0.571543,0 -0.824757,0"
         id="path2056" />
      <path
         inkscape:connector-curvature="0"
         style="fill:none;stroke:#ffffff;stroke-width:0.09921875;stroke-linecap:round;stroke-linejoin:round;stroke-miterlimit:10;stroke-opacity:1"
         d="m 99.07501,20.44457 c 0,-0.381373 0,-0.730705 0,-1.111044 0.318328,0 0.635622,0 0.95292,0 0,0.031 0,0.06305 0,0.127122 -0.254253,0 -0.539506,0 -0.793754,0 0,0.09509 0,0.22221 0,0.349335 0.254248,0 0.507463,0 0.72967,0 0,0.03101 0,0.09508 0,0.126089 -0.222207,0 -0.475422,0 -0.72967,0 0,0.127125 0,0.254249 0,0.381374 0.285252,0 0.539501,0 0.825784,0 0,0.06304 0,0.09508 0,0.127124 -0.318321,0 -0.666622,0 -0.98495,0"
         id="path2058" />
      <path
         inkscape:connector-curvature="0"
         style="fill:#ffffff;fill-opacity:1;fill-rule:evenodd;stroke:none;stroke-width:0.26458332"
         d="m 103.33005,19.905066 c 0.0631,0.03101 0.12712,0.03101 0.19017,0.03101 -0.032,0.127124 -0.0951,0.222208 -0.22221,0.286287 -0.0951,0.06305 -0.25425,0.09508 -0.41238,0.09508 -0.15916,0 -0.28628,0 -0.41341,-0.06305 -0.0951,-0.06408 -0.15813,-0.127124 -0.22221,-0.222208 -0.0631,-0.09612 -0.0951,-0.191203 -0.0951,-0.286287 0,-0.127124 0.032,-0.22221 0.0951,-0.317293 0.0641,-0.09509 0.15917,-0.159163 0.28629,-0.19017 0.0951,-0.06408 0.22221,-0.09612 0.34933,-0.09612 0.15813,0 0.28526,0.03204 0.41238,0.09612 0.0951,0.06304 0.15916,0.158129 0.19017,0.253215 -0.063,0 -0.12609,0.03204 -0.19017,0.03204 -0.032,-0.09508 -0.0951,-0.159163 -0.15916,-0.19017 -0.0631,-0.03204 -0.15813,-0.06408 -0.25322,-0.06408 -0.12712,0 -0.22221,0.03204 -0.28628,0.06408 -0.0951,0.06304 -0.12713,0.09509 -0.15813,0.19017 -0.0641,0.06304 -0.0641,0.127124 -0.0641,0.22221 0,0.09508 0.032,0.159163 0.0641,0.254246 0.031,0.06305 0.0951,0.127124 0.15813,0.158131 0.0951,0.03204 0.1912,0.03204 0.28628,0.03204 0.0951,0 0.19017,0 0.28526,-0.06305 0.0641,-0.03204 0.12712,-0.127124 0.15916,-0.222207 z m 0,0"
         id="path2060" />
      <path
         inkscape:connector-curvature="0"
         style="fill:#ffffff;fill-opacity:1;fill-rule:evenodd;stroke:none;stroke-width:0.26458332"
         d="m 103.77447,20.317443 c 0,-0.381371 0,-0.761709 0,-1.143082 0.0951,0 0.15813,0 0.22221,0 0,0.159163 0,0.317293 0,0.476456 0.25424,0 0.5395,0 0.79375,0 0,-0.159163 0,-0.317293 0,-0.476456 0.063,0 0.12712,0 0.22221,0 0,0.381373 0,0.761711 0,1.143082 -0.0951,0 -0.15917,0 -0.22221,0 0,-0.190169 0,-0.349332 0,-0.539501 -0.25425,0 -0.53951,0 -0.79375,0 0,0.190169 0,0.349332 0,0.539501 -0.0641,0 -0.12713,0 -0.22221,0 z m 0,0"
         id="path2062" />
      <path
         inkscape:connector-curvature="0"
         style="fill:#ffffff;fill-opacity:1;fill-rule:evenodd;stroke:none;stroke-width:0.26458332"
         d="m 105.36197,20.317443 c 0,-0.381371 0,-0.761709 0,-1.143082 0.0631,0 0.15813,0 0.22221,0 0,0.381373 0,0.761711 0,1.143082 -0.0641,0 -0.15917,0 -0.22221,0 z m 0,0"
         id="path2064" />
      <path
         inkscape:connector-curvature="0"
         style="fill:#ffffff;fill-opacity:1;fill-rule:evenodd;stroke:none;stroke-width:0.26458332"
         d="m 105.93351,20.317443 c 0,-0.381371 0,-0.761709 0,-1.143082 0.19017,0 0.38034,0 0.57154,0 0.12712,0 0.19017,0 0.25425,0 0.063,0.03204 0.12609,0.03204 0.19017,0.06408 0.032,0.03101 0.0951,0.06304 0.12712,0.09508 0.031,0.06304 0.031,0.127124 0.031,0.158131 0,0.09508 -0.031,0.191204 -0.12609,0.254248 -0.0641,0.06408 -0.2222,0.09508 -0.44442,0.09508 -0.12712,0 -0.25424,0 -0.38137,0 0,0.159163 0,0.317294 0,0.476457 -0.0951,0 -0.15916,0 -0.22221,0 z m 0.22221,-0.603581 c 0.12712,0 0.25425,0 0.38137,0 0.12609,0 0.22221,-0.031 0.28525,-0.06304 0.0631,-0.03204 0.0951,-0.06408 0.0951,-0.127124 0,-0.06305 -0.032,-0.09508 -0.0631,-0.127125 -0.032,-0.03204 -0.0641,-0.06304 -0.12712,-0.06304 -0.032,-0.03204 -0.0951,-0.03204 -0.19017,-0.03204 -0.12712,0 -0.25425,0 -0.38137,0 0,0.127125 0,0.285253 0,0.412377 z m 0,0"
         id="path2066" />
      <path
         inkscape:connector-curvature="0"
         style="fill:none;stroke:#ffffff;stroke-width:0.09921875;stroke-linecap:round;stroke-linejoin:round;stroke-miterlimit:10;stroke-opacity:1"
         d="m 103.33005,19.905066 c 0.063,0.031 0.12712,0.031 0.19017,0.031 -0.032,0.127124 -0.0951,0.22221 -0.22221,0.28629 -0.0951,0.06305 -0.25425,0.09508 -0.41237,0.09508 -0.15917,0 -0.28629,0 -0.41342,-0.06305 -0.0951,-0.06408 -0.15813,-0.127125 -0.22221,-0.222208 -0.0631,-0.09612 -0.0951,-0.191204 -0.0951,-0.28629 0,-0.127121 0.032,-0.222207 0.0951,-0.317291 0.0641,-0.09509 0.15917,-0.159165 0.28629,-0.190169 0.0951,-0.06408 0.22221,-0.09612 0.34934,-0.09612 0.15812,0 0.28525,0.03204 0.41237,0.09612 0.0951,0.06304 0.15916,0.158128 0.19017,0.253214 -0.063,0 -0.12609,0.03204 -0.19017,0.03204 -0.032,-0.09508 -0.0951,-0.159162 -0.15916,-0.190169 -0.0631,-0.03204 -0.15813,-0.06408 -0.25321,-0.06408 -0.12713,0 -0.22222,0.03204 -0.28629,0.06408 -0.0951,0.06304 -0.12713,0.09509 -0.15813,0.190169 -0.0641,0.06304 -0.0641,0.127125 -0.0641,0.222208 0,0.09509 0.032,0.159165 0.0641,0.254249 0.031,0.06304 0.0951,0.127124 0.15813,0.158131 0.0951,0.03204 0.1912,0.03204 0.28629,0.03204 0.0951,0 0.19016,0 0.28525,-0.06305 0.0641,-0.03204 0.12712,-0.127125 0.15916,-0.222208"
         id="path2068" />
      <path
         inkscape:connector-curvature="0"
         style="fill:none;stroke:#ffffff;stroke-width:0.09921875;stroke-linecap:round;stroke-linejoin:round;stroke-miterlimit:10;stroke-opacity:1"
         d="m 103.77447,20.317446 c 0,-0.381374 0,-0.761712 0,-1.143085 0.0951,0 0.15813,0 0.22221,0 0,0.159165 0,0.317293 0,0.476459 0.25424,0 0.5395,0 0.79375,0 0,-0.159166 0,-0.317294 0,-0.476459 0.063,0 0.12712,0 0.22221,0 0,0.381373 0,0.761711 0,1.143085 -0.0951,0 -0.15917,0 -0.22221,0 0,-0.19017 0,-0.349335 0,-0.539502 -0.25425,0 -0.53951,0 -0.79375,0 0,0.190167 0,0.349332 0,0.539502 -0.0641,0 -0.12713,0 -0.22221,0"
         id="path2070" />
      <path
         inkscape:connector-curvature="0"
         style="fill:none;stroke:#ffffff;stroke-width:0.09921875;stroke-linecap:round;stroke-linejoin:round;stroke-miterlimit:10;stroke-opacity:1"
         d="m 105.36197,20.317446 c 0,-0.381374 0,-0.761712 0,-1.143085 0.0631,0 0.15813,0 0.22221,0 0,0.381373 0,0.761711 0,1.143085 -0.0641,0 -0.15917,0 -0.22221,0"
         id="path2072" />
      <path
         inkscape:connector-curvature="0"
         style="fill:none;stroke:#ffffff;stroke-width:0.09921875;stroke-linecap:round;stroke-linejoin:round;stroke-miterlimit:10;stroke-opacity:1"
         d="m 105.93351,20.317446 c 0,-0.381374 0,-0.761712 0,-1.143085 0.19017,0 0.38034,0 0.57154,0 0.12712,0 0.19017,0 0.25425,0 0.063,0.03204 0.12609,0.03204 0.19017,0.06408 0.032,0.03101 0.0951,0.06304 0.12712,0.09509 0.031,0.06305 0.031,0.127124 0.031,0.158128 0,0.09509 -0.031,0.191204 -0.12609,0.254249 -0.0641,0.06408 -0.2222,0.09509 -0.44442,0.09509 -0.12712,0 -0.25424,0 -0.38137,0 0,0.159162 0,0.317291 0,0.476456 -0.0951,0 -0.15916,0 -0.22221,0 z m 0.22221,-0.603581 c 0.12712,0 0.25424,0 0.38137,0 0.12609,0 0.22221,-0.03101 0.28525,-0.06304 0.0631,-0.03204 0.0951,-0.06408 0.0951,-0.127125 0,-0.06304 -0.032,-0.09509 -0.0631,-0.127124 -0.032,-0.03204 -0.0641,-0.06305 -0.12712,-0.06305 -0.032,-0.03204 -0.0951,-0.03204 -0.19017,-0.03204 -0.12712,0 -0.25425,0 -0.38137,0 0,0.127124 0,0.285255 0,0.41238 z m 0,0"
         id="path2074" />
      <path
         inkscape:connector-curvature="0"
         style="fill:#ffffff;fill-opacity:1;fill-rule:evenodd;stroke:none;stroke-width:0.26458332"
         d="m 103.86955,16.221569 c -0.12712,-0.761709 -0.28525,-1.523421 -0.44441,-2.286165 0.0951,0 0.15916,0 0.2222,0 0.0951,0.508495 0.19017,1.015958 0.25425,1.492415 0.031,0.159165 0.0631,0.317293 0.0631,0.476459 0.0641,-0.254249 0.0641,-0.381374 0.0951,-0.41238 0.0961,-0.508495 0.19121,-1.047999 0.28629,-1.556494 0.0951,0 0.19017,0 0.28525,0 0.0641,0.381374 0.15917,0.79375 0.22221,1.175124 0.0641,0.285252 0.0961,0.539501 0.12713,0.79375 0.032,-0.127125 0.0641,-0.317294 0.0951,-0.476459 0.0641,-0.507461 0.15916,-0.98392 0.25424,-1.492415 0.0641,0 0.12713,0 0.22221,0 -0.15813,0.762744 -0.3173,1.524456 -0.47646,2.286165 -0.063,0 -0.12609,0 -0.19017,0 -0.12712,-0.57154 -0.22221,-1.143083 -0.34933,-1.745629 -0.032,-0.127124 -0.032,-0.22221 -0.063,-0.254248 0,0.09509 -0.032,0.190169 -0.032,0.254248 -0.12713,0.602546 -0.22221,1.174089 -0.34933,1.745629 -0.063,0 -0.15917,0 -0.22222,0 z m 0,0"
         id="path2076" />
      <path
         inkscape:connector-curvature="0"
         style="fill:#ffffff;fill-opacity:1;fill-rule:evenodd;stroke:none;stroke-width:0.26458332"
         d="m 106.91743,15.427819 c 0.0641,0.03204 0.12712,0.06408 0.22221,0.06408 -0.0631,0.253214 -0.15813,0.444418 -0.25425,0.571542 -0.12609,0.12609 -0.25322,0.222208 -0.44442,0.222208 -0.15813,0 -0.31729,-0.06408 -0.41238,-0.159163 -0.12712,-0.09509 -0.2222,-0.254249 -0.25424,-0.444418 -0.0631,-0.190169 -0.0951,-0.381371 -0.0951,-0.603581 0,-0.254249 0.032,-0.444418 0.0951,-0.634587 0.0641,-0.190169 0.15916,-0.317291 0.28628,-0.413412 0.12713,-0.09508 0.25322,-0.126089 0.38034,-0.126089 0.15917,0 0.31833,0.06304 0.41341,0.15813 0.12713,0.127125 0.19017,0.286288 0.25322,0.508495 -0.0951,0.03101 -0.15813,0.03101 -0.22221,0.06304 -0.031,-0.158128 -0.0951,-0.285252 -0.15813,-0.349332 -0.0951,-0.09508 -0.15916,-0.127124 -0.28629,-0.127124 -0.12712,0 -0.22221,0.03204 -0.31729,0.127124 -0.063,0.09509 -0.12712,0.191204 -0.15813,0.349332 -0.032,0.127124 -0.0641,0.28629 -0.0641,0.444418 0,0.191204 0.032,0.349332 0.0641,0.508498 0.031,0.127124 0.0951,0.254246 0.19017,0.317293 0.0951,0.06304 0.15813,0.09508 0.28525,0.09508 0.0961,0 0.22221,-0.03204 0.28629,-0.127124 0.0951,-0.09508 0.15813,-0.254249 0.19017,-0.444417 z m 0,0"
         id="path2078" />
      <path
         inkscape:connector-curvature="0"
         style="fill:none;stroke:#ffffff;stroke-width:0.0635;stroke-linecap:round;stroke-linejoin:round;stroke-miterlimit:10;stroke-opacity:1"
         d="m 103.86955,16.221569 c -0.12712,-0.761712 -0.28525,-1.523421 -0.44441,-2.286167 0.0951,0 0.15916,0 0.2222,0 0.0951,0.508497 0.19017,1.01596 0.25425,1.492417 0.031,0.159162 0.0631,0.317293 0.0631,0.476456 0.0641,-0.254249 0.0641,-0.381373 0.0951,-0.412377 0.0961,-0.508497 0.1912,-1.047999 0.28629,-1.556496 0.0951,0 0.19017,0 0.28525,0 0.0641,0.381373 0.15917,0.79375 0.22221,1.175123 0.0641,0.285255 0.0961,0.539501 0.12713,0.79375 0.032,-0.127124 0.0641,-0.317294 0.0951,-0.476456 0.0641,-0.507463 0.15916,-0.98392 0.25425,-1.492417 0.0641,0 0.12712,0 0.2222,0 -0.15812,0.762746 -0.31729,1.524455 -0.47645,2.286167 -0.063,0 -0.12609,0 -0.19017,0 -0.12713,-0.571543 -0.22222,-1.143083 -0.34934,-1.745631 -0.032,-0.127122 -0.032,-0.222208 -0.063,-0.254246 0,0.09508 -0.032,0.190169 -0.032,0.254246 -0.12713,0.602548 -0.22221,1.174088 -0.34934,1.745631 -0.063,0 -0.15916,0 -0.2222,0"
         id="path2080" />
      <path
         inkscape:connector-curvature="0"
         style="fill:none;stroke:#ffffff;stroke-width:0.0635;stroke-linecap:round;stroke-linejoin:round;stroke-miterlimit:10;stroke-opacity:1"
         d="m 106.91743,15.427819 c 0.0641,0.03204 0.12712,0.06408 0.22221,0.06408 -0.0631,0.253214 -0.15813,0.444418 -0.25425,0.571539 -0.12609,0.126093 -0.25322,0.222211 -0.44442,0.222211 -0.15813,0 -0.31729,-0.06408 -0.41238,-0.159163 -0.12712,-0.09509 -0.2222,-0.254249 -0.25424,-0.444418 -0.0631,-0.190169 -0.0951,-0.381373 -0.0951,-0.603581 0,-0.254249 0.032,-0.444418 0.0951,-0.634587 0.0641,-0.190169 0.15916,-0.317294 0.28629,-0.413412 0.12712,-0.09509 0.25321,-0.126089 0.38033,-0.126089 0.15917,0 0.31833,0.06304 0.41342,0.158128 0.12712,0.127124 0.19016,0.28629 0.25321,0.508497 -0.0951,0.03101 -0.15813,0.03101 -0.22221,0.06304 -0.031,-0.158131 -0.0951,-0.285252 -0.15813,-0.349332 -0.0951,-0.09509 -0.15916,-0.127124 -0.28629,-0.127124 -0.12712,0 -0.22221,0.03204 -0.31729,0.127124 -0.063,0.09508 -0.12712,0.191201 -0.15813,0.349332 -0.032,0.127124 -0.0641,0.286287 -0.0641,0.444418 0,0.191201 0.032,0.349332 0.0641,0.508495 0.031,0.127124 0.0951,0.254249 0.19017,0.317293 0.0951,0.06305 0.15813,0.09509 0.28525,0.09509 0.0961,0 0.22221,-0.03204 0.28629,-0.127124 0.0951,-0.09509 0.15813,-0.254249 0.19017,-0.444418"
         id="path2082" />
    </g>
  </g>
</svg>
